<?xml version="1.0" encoding="UTF-8"?>
<svg id="Capa_2" data-name="Capa 2" xmlns="http://www.w3.org/2000/svg" viewBox="0 0 97.63 188.86">
  <defs>
    <style>
      .cls-1 {
        fill: #fef5f5;
      }

      .cls-1, .cls-2, .cls-3 {
        stroke-width: 0px;
      }

      .cls-2 {
        fill: none;
      }

      .cls-3 {
        fill: #1d1d1d;
      }
    </style>
  </defs>
  <g id="Capa_1-2" data-name="Capa 1">
    <g>
      <g>
        <path class="cls-1" d="m97.08,172.42s-4.62,0-11.84,0c1.92-4.24,2.52-11.75-.47-14.68-.57-.55-1.89-.81-3.53-.9.54-.5.86-1.22.78-2-.43-4.61-2.03-5.24-3.58-4.65-1.61.62-3.37-.43-3.54-2.15-.85-8.69-3.48-26.74-5.43-39.65h11.81s0-12.28,0-12.28c0,0-1,0-2.74.01v-6.15h-4.28v-5.26h-4.21v-5.42c5.24-6.62,8.49-15.78,8.49-25.89,0-15.89-8.01-29.41-19.19-34.45.15-7.31-.6-13.84-5.73-16.71-3.5-1.96-10.34.96-13.93,1.47-.17,5.12-.19,10.28-.18,15.44-10.96,5.2-18.76,18.57-18.76,34.26,0,9.84,3.08,18.77,8.07,25.34v5.97h-8.07v5.26h-3.4v6.17c-1.04,0-1.81.02-2.26.03-1,2.81-1.34,8.61,1.55,10.9.77.6,5.25.94,10.91,1.12l-5.68,39.42c-.15,1.05-.95,1.84-1.98,2.11-3.05.8-2.84,3.88-2.32,5.92.08.32.23.61.42.87-2.94.1-5.35.51-6.36,1.51-1.68,1.65-1.17,11.66.39,13.74.18.24.36.45.56.66H.59c0,10.35-2.71,14.96,8.7,15.7,12.89.84,26.12,0,39.04,0h33.1c2.89,0,8.43,1.1,11.11,0,1.24-.51,2.18-1.11,2.88-1.8,3.02-2.96,1.66-7.56,1.66-13.91Zm-61.73-14.92h33.44c-.15,0-.31.01-.44.01-10.81,0-21.62,0-32.44,0-.17,0-.36,0-.56-.01Z"/>
        <g>
          <path class="cls-2" d="m97.08,172.42s-4.62,0-11.84,0c1.92-4.24,2.52-11.75-.47-14.68-.57-.55-1.89-.81-3.53-.9.54-.5.86-1.22.78-2-.43-4.61-2.03-5.24-3.58-4.65-1.61.62-3.37-.43-3.54-2.15-.85-8.69-3.48-26.74-5.43-39.65h11.81s0-12.28,0-12.28c0,0-1,0-2.74.01v-6.15h-4.28v-5.26h-4.21v-5.42c5.24-6.62,8.49-15.78,8.49-25.89,0-15.89-8.01-29.41-19.19-34.45.15-7.31-.6-13.84-5.73-16.71-3.5-1.96-10.34.96-13.93,1.47-.17,5.12-.19,10.28-.18,15.44-10.96,5.2-18.76,18.57-18.76,34.26,0,9.84,3.08,18.77,8.07,25.34v5.97h-8.07v5.26h-3.4v6.17c-1.04,0-1.81.02-2.26.03-1,2.81-1.34,8.61,1.55,10.9.77.6,5.25.94,10.91,1.12l-5.68,39.42c-.15,1.05-.95,1.84-1.98,2.11-3.05.8-2.84,3.88-2.32,5.92.08.32.23.61.42.87-2.94.1-5.35.51-6.36,1.51-1.68,1.65-1.17,11.66.39,13.74.18.24.36.45.56.66H.59c0,10.35-2.71,14.96,8.7,15.7,12.89.84,26.12,0,39.04,0h33.1c2.89,0,8.43,1.1,11.11,0,1.24-.51,2.18-1.11,2.88-1.8,3.02-2.96,1.66-7.56,1.66-13.91Zm-61.73-14.92h33.44c-.15,0-.31.01-.44.01-10.81,0-21.62,0-32.44,0-.17,0-.36,0-.56-.01Z"/>
          <g>
            <path class="cls-3" d="m35.39,158.72c-.11-.02-.08.19-.09.23.18-.04.09-.28.09-.23Z"/>
            <polygon class="cls-3" points="37.06 158.25 37.03 158.34 37.27 158.13 37.06 158.25"/>
            <path class="cls-3" d="m38.58,158.26c-.14-.36-.55.06-.82-.07l-.04-.08-.12.29c.33-.05.76-.24.99-.14Z"/>
            <path class="cls-3" d="m39.39,159.03c-.05-.14.18-.12-.19-.04.02.02.02.02.03.04.03,0,.08,0,.16,0Z"/>
            <path class="cls-3" d="m39.24,159.02c-.16,0,.11.12,0,0h0Z"/>
            <path class="cls-3" d="m39.98,158.94l-.21.12c.04.08.23.1.16.16.22-.07.17-.15.05-.28Z"/>
            <path class="cls-3" d="m40.18,158.68l-.11.05s.05.05.11-.05Z"/>
            <path class="cls-3" d="m39.84,158.84l.23-.11c-.03-.06-.03-.17-.11.04.02-.11-.03,0-.13.07Z"/>
            <path class="cls-3" d="m39.71,158.79c-.12-.08-.27-.13-.06-.25-.4.05-.34.3.06.25Z"/>
            <path class="cls-3" d="m38.66,157.89l-.16-.1-.14.12c.07-.06.31.1.3-.02Z"/>
            <path class="cls-3" d="m41.3,159.13c.01-.08-.07-.2-.09-.3l-.16.09c.08.05.23.1.24.21Z"/>
            <path class="cls-3" d="m41.21,158.83l.23-.13c-.21-.02-.25.05-.23.13Z"/>
            <polygon class="cls-3" points="40.22 158.28 39.83 158.56 40.29 158.28 40.22 158.28"/>
            <polygon class="cls-3" points="42.19 159.14 42.06 159.31 42.29 159.05 42.19 159.14"/>
            <path class="cls-3" d="m42.78,159.1c-.1.15.13.25.03.34.16-.03.3-.15.42-.26-.13.06-.27.05-.45-.07Z"/>
            <path class="cls-3" d="m43.44,159.01c-.07.03-.13.1-.21.16.07-.03.14-.08.21-.16Z"/>
            <path class="cls-3" d="m41.84,158.73s.05.17.18.22l-.09-.21s-.06,0-.09,0Z"/>
            <path class="cls-3" d="m41.93,158.73h0c.1.01.17.02.2.02-.03,0-.09,0-.2-.02Z"/>
            <path class="cls-3" d="m41.82,158.73h.02s-.01-.03-.02,0Z"/>
            <path class="cls-3" d="m40.83,158.48c.14-.12.42-.25.15-.43-.1.15.06.25-.15.43Z"/>
            <path class="cls-3" d="m41.7,158.47l-.25-.05c0,.06.05.14-.02.2l.27-.15Z"/>
            <polygon class="cls-3" points="41.82 158.4 41.7 158.47 41.79 158.48 41.82 158.4"/>
            <path class="cls-3" d="m43.01,158.81c.11-.09.22-.1.36-.12-.14-.04-.29-.06-.43-.06-.02.07-.08.19.07.18Z"/>
            <path class="cls-3" d="m42.49,158.75h.02s-.03-.04-.02,0Z"/>
            <polygon class="cls-3" points="44.68 158.7 44.65 158.66 44.65 158.7 44.68 158.7"/>
            <path class="cls-3" d="m42.92,158.59c-.11-.04-.17.01-.23.08.08-.02.16-.04.26-.04,0-.03.01-.05-.02-.04Z"/>
            <path class="cls-3" d="m43.8,158.91c-.06-.04-.12-.08-.18-.12.05.07.17.17.18.12Z"/>
            <path class="cls-3" d="m42.55,158.8h-.02c.03.06.03.03.02,0Z"/>
            <path class="cls-3" d="m42.55,158.8c.05-.03.1-.08.14-.13-.06.02-.13.04-.18.07.01.02.03.04.04.06Z"/>
            <path class="cls-3" d="m45.07,157.33c-.02.2-.3.38-.54.17-.24.15-.08.8.13,1.16,0-.09,0-.17.25-.28-.09-.11-.54-.25-.34-.43.32-.1.27.07.42.17-.13-.25.41-.36.34-.72l-.28.13c0-.06.1-.15.02-.2Z"/>
            <path class="cls-3" d="m44.19,158.64l-.1.02c.12.03.2.11.35.27.17-.1.2-.17.21-.24l-.5-.03.03-.03Z"/>
            <path class="cls-3" d="m43.63,158.67c.08-.22.32-.31.17-.54-.3.01-.21.18-.38.27.48-.05-.14.12.21.24-.09.04-.18.05-.26.06.09.03.17.06.25.1h-.01s0-.01,0-.01h0s-.03-.05,0-.03h0s.01-.06.02-.09c.14.04.02.06-.02.08v.03s0,0,0,0l.48-.12c-.1-.03-.23-.02-.45,0Z"/>
            <path class="cls-3" d="m41.23,157.58s.01.03.02.05c.03-.03.04-.04-.02-.05Z"/>
            <path class="cls-3" d="m41.43,157.71s-.06.12-.18.09c-.1-.06,0-.1,0-.17-.07.06-.24.15-.02.26l.03-.03c.19.07.44.34.41.37-.06-.19-.11-.33-.23-.52Z"/>
            <path class="cls-3" d="m42.54,158.14l.4-.11-.2-.19v.11c-.22-.04-.17.09-.2.18Z"/>
            <polygon class="cls-3" points="44.72 158.81 44.67 159.03 44.9 158.71 44.72 158.81"/>
            <polygon class="cls-3" points="45.24 158.78 45.22 158.98 45.36 158.86 45.24 158.78"/>
            <path class="cls-3" d="m63.1,158.69l-.12.06c.06-.02.09-.04.12-.06Z"/>
            <path class="cls-3" d="m63.94,158.7l.02-.1c-.04.05-.06.09-.02.1Z"/>
            <path class="cls-3" d="m57.96,158.76c.17.18.36.47.34.25l-.05-.22c-.12.04-.21.01-.29-.03Z"/>
            <path class="cls-3" d="m66.68,157.46l-.05-.07c-.04.07-.08.14-.12.21.05-.04.11-.09.17-.14Z"/>
            <path class="cls-3" d="m66.8,156.56l.22.14c-.05-.05-.12-.1-.22-.14Z"/>
            <path class="cls-3" d="m58.46,158.92l-.14.22c.21,0,.12-.11.14-.22Z"/>
            <path class="cls-3" d="m50.55,158.7c.15.08.26.12.37.13-.18-.12-.32-.31-.37-.13Z"/>
            <path class="cls-3" d="m63.43,156.38c-.07.04-.1.08-.1.13.07-.04.12-.08.1-.13Z"/>
            <path class="cls-3" d="m51.34,158.83s-.05-.03-.08-.05c-.11.04-.22.07-.35.05.13.09.28.15.43,0Z"/>
            <path class="cls-3" d="m41.66,158.74s-.03-.01-.04-.03c0,.03.01.03.04.03Z"/>
            <path class="cls-3" d="m36.77,156.55s.13-.01.2-.02c-.04-.01-.1-.01-.2.02Z"/>
            <path class="cls-3" d="m47.32,158.87c-.11.01-.02.02,0,0h0Z"/>
            <path class="cls-3" d="m46.79,158.02s.04-.06.04-.11c0,.05-.02.09-.04.11Z"/>
            <path class="cls-3" d="m52.43,157.48h0s-.03-.03,0,0Z"/>
            <path class="cls-3" d="m47.16,158.78s.09.05.14.06c-.02-.02-.07-.04-.14-.06Z"/>
            <path class="cls-3" d="m47.18,158.88s-.07-.01-.1-.02c-.01.04,0,.06.1.02Z"/>
            <path class="cls-3" d="m47.48,158.86c-.06,0-.12,0-.18-.02.02.01.03.03.02.03.03,0,.08,0,.15-.01Z"/>
            <path class="cls-3" d="m50.67,158.16s-.01-.01-.02-.02c-.11.09-.06.08.02.02Z"/>
            <polygon class="cls-3" points="60.82 156.5 60.81 156.51 60.83 156.52 60.82 156.5"/>
            <path class="cls-3" d="m61.22,156.34c-.17.27-.26.24-.39.18l.13.63.26-.81Z"/>
            <path class="cls-3" d="m61.06,158.75l.28.19c-.33.32-.58.21-.32.48.04-.68,1.08-.07,1.12-.75l.18.14c-.05,0-.06.03-.11.03.36.33.26-.49.72-.39.16.05.27.15.16.23l.36-.17c.1.01.08.13-.02.12l.54-.05v.02c.07-.11.25-.27.33-.34.14.1-.07.07-.03.16l.3-.16c.12.18-.13.35-.33.32.28.68.25-.17.85.23l-.28.09c.18.39.4.25.72.49-.08-.13-.64-.61-.32-.77.09.05.21.08.39-.06,0,.24.17.18.39.17v.32c.22-.09.2-.26.34-.4.26.03.31.28.37.49.41.05-.29-.4.2-.46.34.12.59,0,1-.2.24.11-.04.2.04.29l.21-.26c.05,0,.04.08.03.12.18-.1.01-.32.3-.41.03-.15.15-.07.3.03l-.03-1.47c-.19-.13-.4-.29-.61-.07-.09-.09.04-.2.02-.32-.48.26-.41.19-.81.54l-.34-.21c.25.24-.07.52-.35.76.09.12.16.22.21.27l-.44.17c-.05-.05,0-.16.06-.3-.03.03-.06.05-.08.08-.16-.12-.08-.3.04-.48.05.06.11.13.16.2.11-.19.21-.41.19-.6-.03.04-.08.07-.14.09.03-.05.05-.1.03-.13-.01-.03-.06.04-.13.12l-.1-.36-.02.14-.58-.22c-.41.36-.77.89-1.43,1.03.16-.26.03-.43.04-.74.18.33.51-.14.85-.07-.18-.03-.14-.18-.09-.23l-.61.3c.01-.25-.13-.19-.29-.29.12.5-.45.33-.7.49-.02-.17.04-.34.34-.3-.33-.38-.43.59-.76.27.07,0,.11.02.14-.06-.17.15-.59.03-.49-.12h.07c-.49-.06-1.49,0-1.56.42,0-.05.06-.51.09-.6l-.87,1.43c.08-.37-.22-1.24.19-1.44-.12-.05-.26-.11-.5.02.08.05.2.53.09.56-.3-.41-.21-.22-.57-.56.12.08-.01.65-.2.63.03-.09-.02-.57.05-.62l-.47.56c.12-.1.02-.48-.08-.64.05.11-.4-.01-.53.05l.2.13c-.53-.08-.52.79-1.04.76.06-.12.16-.71-.11-.79-.12.29-.54,1.39-1,1.61l-.09-.16-.36.19c.22-.43.84-1.35,1.18-1.7-.2-.13-.05-.19-.35-.18-.1-.15.16-.23.25-.24l-.69-.1c.03.34-.53.34-.5.62l.75-.35c.03.34-.43.95-.92.89-.12-.13.09-.6.08-.71-.06.12-.46.22-.51.14l.21-.18c-.27-.13-.44.45-.77.12-.11-.02-.34-.43-.36-.23.18.38.22,1.57.1,1.86-.04-.03-.59-.37-.72-.56-.19-.3.28-.72.12-.98,0,.09-.11.21-.15.24-.12-.08.05-.28-.21-.24-.04.34-.52-.03-.12.29-.25.1-.27-.07-.56-.06.09.22-.27.75-.52.85.01-.09-.04-.2-.07-.25-.52-.03-.79-.19-1.27-.19-.04-.08-.28-.18-.18-.33-.07.06-.13.18-.28.18-.29-.29.33-.05.11-.4-.02.2-.38.27-.59.4.06.31.49.06.7-.06,0,.42-.37.86-.87,1.06-.4.1-.17-.27-.24-.21-.75-.07-.64.74-1.26.43-.25-.27-.01-.53-.07-.73.33-.1.5.17.72.16l-.27-.13c.1-.09.32-.16.44-.08-.21-.24-1.27-.05-1.85-.27-.1.09-.28.18-.2.29l.18-.04c.17.22-.34.3-.11.4-.25.15-.52.39-.87.27l-.06-.31c0,.09.23.18.32.09-.14.14-.53-.42-.69-.01l.24.21c-.25.15-.55.48-.86.38.14.3.07-.03.29.32-.19-.44.78.02.48-.44.22.41.39.17.68.52,0-.1-.1-.19.15-.14.01-.03.04-.07.06-.09h.02s-.01,0-.01,0c.01-.02.01-.02,0,0-.06-.04-.11-.1-.13-.15.13-.23.54-.22.67-.34.15.05-.06.12.02.22l.21-.18c.02.22.41.37.05.5h.32c.19.14.45.19.61.09.15.05.39-.25.25-.07l.51-.14v.06c.51.03,1.04-.37,1.61.03.17-.06.34-.13.62-.06l.05.19c.22-.07.65.19.74,0,.23.52,1.05.11,1.43.21v-.25c.28.01.53-.06.85-.16l-.02-.22c.28-.18.72.16,1.16.14-.03.09-.14.06-.22.01.53.51,1.12-.37,1.6,0,.12-.08.21-.05.29,0-.01,0-.02,0-.03.01.01,0,.03,0,.05,0,.05.04.11.08.17.12-.05-.05-.1-.1-.14-.12.09,0,.23-.03.37-.09l.06.24s.02,0,.03,0c.13.09.11-.11.04-.3.07-.04.13-.09.18-.15.11.39.36-.13.51.28.09-.2.69-.15.76-.58,0,.06.05.08-.03.09.15.05.31.1.44-.02l.06.31.33-.41c.2.19.29.29.09.53.49-.36.39-.14.81-.5l-.02.2c.15,0,.38-.27.47-.11.33.38,1.64.05,2.49.4-.16-.58.39.26.43-.19.05.14.17.22.03.34.43-.14.65.22.95-.16.05.14-.09.2-.05.28.03-.03.14-.12.18-.04.04.08-.06.12-.13.18.44-.02.49-.45.52-.85.22.19.34.16.5-.1.08.13.21.27-.07.31.15.02.95.19.96-.13.05.08.22.02.26-.01.34.02.38.05.74,0l-.1-.05c.05-.14.1-.19.15-.2l-.02-.83c-.1.02-.23-.1-.4-.07v-.04c-.62-.28-.26.13-.89-.18l.03.24c-.06.52-.55-.3-.91-.11l.13.14c-.2.18-.55-.7-.75-.77-.04-.04.07-.07.13-.11-.52-.3-.07.31-.45.39-.07-.17.09-.43-.17-.46-.13-.14-.75.55-1.11.23.08.13.16.26-.02.36-.28.05-.74-.49-.99-.08-.03-.04-.05-.07-.05-.1-.21.11-.68.18-.81.4-.19-.83-1.31.4-1.3-.36l-.65.04.02-.08c-.41-.05-.56.13-.71.32-.1-.05-.03-.12-.02-.16-.6-.15-.66-.12-1.17.26l-.05-.25c-.14.14-.87-.39-1.47-.1,0-.03.02-.08.07-.11-.67.29-1.6-.69-1.84.22l-.44.22c.57.07-.08.39.15.54-.22.05-.58-.27-.3-.32l.04.05c.1-.47-.71-.17-.69-.49-1.12.02-2.21-.24-3.26-.26l.12.37-.37-.02c-.1-.09-.13-.29.13-.27-.14-.21-.44.17-.45.25-.51-.15.2-.43.04-.44l-.21.03.05.04c-.17.15-.19.31-.5.29-.2-.07-.1-.23-.18-.24,0-.03-.03-.04-.12-.01l-.46-.03.18.29c-.2.14-.43-.02-.22.31-.31-.5-1.72-.18-1.91-.34-.29.21-.57.21-.92.18.09.06.14.38-.16.35.11-.67-.55-.29-.8-.77.22.32-.86.08-.52.53-.25-.05-.02-.25-.21-.41-.6.26-1.32-.17-2.06-.08-.01.09.11.22-.05.35l-.39-.44c-.15.04-.13.51-.4.2.04.07.09.19,0,.21-1.45-.43-2.97.35-4.44-.45.2.17.07.19-.09.19.1.04,0,.22.02.34l-.62-.33c-.11.33-.66.02-.73.34l.2-.06c-.26.37.36.83.33,1.31.29-.42.77.63,1.24.02.11.1-.09.15-.03.27.12-.21.27-.25.54-.16l-.03.05c.76-.05,1.09.15,1.94.29l-.06-.24c.18.03.22.11.31.17.21-.36-.52-.02-.32-.42.24.48,1.3,0,1.46.55.28,0-.08-.27.2-.27l.07.15.07-.19c.19.03.28.22.29.34-.04-.01-.13.04-.18.05.24.17.68-.06.76,0l-.27-.09c.77-.14,1.71.06,2.46-.25l-.06-.11c.57-.21.46.12,1.08.03l-.02.03c.13-.11.29-.17.46-.15-.16.13.3.25.09.4.62-.22.31-.17.71-.59l.09.19c.14-.17.15-.26.46-.3-.26.16.2.28-.09.49.65.41.97-.41,1.27.18.3-.51-.57-.28-.4-.39-.14-.17.25-.38.45-.33.21.01.36.66.88.65-.05,0-.06.04-.11.03.2.13.39-.18.63.04.14-.31.31.02.35-.38l-.48.09c.27-.1.53-.57.98-.34-.04.08-.17.18-.26.24.13.12.25-.08.39.04-.04.4-.59.09-.88.39.14.17.55-.29.41.14.21-.55.52.07.87-.35l-.02.24c.06-.04.17-.15.28-.14l-.19.31c.29-.26.56.23.83.09-.58,0-.13-.29-.37-.46.71-.32.41.62,1.21.51-.11.03-.41-.14-.24-.25.15.05.35.14.45.26.53-.05-.08-.24.14-.39.18.29.26-.12.49-.21v.24c.61.15.16-.5.71-.32l-.23.33.28-.09-.06.27c.31-.2.4-.15.71-.07-.07-.17.04-.44.31-.45.18.14-.1.23.28.19-.09.15-.18.34-.34.12-.02.08-.08.15-.1.23.2.16.49.04.63.04-.05,0-.12-.02-.15-.06l.55-.33c.09.09.02.16-.05.23.11-.03.19-.14.35-.16-.04.2-.03.4-.26.49l.52-.22c.03.09.27.23.2.31.29.12.71-.38,1.1-.23.02-.04.06-.07.14-.1.36.04.68.28,1.11.02l.24.35c.34-.08-.33-.44.23-.58.4-.11.15.3.29.4.2-.18.54-.54.9-.25-.12.07-.21.01-.33.04Zm4.14-.16c-.08.05-.24.21-.3.06.09-.28.16-.14.3-.06Zm.86-1.59c.06-.08.15-.04.26.05-.08.02-.16.01-.26-.05Zm-17.54,1.68s0,0,0-.01c.18.09.12.06,0,.01Zm-.37-.1s-.03.07-.02.1c.03-.06.11-.07.2-.05-.03-.06-.07-.11-.19-.05Zm1.34-2.04l.07.06c-.16.07-.12,0-.07-.06Z"/>
            <path class="cls-3" d="m66.78,156.67s.03.09.03.13c.03-.04.03-.09-.03-.13Z"/>
            <path class="cls-3" d="m58.49,158.88s-.01,0-.01,0c0,.01-.01.03-.01.04l.03-.04Z"/>
            <path class="cls-3" d="m53.92,156.53c.08.03.12.08.15.12,0-.06-.03-.11-.15-.12Z"/>
            <path class="cls-3" d="m46.19,158.98l.24-.06c-.12.01-.16-.04-.21-.08,0,.06.05.14-.02.14Z"/>
            <path class="cls-3" d="m44.12,157.49s-.07,0-.11.03v.11c.16,0,.26-.1.11-.15Z"/>
            <path class="cls-3" d="m45.97,158.18c-.02-.2-.17-.13-.34-.1.01,0,.02,0,.03,0-.05.28.13.19.31.1Z"/>
            <path class="cls-3" d="m45.59,158.09c-.05,0-.1.01-.15,0-.02.11.06.02.15,0Z"/>
            <path class="cls-3" d="m47.69,158.71c-.08-.05-.05.26-.09.18-.09.26.53-.31.09-.18Z"/>
            <polygon class="cls-3" points="45.83 157.51 45.89 157.76 45.98 157.56 45.83 157.51"/>
            <path class="cls-3" d="m47.15,157.7l-.27-.07s-.03.07-.07.09c.16,0,.34.06.34-.02Z"/>
            <path class="cls-3" d="m46.81,157.71c-.09,0-.17,0-.21.04.05,0,.15-.01.21-.04Z"/>
            <polygon class="cls-3" points="46.2 157.44 46.27 157.49 46.46 157.51 46.2 157.44"/>
            <path class="cls-3" d="m50.01,157.74l.29-.07c.03-.09-.05-.14-.16-.1-.07.06-.18.09-.13.18Z"/>
            <path class="cls-3" d="m49.13,157.06c.08.05.08.11.13.19v-.31s-.13.12-.13.12Z"/>
            <path class="cls-3" d="m49.98,156.99c.03-.09.42-.25.05-.23-.03.09-.32.16-.05.23Z"/>
            <polygon class="cls-3" points="54.37 157.38 54.29 157.38 54.3 157.89 54.37 157.38"/>
            <path class="cls-3" d="m58.23,156.16c-.34-.12-.08.31-.39.16-.08.12.25.12.17.23.21-.13.32-.06.22-.39Z"/>
            <path class="cls-3" d="m58.01,156.55s-.07.04-.11.08c.06-.03.09-.06.11-.08Z"/>
            <polygon class="cls-3" points="35.96 156.27 35.74 156.17 35.88 156.34 35.96 156.27"/>
            <path class="cls-3" d="m35.53,156.65l-.05-.32-.13.29c.05-.01.15-.04.19.03Z"/>
            <path class="cls-3" d="m65.82,159.25l.02-.08c-.03-.08-.09-.09-.19-.1l.17.18Z"/>
            <polygon class="cls-3" points="62.82 159 62.87 159.01 62.77 158.72 62.82 159"/>
            <path class="cls-3" d="m60.29,159.38c.1.01.22-.05.33-.04-.22.05-.36-.33-.33.04Z"/>
          </g>
          <g>
            <path class="cls-3" d="m95.87,173.12c0-.88-.2-.57-.24-.7.06,1.49.29.66.24.7Z"/>
            <path class="cls-3" d="m94.56,186.1l.11-.21c-.41.46-.91.88-1.46,1.24.5-.3.96-.64,1.35-1.03Z"/>
            <path class="cls-3" d="m82.24,187.4c1.28.39,4.85.44,7.14.53l.38.07c.34-.1.67-.23.99-.36-2.66.34-6.43-.07-8.5-.25Z"/>
            <path class="cls-3" d="m75.1,186.6c.44.14-1.54.12,1.66.04-.16-.02-.21-.02-.3-.04-.29,0-.68,0-1.36,0Z"/>
            <path class="cls-3" d="m76.46,186.61c1.4-.01-.92-.12,0,0h0Z"/>
            <path class="cls-3" d="m69.98,186.69l1.85-.12c-.39-.08-2.03-.1-1.42-.16-1.89.07-1.51.15-.43.28Z"/>
            <path class="cls-3" d="m68.23,186.95l.96-.05c-.17-.03-.42-.05-.96.05Z"/>
            <path class="cls-3" d="m71.22,186.79l-2.03.11c.27.06.3.17.93-.04-.17.11.24,0,1.1-.07Z"/>
            <path class="cls-3" d="m72.37,186.84c1.04.08,2.37.13.52.25,3.53-.05,3.01-.3-.52-.25Z"/>
            <path class="cls-3" d="m81.52,187.75c.47.04.94.1,1.4.17l1.21-.02c-.59-.01-2.69-.29-2.61-.15Z"/>
            <path class="cls-3" d="m58.48,186.51c-.12.08.62.2.76.3l1.36-.09c-.7-.05-2.03-.1-2.12-.21Z"/>
            <path class="cls-3" d="m59.23,186.81l-2.04.13c1.82.02,2.16-.05,2.04-.13Z"/>
            <polygon class="cls-3" points="67.9 187.35 71.25 187.08 67.26 187.35 67.9 187.35"/>
            <polygon class="cls-3" points="50.68 186.5 51.84 186.32 49.78 186.59 50.68 186.5"/>
            <path class="cls-3" d="m45.5,186.54c.86-.15-1.18-.23-.27-.33-1.41.04-2.61.18-3.69.31,1.15-.08,2.38-.08,3.97.02Z"/>
            <path class="cls-3" d="m39.71,186.72c.57-.05,1.17-.12,1.81-.2-.61.04-1.21.1-1.81.2Z"/>
            <path class="cls-3" d="m53.72,186.9c-.16-.05-.46-.17-1.61-.22l.8.21c.25,0,.52,0,.8,0Z"/>
            <path class="cls-3" d="m52.94,186.9h-.03c-.87-.01-1.48-.02-1.73-.02.22,0,.75,0,1.76.02Z"/>
            <path class="cls-3" d="m53.92,186.9c-.07,0-.13,0-.2,0,.08.02.12.03.2,0Z"/>
            <path class="cls-3" d="m62.55,187.16c-1.2.12-3.7.25-1.28.43.86-.15-.52-.25,1.28-.43Z"/>
            <path class="cls-3" d="m54.92,187.17l2.17.05c-.04-.06-.43-.14.16-.2l-2.33.15Z"/>
            <polygon class="cls-3" points="53.85 187.24 54.92 187.17 54.11 187.15 53.85 187.24"/>
            <path class="cls-3" d="m43.44,186.85c-.94.11-1.96.13-3.12.17,1.24.02,2.53.02,3.75,0,.17-.07.71-.19-.63-.17Z"/>
            <path class="cls-3" d="m48.06,186.88c-.07,0-.15,0-.21.01.13.02.23.02.21-.01Z"/>
            <path class="cls-3" d="m28.93,187.24c.06.01.12.02.18.04.01-.01.02-.02.04-.04h-.23Z"/>
            <path class="cls-3" d="m44.27,187.07c.94.03,1.49-.03,2.03-.1-.7.02-1.44.04-2.23.06-.08.03-.09.05.21.04Z"/>
            <path class="cls-3" d="m36.54,186.88c.49.03,1.04.05,1.62.08-.48-.06-1.45-.14-1.62-.08Z"/>
            <path class="cls-3" d="m47.54,186.84s.09,0,.14-.01c-.31-.04-.27-.02-.14.01Z"/>
            <path class="cls-3" d="m47.54,186.84c-.48.03-.86.09-1.24.14.57-.02,1.1-.04,1.56-.08-.12-.01-.23-.04-.32-.06Z"/>
            <path class="cls-3" d="m25.5,188.66c.16-.2,2.61-.41,4.73-.23,2.08-.19.7-.81-1.12-1.14-.06.09-.06.17-2.2.31.75.1,4.75.18,2.95.39-2.83.15-2.32-.03-3.7-.12,1.17.24-3.6.39-2.99.74l2.49-.14c.05.06-.85.15-.16.2Z"/>
            <path class="cls-3" d="m33.19,187.22l.88-.04c-1.01-.01-1.73-.08-3.05-.21-1.46.12-1.77.2-1.86.27l4.34-.05-.3.04Z"/>
            <path class="cls-3" d="m38.03,187.1c-.68.23-2.8.37-1.5.57,2.59-.07,1.81-.22,3.35-.34-4.18.13,1.2-.14-1.82-.21.82-.05,1.56-.08,2.26-.1-.75-.02-1.48-.04-2.16-.06.04,0,.06,0,.1.01h.02s0,0,0,0c.18.02.24.04.04.03-.01,0-.06,0-.09,0-.03.03-.1.06-.19.09-1.21-.02-.19-.05.19-.09.01-.01.05-.02.05-.03,0,0,0,0-.02,0l-4.18.21c.89.01,1.99-.02,3.96-.08Z"/>
            <path class="cls-3" d="m59.04,188.05c-.13-.02-.12-.03-.13-.05-.27.03-.37.04.13.05Z"/>
            <path class="cls-3" d="m57.32,187.92c.3-.03.56-.12,1.55-.09.86.06,0,.1.04.17.6-.06,2.09-.15.22-.26l-.3.03c-1.68-.07-3.85-.34-3.55-.37.49.19.92.33,2.05.52Z"/>
            <path class="cls-3" d="m47.56,187.5l-3.49.13,1.78.17-.09-.11c1.98.03,1.55-.1,1.8-.19Z"/>
            <polygon class="cls-3" points="28.53 187.14 28.99 186.91 26.98 187.26 28.53 187.14"/>
            <polygon class="cls-3" points="24.02 187.22 24.18 187.02 22.99 187.14 24.02 187.22"/>
            <path class="cls-3" d="m38.48,6.82l-.04-1.03c.01.49.03.8.04,1.03Z"/>
            <path class="cls-3" d="m38.38,14.25l.1.18c-.05-.34-.09-.49-.1-.18Z"/>
            <path class="cls-3" d="m27.36,118.32c.4-1.45.92-3.06.67-2.91l-.28.42c-.11,1.04-.25,1.82-.39,2.49Z"/>
            <path class="cls-3" d="m23.08,67.88c.03.14.05.29.08.43.19.32.36.62.54.87-.21-.38-.4-.84-.62-1.31Z"/>
            <path class="cls-3" d="m21.89,67.15c-.15-.65-.31-1.31-.42-1.97.06.45.19,1.08.42,1.97Z"/>
            <path class="cls-3" d="m64.04,19.95c.39.16.76.37,1.14.56-.79-.6-1.03-.73-1.1-.71-.06,0,.06.15-.04.15Z"/>
            <path class="cls-3" d="m11.03,173.61c.94.03,1.79.06,2.57.08.39,0,.81.03,1.12.02.2-.05.38-.09.56-.13-.23-.28-.42-.52-.61-.75.19.24.37.48.54.71-.48.18-1.85.02-2.58.01-.8-.03-1.34-.02-1.6.06Z"/>
            <path class="cls-3" d="m40.75,9.79c-.03-.63-.07-.89-.12-.88.03.64.07,1.01.12.88Z"/>
            <path class="cls-3" d="m12.22,167.85c.02.21.04.42.06.64.04.22.1.43.15.64.06.22.07.38.27.81.13.67,1.01,1.69,1.98,2.89-.43-.57-.87-1.15-1.32-1.74-.29-.33-.32-.54-.41-.77l-.28-.72c-.07-.29-.15-.58-.22-.88-.06-.29-.14-.58-.22-.87Z"/>
            <path class="cls-3" d="m74.92,137.66c0,.11.01.23.02.33.03.03.02-.12-.02-.33Z"/>
            <path class="cls-3" d="m84.14,172.61c.12-.3.27-.7.44-1.14.09-.22.18-.46.27-.69l.19-.64c-.08.22-.13.46-.3.88-.16.41-.35.93-.61,1.59Z"/>
            <path class="cls-3" d="m6.12,186.36c.89.13.14,0,0,0h0Z"/>
            <path class="cls-3" d="m10.51,187.69c-.2.01-.36.04-.39.08.08-.05.22-.07.39-.08Z"/>
            <path class="cls-3" d="m11.25,158.56s.02-.05.03-.08c-.15.25-.12.21-.03.08Z"/>
            <path class="cls-3" d="m7.43,186.68c-.33-.08-.71-.17-1.12-.25.18.04.52.12,1.12.25Z"/>
            <path class="cls-3" d="m7.27,186.54c.3.07.56.08.79.11.12-.03.01-.04-.79-.11Z"/>
            <path class="cls-3" d="m4.95,186.08c.48.11.89.28,1.36.35-.17-.04-.24-.07-.19-.07-.27-.03-.59-.14-1.17-.28Z"/>
            <path class="cls-3" d="m70.72,82.54c0,.06-.01.14-.02.21.05.34.06.4.06.36,0-.06-.02-.28-.04-.56Z"/>
            <path class="cls-3" d="m13.75,103.99s.02.07.04.11c0-.05-.02-.11-.03-.15v.04Z"/>
            <path class="cls-3" d="m13.22,100.29c.25,1.58.32,2.45.54,3.66.09-.46.24-.89.38-1.31-.36-.74-.67-1.53-.92-2.35Z"/>
            <path class="cls-3" d="m54.55,1.33c-.33-.27-.87-.53-1.32-.73l-.71-.24c-.24-.07-.47-.11-.71-.16.87,0,1.75.23,2.47.55.64.32,1.09.58,1.4.79.58.44.62.32-.43-.57-.09.04-.31-.02-.61-.15-.3-.12-.85-.36-1.4-.5-1.15-.32-2.55-.38-3.84-.26-2.58.25-4.86.96-4.95,1.3l-1.59.27c.44-.11.5-.17.95-.27-1.27.19-1.84.41-2.34.64-.12.06-.25.12-.37.18-.07.03-.11.06-.21.1-.11.04-.23.08-.35.12-.49.16-1.04.32-1.78.48,0,.67.02,1.63-.01,2.54-.07,1.4-.18,2.37-.25,1.41l.13,3.12c-.02.91-.14.68-.12-.22v4.75s-.02-.04-.02-.04c.1.68.25,2.21.31,2.96-.11,1.21-.07-.6-.15-.3.02.41.04.97.07,1.12l.04.39c-.03.11-.18.15-.28.23-.35.08-.22-.08,0-.26.02-.03.07-.04.07-.08,0-.05-.01-.09-.02-.14,0-.09-.02-.19-.03-.29v-.07s0-.16,0-.16v-.35c0-.23,0-.46,0-.69-.09.31-.15.57-.2.81-.02.12-.04.23-.05.34-.01.09-.02.07-.03.11-.01.05-.01.11,0,.17,0,.03.02.07.01.1l-.07.07s-.11.1-.19.17c-.19.12-.53.32-.86.5-.35.19-.71.45-1.17.72-.44.28-.99.55-1.55.95.65-.57,1.4-1.01,2.11-1.52-.79.31-1.66.7-2.53,1.37-.44.32-.93.65-1.43,1.04-.49.41-1.02.84-1.61,1.29.32-.18,1.47-1.12,2.39-1.6.9-.5,1.42-.69.3.27-.35.23-.74.52-1.16.92-.42.4-.92.85-1.42,1.47-.09-.08-.39.17-.84.62-.22.23-.48.5-.77.81-.26.33-.55.69-.85,1.07l-.16-.3c-.64.85-.89,1.27-1.04,1.63-.16.35-.25.61-.54,1.16-1.31,1.92-1.72,2.25-2.2,2.62-1.77,3.32,1.53-2.11-.44,1.86-1.44,2.74-2.16,4.84-2.93,8.44-.58,2.08-.11-.42-.37.32l-.17,1.93c-.11.46-.15.29-.17.21-.19,1.6.28.19-.03,2.69.09.36-.13,1.62-.41,3.2-.2,1.58-.38,3.5-.11,5.05-.05.77-.21-.36-.32-.12.23,2.14.4,3.05.54,3.86.17.81.32,1.52.81,3.21.13.99.27,1.98.47,2.96-.3-2.19.6.49,1.61,2.7-.15-.76-.22-1.42-.31-1.85.42,1.21.87,2.41,1.41,3.56.12.45-.12.13-.48-.41.12.23.24.45.33.63.4,1.32-.04.74-.57-.12-.12-.46-.22-.92-.3-1.38-.51-.83-.97-1.64-1.09-1.39.11.23.28.69.48,1.19-.13-.22-.23-.36-.22-.24.01.14.21.5.5,1.08-.01.32,0,.64-.01.96l.21.15c.56,1.62,1.22,3.22,2,4.77.48.71,1,1.37,1.52,2.03.27.32.54.65.82.98.15.16.29.32.44.49l.22.24.17.17c.16.11.16.27.18.45.02.15.04.42.07.65.04.47.08.97.12,1.48.03.51.07,1.04.1,1.6.03.54.05,1.11.08,1.7-.36.01-.76.03-1.18.04.64-.13.58-.24.43-.35-.16-.11-.41-.23-.46-.39.18.05.39.09.62.1.02-.24.02-.56,0-.88-.02-.43-.05-.9-.08-1.39-.03-.56-.05-1.15-.08-1.75-.06-.71.08-.98-.2-1.25.13.17.2.3.14.41-.02.1-.04.15-.07.16-.05.03-.1-.06-.12-.14l.02.14.02.3.04.66.07,1.32.07,1.25.07.79c-.1-.1-.15-.05-.18.07-.14-.02-.3-.04-.47-.05-.19-.02-.41-.04-.63-.06.52.25-.44.33-1.79.37-.68.01-1.45.03-2.2.04-.95.01-1.94.03-2.61.07,0,.06,0,.11,0,.15-.05,0-.1-.06-.15-.29.13-.05.46-.1,1.12-.13.34,0,.74-.02,1.23-.03.37,0,.8,0,1.29,0-.31-.04-.6-.07-.86-.08-.29-.01-.75-.01-1.08,0-.71.02-1.3.07-1.81.13.08.87.18,1.63.24,2.4.03.43.05.68.05,1.03,0,.31-.02.78-.07,1,0-.27,0-.48,0-.65,0-.2-.02-.35-.06-.48.03.31.05.91.06,1.17,0,.34,0,.7,0,1.01-.39-.01-.76-.04-.8-.07-.01-.02-.16-.03-.18-.05-.03-.02,0-.04.12-.06h.19c-.05,0-.1,0-.16-.01-.22,0-.44,0-.67,0-.66,0-1.36,0-2.09,0,0,1.38,0,2.88.01,4.37,0,.46.02.91.03,1.35,0,.17.01.35.02.52-.03,0,.02.01-.1.02-.37.02-.72.03-1.06.04-.17.01-.33.02-.49.03l-.23.02h-.11s-.02.08-.04.12c-.18.61-.3,1.15-.39,1.61-.08.5-.09.72-.09.99,0,.24.02.4.05.47-.06.04-.42-.64-.46-.94,0,1.37.15,2.71.47,3.98.32,1.27.83,2.49,1.57,3.45-.29-.21-.4.34-.56.59-.09.12-.24.17-.48-.04-.23-.21-.58-.69-.88-1.63.11.55.3,1.17.67,1.91.2.37.45.76.81,1.15.17.22.37.35.64.6.26.24.66.39,1.02.48-.22-.08-.5-.22-.68-.41-.2-.17-.31-.41-.36-.53-.1-.27-.03-.38.38-.02.25.31.6.46.84.57.24.11.44.17.61.23.34.11.59.18.86.24.53.12,1.14.25,2.74.54-1.04-.16.17-.63,1.81-.51-.26.07.1.57-.5.6l2.07-.17c.78-.06,1.14-.14,1.77-.21-.44.04-.5.15-.44.28.06.13.2.27.31.35-.01-.02.01-.03.07-.03.01.11-.07.56-.14,1-.14.93-.29,1.92-.34,2.39l.38-1.69c-.74,4.55.13,4.62-.55,9.14-.04-.56-.51-1.46-.91.84.13,1.1.7,4.87.34,8.9l-.27.74-.26,3.1c-.15-1.97-.28-7.47-.21-10.46-.37,1.69-.26.45-.61,3.01-.28.88-.03-1.43.07-2.18l-.96,5.94c.37-.22-.32,4.6-.01,4.41l.59-6.52c.37-.21.41,3.87-.26,8.08-.29,1.05-.48-.89-.6-.82.04.56-.36,4.03-.49,4.41l.08-1.81c-.46,2.33-.11,3.9-.83,6.67-.16.97-.85,2.85-.67,3.04.61-1.53,1.83-1.68,1.96-.58-.02.09-.1.45-.21.96-.13.63-.58,1.39-1.26,1.84-.34.22-.72.38-1.1.46-.35.08-.63.13-.9.24-.53.21-.92.51-1.11.71-.29.27-.37.3-.38.13-.01-.16.11-.49.31-.81.39-.63,1.1-1.13.29-.83,0,.07-.24.25-.45.53-.23.26-.43.6-.53.8-.35.51-.32.39-.41.41-.03.02-.34.24-.47,1.55.07.12.08.5.12.92.02.22.04.44.06.66.02.16.04.32.06.45.03.2.06.33.06.28,0-.08,0-.4-.02-1.12.07.59.13.84.18,1.09.05.24.08.45.16.62.04.1.09.2.16.29-.1.02-.27,0-.41,0-.31,0-.66.01-1.12.07.15.04.15.11,0,.21-.15.1-.55.23-.99.4-.88.33-2.2.78-2.89,1.51-.02.02-.03.04-.05.06.02-.15-.38.13-.51.35-.45,1.05-.55,2.06-.66,2.98-.08.92-.13,1.78-.13,2.63,0,1.7.07,3.37.52,5.45,0,.23.1.75.16,1.09.08.33.07.49-.12.18.11.22.28.44.53.71.11.12.24.26.39.41-.1.04-.36.03-.59.04-1.15-.15-.55-.16-.03-.18h.2s.1-.01.1-.01c.04,0,.07,0,.02-.04-.1-.11-.19-.2-.25-.26-.14-.13-.18-.14-.13,0,.04.03.12.09.18.15-.03.02-.1.04-.19.06-.18.04-.47.07-.83.1-.4.03-.85.06-1.28.08-.56.03-1.1.06-1.57.09.24.14,1.25.16,2.25.14.48-.01.99-.04,1.44-.07.22-.02.43-.03.64-.05.18.03-.03-.12-.08-.19-.08-.09-.16-.17-.23-.25-.11-.11-.18-.21-.24-.31.12.04.24.2.56.48.12.11.27.25.44.4l.13.13s.15.11.08.11c-.07.02-.14.04-.22.06-.34.08-.84.15-1.51.22-1.5.14-2.96.26-4.74.33-3.49.1-1.51-.27-2.12-.21-.81,0-1.58,0-1.99,0-.23.01-.44.02-.64.03-.09,0-.19.01-.27.02-.02.07,0,.19,0,.27.05.76.14,1.1.18,1.83.12,1.27.15,2.41-.09,5.08-.27,2.1-.54.1-.74.56-.05-2.84.37-4.34.41-6.27l-.23,2.37c-.04-.9-.04-2.84.04-3.79-.07.38-.1,1.32-.18,2.52-.06,1.2-.17,2.68-.22,4.27-.03,1.58-.06,3.32.57,4.84.12.39.41.7.6,1.05.28.28.53.59.84.81.32.2.61.44.93.59.32.15.63.29.92.43.45.1,1.06.2,1.47.26.41.03.62,0,.27-.1-.52-.09-1.03-.24-1.55-.36-.64-.37.07-.14.74-.05.66.12,1.24.21.31-.08,2.06.34,4.43.2,7.44.47l.55.33c-.06-.09-1.96-.26-2.81-.23,1.25-.04,4.6.62,5.99.25l-2.1-.27c2.15-.08,4.8-.36,7.47-.26-1.21-.3-.62.03-2.51-.33,1.63.49-6.8-.16-4.18.36-1.92-.47-3.35-.29-5.85-.8.08.1.85.27-1.29.02-.1.02-.33.04-.48.04-.06,0-.09-.01-.14-.02.04,0,.07.02.12.03-.1,0-.1,0,.04,0,.51.09.92.18,1.08.25-.27.03-.69.04-1.19.02-.49-.04-1.04-.11-1.61-.18-.53-.13-1.09-.22-1.54-.38-.43-.18-.85-.26-1.06-.41-.94-.66.46.16,0-.27-.48-.19-.86-.49-1.21-.83.03-.06-.04-.26-.12-.47-.09-.21-.11-.51-.15-.69-.05-.39-.03-.37.53.62-.35-.56-.54-1.3-.61-2.14-.04-1.47.17-3.73.14-5.15.12-1.33-.11-3.41.02-2.23v-.54s-.01-.19-.01-.19l-.03-.4c-.03-.1.07-.07.12-.08l.19-.02.2-.02h.1s.19-.02.19-.02l.04.06c1.68.01,3.39-.04,5.15-.09.44-.01.88-.02,1.33-.03.64,0,1.29-.02,1.94-.02.7,0,1.41,0,2.12,0h1.08c.23-.04.32-.13.5-.2l-.26-.31-.31-.39c-.2-.26-.42-.53-.6-.78l-.55-.76c-.08-.12-.21-.27-.25-.37l-.11-.31c-.38-.96-.35-1.31-.43-1.9-.28-1.35-.54-2.83-.47-5.2l.2-.45c0-.62.06-1.45.19-2.24.11-.79.45-1.58.51-1.57.03-.03.23-.17.36-.24.15-.09.28-.16.36-.23.41-.02,1.08-.13,1.98-.21.23-.03,1.51-.15,2.53-.17.54-.02,1.09-.05,1.66-.07l.42-.02c.14,0,.3-.01.34-.03.16-.03.37-.05.75-.09-.31-.44-.62-.87-.93-1.31l-.41-.58c-.14-.2-.28-.39-.34-.54-.15-.3-.39-.65-.38-.88l-.07-.38c-.03-.14-.02-.15-.03-.23-.06-.5-.07-.97,0-1.35.14-.77.46-1.07.91-1.26l-.04-.26c.07-.05.19-.06.27-.1l.14-.05.28-.08c.39-.13.77-.32,1.11-.57.69-.49,1.25-1.26,1.47-2.16.11-.52.11-.71.15-1.04.03-.31.07-.62.11-.94.07-.64.14-1.3.22-2.01l-.25.14c.17-2.45,1.06-6.21,1.58-10.05.05.27-.11,1.24-.27,1.92,1.16-4.51,1.03-9.72,1.99-13.82.07-1.05.2-1.79.36-2.51-.01.1-.02.18-.03.26.02-.11.04-.26.06-.42.1-.45.21-.92.33-1.42-.12.43-.22.83-.29,1.19.11-.8.26-2.01.37-3.21l.31-.47c.01-.1.02-.17.03-.28.26-1.15.02-.95-.25-.36.05-.6.08-1.16.08-1.59.26-.45.34-1.23.43-2.05l.07-.62c.03-.23.07-.45.1-.67.1-.6.23-1.16.41-1.72,0-.22.03-.69.1-1.33-3.36,0-6.23-.12-6.89.17-.04-.06-.38-.11.26-.07-1.32-.14-2.63-.3-3.79-.37-.16-.13-.32-.26-.46-.4-.49-.05-.69,0-1-.24-.35-.22-.67-.53-.95-.88-.32-.75-.39-1.34-.38-1.52.04-.19.16.04.56.69-.44-.81-.61-1.49-.73-2.01-.1-.53-.15-.91-.18-1.28-.04-.74-.12-1.41-.03-3.16l.17.2c.04-.25.08-.54.13-.85.02-.13.04-.26.07-.4l.04-.21s0-.08.03-.09h.09c.25-.04.51-.06.74-.06.2,0,.38,0,.55,0,.23,0,.44.02.62.03.13,0,.27.01.42.02.02-.09.02-.2.03-.31.01-.23.03-.49.04-.76.02-.54.04-1.16.06-1.85.01-.86.03-1.91.05-3.06,1.07,0,2.22,0,3.41.01,0-1.7.02-3.48.03-5.24.89.02,1.76.04,2.61.05,1.22.04,2.4.07,3.5.11-1.16-.31.24-.22,1.99-.13.04-.72.08-1.53.08-2.19,0-.74-.03-.96-.14-1.05.14-.43.22-1.47.34-.26-.03-.95-.04-1.78-.03-2.53,0-.26,0-.51,0-.76v-.42c-.06-.12-.15-.23-.23-.34-.24-.34-.47-.67-.69-.98-.69-1.02-1.28-1.94-2.07-2.95-.09-.43.56.58.45.22-.18-.23-.66-.96-.78-1.34-.11-.37.36.42.69.89-.92-1.62-1.43-2.52-1.82-3-.39-.48-.64-.56-.88-.6-.54-1.87-.89-2.75-1.54-4.02-.07-.69-.26-1.79.47.46-.19-.64-.73-2.59-1.08-4.44-.36-1.84-.59-3.56-.77-3.61.04-.43-.17-1.85-.21-2.2-.15-2.99-.06-3.25.02-6.19-.05.27-.06.54-.09.81-.19-.59-.13-1.21-.05-1.97.08-.76.23-1.67.42-2.84l.03.07c.26-1.34.48-2.13.61-2.68.13-.54.17-.83.22-1.12.04-.29.12-.56.28-1.09.19-.52.37-1.32.92-2.54l-.33.2c-.14-.31.26-1.45.99-2.79.69-1.36,1.64-2.93,2.34-4.32-.23.3-.47.59-.67.91.32-.8,1.1-1.73,1.9-2.61.85-.85,1.69-1.68,2.27-2.28.27-.25-.31.49-.6.9,1.49-1.6,1.52-1.75,1.42-1.84-.09-.08-.33-.1.78-1.32.55-.31-.24.83,1.33-.67.22-.16.6-.52,1.08-1.02.49-.48,1.14-1.02,1.82-1.63.73-.53,1.49-1.15,2.3-1.59.23-.12.45-.24.67-.36.32-.17.64-.33.95-.49.15-.08.32-.15.46-.24,0-.17.02-.33.02-.5.02-.33.04-.65.06-.96-.14,1.12-.28,1.92-.36-.34-.02-2.4.57-6.48.18-8.65.04-.3.07-.42.11-.43-.02-.62-.05-1.5-.07-2.44-.01-.44-.03-.89-.04-1.32-.01-.28-.05-.57-.05-.83.48-.12.78-.25,1.22-.43.95.23,3.68-.71,6.17-1.27,1.25-.28,2.46-.43,3.31-.35.86.07,1.34.31,1.27.49.2.04.36.13.53.2.17.06.35.17.53.29l.54.34.49.4c.65.54,1.22,1.18,1.67,1.91l-.14-.07c.86,1.39,1.21,2.5,1.54,3.31.29.84.5,1.42.69,2.01.07.81-.09.23-.13.18.29,2.54.25,3.97.32,5.29.03.79.06,1.55.1,2.45.02.12-.02.27.05.36.13.06.26.11.39.17.26.11.53.23.82.36.23.1.47.19.72.3.22.1.47.17.71.3l.26.45c.26.12.78.45,1.46.91.32.26.69.55,1.09.88.4.31.82.67,1.24,1.08,1.74,1.55,3.57,3.69,5.12,5.68-.05-.02-.15-.08-.41-.39,1.81,2.19,3.32,5.28,4.32,8.04.46,1.4.92,2.67,1.24,3.75.17.53.36,1,.53,1.4.15.4.31.73.48.96.17.61.37,1.21.51,1.82l.41,1.85c-.7-4.87.5.66.33-1.36.43,1.92.3,5.03.06,2.66v-.38c-.27-.41-.15,1.12-.04,2.73.03,1.62.07,3.32-.11,3.26-.04,4.81-.9,9.54-2.49,13.91-.79,2.18-1.77,4.28-2.9,6.25-.56.99-1.18,1.94-1.82,2.86-.16.23-.31.47-.49.68l-.57.75-.41.53c-.08.2-.02.44-.04.65v1s.18-.53.18-.53c.06-.19.12-.48.18-.69l-.02,3.36c-.04.49-.11.98-.17.82-.03-.07-.06-.29-.07-.71-.02-.29-.03-.69-.02-1.26-.04.21-.05.45-.06.72,0,.27,0,.51.02,1.03.03.9.1,1.75.16,2.31.66-.06,1.07-.11,1.11-.14.76.02,1.31.04,1.67.06.27.02.41.04.4.07,0,.02.01.05-.12.07-.06,0-.14.02-.22.04-.13.01-.27.02-.42.03-1.25.09-3.29.16-2.19.17l2.83-.03c-.14-.01-.26-.03-.51-.04.78-.05.71-.1.96-.15.19-.05.41-.08.73-.11.03.22.04.57.03,1.09-.04.87-.09,1.09-.14,1.18-.02.05-.05.06-.06.1-.02.04-.03.1-.03.39-.01,0-.02.09-.03.34,0,.25,0,.65.01,1.29v1.09s3.84.03,3.84.03c-.09-.05-.2-.1-.33-.14-.04-.02-.17-.05-.32-.07l-.21-.04-.29-.04c.45-.02.91-.05,1.29-.07.29,0,.53-.01.65-.03.01.07.03.06.07-.07-.01-.03-.11-.08-.33-.14.11.03.24.06.38.09-.04.27-.06.55-.09.85-.01.15-.02.3-.03.46,0,.24-.02.49-.03.75-.03,1.06-.05,2.27-.06,3.51v.79s.79,0,.79,0c.69,0,1.4,0,2.09,0,0,.21,0,.42,0,.63l-.08.23c-.03.07-.06.13-.05.32,0,.32.02.63.02.93.03.59.05,1.15.08,1.63.07.96.12,1.67.15,1.98.06,2.13,1.9,6.31-2.4,5.1.76.06,1.21.38-1.42.35.48-.34-.73-.41-2.32-.46-.8-.03-1.69-.06-2.52-.09-.54-.03-1.07-.06-1.55-.09-.55-.04-1.07-.08-1.54-.14.88.09.39.13-.61.16.11.64.25,1.51.41,2.4.13.73.26,1.49.36,2.1.2,1.03.35,1.56.35.46.27,2.18-.23.17-.14,1.84,1.03,5.14,1.51,11.44,2.48,17.83.1.09.09-1,.41.35l.02,3.44c.21,1.26.66,1.1.66,3.45.03-.34.08-.84.22,0,.18,1.8.36,3.61.55,5.43.09.91.18,1.82.28,2.73l.08.7c.04.3.11.6.23.88.23.57.62,1.08,1.12,1.43.49.36,1.08.59,1.69.66.3.03.61.02.91-.03.15-.03.3-.05.44-.1l.36-.12c.61-.23,1.11-.08,1.47.48.4.58.63,1.45.78,2.3.08.41.13.91.17,1.28v.12c-.02.07,0,.13-.05.21-.09.17-.22.35-.37.54-.29.39-.69.85-1.11,1.31.21.1.29.2.31.28,0,.02,0,.04,0,.06,0,0,0,.02,0,.03h.09s.38.03.38.03l1.53.12c.25.03.5.06.75.1.23.04.53.11.64.14.28.08.56.19.7.3.14.1.35.39.54.6.14.27.34.49.45.79.13.28.26.56.34.87.11.3.18.61.24.93.5,2.54.18,5.3-.59,7.79.28-.78.34-.91.32-.68-.01.11-.05.32-.1.57-.03.13-.06.26-.09.41-.06.2-.13.42-.19.64.38-1.12.21.06.4-.15l-.26.72-.34.8c-.23.55-.49,1.09-.75,1.65,1.12.16,2.75.15,4.04.23.98-.33,5.78-.02,6.34-.34l-1.71.06c2.27-.37-3.18-.83-2.85-1.31-.6.1-1.41.12-2.1.09-.29-.01-.58-.04-.86-.07-.13-.02-.27-.03-.4-.05l-.19-.02h-.09s-.05-.02-.05-.02l.03-.06c.35-.65.55-1.06.78-1.94.28-1.03.39-2.13.36-3.23.18-.94.08.82.24.33-.05-.56-.05-1.17-.06-1.94-.01-.78,0-1.72-.15-2.96l.09.27c-.3-2.02-.92-3.74-2.19-5.06-.4-.38-.89-.58-1.28-.71l-.3-.09-.17-.05-.29-.07c-.19-.04-.38-.07-.57-.09l-.14-.02s-.06,0-.06-.01l.06-.05c.07-.07.14-.16.2-.24.08-.12.14-.25.17-.39.02-.08.03-.11.04-.24.01-.14,0-.4-.01-.53-.05-.58-.1-1.19-.24-1.85-.13-.66-.3-1.36-.7-2.14-.22-.37-.49-.81-.97-1.17-.45-.35-1.02-.57-1.63-.59.29.08.55.21.77.37-1.1-.36-1.93.04-2.19.07-.25.04-.42.04-.65-.01-.29.05-.28.1-.08.15.1.02.25.03.42.02.08-.02.18-.02.27-.05.12-.04.25-.08.38-.12.34-.11.76-.18,1.12-.15.37.01.68.12.88.23.41.24.45.33-.08.16-.29-.2-.81-.36-1.44-.28-.15.02-.31.04-.46.09l-.23.07-.14.03c-.18.05-.38.07-.58.05-.83-.04-1.69-.69-1.7-1.78-.26-2.75-.58-5.39-.39-6.14-.3-2.46-.18.75-.49-1.7l.06-.67-.27-.6c-.17-1.61-.1-2.45.01-2.52.04.39.18,1.1.25,1.52-.1-2.11-.85-5.87-.89-6.59l.23,2.37c-1.05-6.66-2.04-14.84-3.3-21.23l-.04.51c-.23-1.19-.39-2.13-.44-2.47-.07-.45-.1-.78-.12-1.09.33.02.67.04,1.13.06.33,0,.71,0,1.15.01.51,0,1.1-.01,1.79-.02l-.2.03c1.09-.11,2.55-.17,4.04-.15-1.38.13,2.59.25.79.4,3.16.41,2.11-1.54,2.37-1.81.02-.51.06-.81.1-2.84l.16-.71c-.01-1.42-.06-1.59-.05-4.46.05,1.2.12.78.21.38.08-.4.18-.79.23.63.06-.62.11-1.21.14-1.77,0-.14.01-.28.02-.42,0-.18.01-.35.02-.52,0-.45.02-.89.02-1.32-.34-.18-.67-.36-.99-.52-.13,0-.25,0-.38,0h-.19s-.09,0-.09,0c-.02-.02-.09.07-.04-.15l.07-.47.03-.23s.01-.08.01-.11h-.03s-.27,0-.27,0c-.17,0-.35,0-.52.01-.48.02-.92.04-1.35.06l.88.88c-.07-1.64-.11-2.94.17-4.19-.13-.98-.21-.95-.26-.49,0,.12-.02.26-.03.42,0,.12-.02.26-.02.41,0,.29-.02.63-.03.97-.02,1.38,0,2.91-.05,2.17-.08.62-.18.07-.25-.85-.03-.46-.06-1.02-.08-1.57-.02-.56-.02-1.06,0-1.63,0-.59.05-1.15.13-1.85-.56-.07-1.21-.17-2.14-.26-.19-.02-.39-.04-.6-.07-.11-.02-.23-.04-.36-.06-.23-.04-.45-.07-.69-.09.03-.33.04-.63.04-1.02,0,.25.04.24.03.47.03-.2.03-.27.03-.54,0-.34-.02-.68-.03-1.03-.01-.48-.03-.97-.04-1.47-.01-.54-.01-1.1,0-1.69-.58,0-1.17-.03-1.82-.07-.23.04-.45.06-.67.08l-.58.05-.32.02c-.08,0-.16,0-.23,0-.3,0-.54,0-.83.15-.02,0-.04,0-.07,0v.06s1.4-.04,1.4-.04l2.78-.04c-.92.03-1.9.08-2.69.14-.19.02-.31.03-.42.05-.13.02-.26.03-.39.05-.29.03-.59.06-.9.08-.04-.45-.07-.96-.08-1.59,0-.74,0-1.54.06-2.42.08.31.18,1.48.24,2.28.06-.58.04-1.13.02-1.69,0-.28-.01-.56-.02-.85v-.31c.02-.09,0-.19.1-.26.02.06.05.2.1.4.02.06.03.31.04.52,0,.22.01.47.02.73,0,.52,0,1.11.02,1.72,0,.32,0,.65.03.94.2-.01.4-.02.58-.05.09-.01.17-.02.25-.04.08-.01.13-.03.32-.05-.08,0-.18-.02-.28-.03-.07,0-.14,0-.22,0-.15,0-.33.02-.52.04-.05-.49-.12-.96.14-.67-.14-.01-.2-.71-.23-1.23-.03-.55-.01-1.18,0-1.8,0-.15-.01-.32.13-.43l.23-.3c.11-.14.22-.29.33-.44.42-.61.84-1.26,1.17-2l.09.31c.24-.45.7-1.39,1.15-2.21-.19.54-.37,1.09-.59,1.61,1.13-2.34,2.62-4.3,3.39-6.7-.96,2.43-1.22,2.64-1.25,2.53-.05-.12.03-.58-.5.38,1.2-2.96,1.56-3.79,2.09-4.69.45-.92,1.11-1.9,1.78-5.45-.14.97-.97,3.53-.7,2.03.37-1.32.8-3.07,1.04-3.89.58-4.73-.33.69-.2-1.34.47-1.57.14-2.33.14-4.39h.24c.08-1.35.05-2.12-.01-2.58-.05-.46-.12-.62-.18-.76-.16-.28-.19-.5-.34-2.91.17.67.37,1.34.51,2.01-.07-.84-.2-1.68-.3-2.52l.32.49c-.2-1.37-.42-2.25-.56-3.14-.12-.89-.3-1.76-.56-3.1-.04.66-.45-.26-1.15-2.53-.16-.8-.04-.6,0-.6.04,0,0-.21-.61-1.8.4.66.9,1.39,1.08,2.89.12.12.36.68.48.82-.29-1.76-1.3-4.26-1.8-5.39.2.44.37.98.44,1.26-.31-.76-.73-1.48-1.1-2.22-.36-.74-.79-1.44-1.23-2.14-.28-.73.07-.22.42.29-.49-.88-.88-1.45-1.69-2.68.18.11.31.12.53.32.22.2.57.58,1.09,1.5-.38-.7-.83-1.35-1.28-2l-.67-.98-.73-.94c-.06-.15-.36-.68-.61-1.12-.25-.43-.46-.75-.23-.53-1.53-2.2-4.6-4.63-7.46-6.68-.18-.07-.51-.23-1.16-.6-.35-.22-.68-.46-1.05-.64l-.53-.29-.18-.1-.08-.05c-.08-.08-.24-.07-.18-.27l.02-.23v-.11s.01-.22.01-.22c.03-1.59-.02-3.29-.37-5.21.02-.75.03-1.51,0-2.28-.39-1.54-.33-.75-.32-.23-.05.53,0,.77-.78-1.71-.65-1.73-.83-2.05-.74-2.14.07-.09.3.09.04-.54-.56-.8-1.4-1.86-2.61-2.82-.62-.48-1.26-.92-2.05-1.33-.85-.46-1.76-.62-2.66-.77,1.18.01,2.26.35,3.27.95Zm-20.9,20.23c.27-.24.68-.61,1.07-.96.4-.33.84-.59,1.09-.68-.27.35-.57.56-.91.8-.34.25-.74.49-1.25.84Zm-8.94,51.45c-.31-.43-.63-1.19-.9-2.08.29.6.58,1.3.9,2.08ZM1.48,180.22s0-.05,0-.07c.13-1.52.08-.98,0,.07Zm.12,2.97c.09.27.12.24.13.11-.05-.09-.11-.28-.17-.54-.05-.27-.07-.63-.1-1-.02.11-.03.26-.02.49,0,.24.04.55.17.94Zm71.71-94.34l.06-.9c.07,1.98,0,1.49-.06.9Z"/>
            <path class="cls-3" d="m22.04,67.26c-.02-.21,0-.27.04-.33-.12-.26-.17-.25-.04.33Z"/>
            <path class="cls-3" d="m63.82,19.86l.1.06c.06.02.1.03.12.03l-.22-.09Z"/>
            <path class="cls-3" d="m17.04,150.58c.53-.72.99-.95,1.27-1.09,0-.04-.08-.01-.31.12-.21.14-.58.41-.96.97Z"/>
            <path class="cls-3" d="m15.79,186.94h-2.07c1,.03,1.35.08,1.86.14-.04-.06-.44-.15.21-.14Z"/>
            <path class="cls-3" d="m33.8,188.36c.3-.04.64-.02.94-.05l-.09-.11c-1.29.04-2.2.14-.86.16Z"/>
            <path class="cls-3" d="m17.69,187.78c.16.21,1.46.16,2.92.13-.09,0-.17,0-.26,0,.43-.28-1.12-.19-2.66-.13Z"/>
            <path class="cls-3" d="m20.94,187.91c.45,0,.91,0,1.34,0,.17-.12-.55-.02-1.34,0Z"/>
            <path class="cls-3" d="m3.48,185.63c.45.33.44-.08.68.13.17,0,.03-.07-.23-.16-.28-.08-.55-.28-.85-.38-.24-.14-.41-.27-.42-.22.01.03.13.28.81.63Z"/>
            <polygon class="cls-3" points="18.85 188.47 18.34 188.21 17.52 188.4 18.85 188.47"/>
            <path class="cls-3" d="m7.39,187.76c.77.09,1.53.2,2.3.27-.03-.04.26-.05.63-.05-1.44-.07-2.97-.32-2.93-.22Z"/>
            <path class="cls-3" d="m10.32,187.98c.74.05,1.45.09,1.87.06-.4,0-1.27-.06-1.87-.06Z"/>
            <polygon class="cls-3" points="15.67 188.48 14.98 188.41 13.34 188.33 15.67 188.48"/>
            <path class="cls-3" d="m5.78,172.65l2.54-.07c.26-.09-.43-.14-1.38-.1-.61.06-1.55.09-1.16.18Z"/>
            <path class="cls-3" d="m.09,174.9c.08-.66.13-.76.22-1.18l-.31-.19.09,1.37Z"/>
            <path class="cls-3" d="m5.5,171.89c.25-.09,3.69-.25.47-.23-.26.09-2.8.16-.47.23Z"/>
            <path class="cls-3" d="m21.03,148.96c-.15.14-.31.26-.49.37.11.13.22.26.34.39.09-.25.14-.51.15-.76Z"/>
            <path class="cls-3" d="m25.12,115.66c-.55,2.96.21.75-.33,3.42.02.72.44-2.18.44-1.45.13-1.82.34-2.75-.11-1.97Z"/>
            <path class="cls-3" d="m25.23,117.63c-.02.29-.04.6-.06.93.04-.53.05-.77.06-.93Z"/>
            <polygon class="cls-3" points="91.74 173.64 93.68 173.75 92.43 173.58 91.74 173.64"/>
            <path class="cls-3" d="m95.46,173.27l.46.32,1.16-.29c-.44.01-1.29.04-1.62-.03Z"/>
            <path class="cls-3" d="m29.12,24.95l-.05.16c.28-.17.61-.52,1.27-1.2l-1.23,1.03Z"/>
            <path class="cls-3" d="m38.2,3.73l-.02.79.31-1.3c-.1.15-.19.32-.29.51Z"/>
            <path class="cls-3" d="m59.78,6.89c-.33-.97-.98-2.03-1.56-2.92,1.34,1.93,1.28,3.32,1.56,2.92Z"/>
          </g>
        </g>
      </g>
      <g>
        <path class="cls-3" d="m70.01,84.1c.06,0,.04-.1.05-.11-.1.02-.05.14-.05.11Z"/>
        <polygon class="cls-3" points="69.01 84.33 69.03 84.29 68.88 84.4 69.01 84.33"/>
        <path class="cls-3" d="m68.07,84.33c.09.18.34-.03.51.03l.03.04.08-.14c-.2.02-.47.12-.61.07Z"/>
        <path class="cls-3" d="m67.57,83.95c.03.07-.11.06.12.02-.01,0-.01-.01-.02-.02-.02,0-.05,0-.1,0Z"/>
        <path class="cls-3" d="m67.67,83.95c.1,0-.06-.06,0,0h0Z"/>
        <path class="cls-3" d="m67.21,83.99l.13-.06s-.14-.05-.1-.08c-.13.03-.11.07-.03.14Z"/>
        <path class="cls-3" d="m67.08,84.12l.07-.03s-.03-.02-.07.03Z"/>
        <path class="cls-3" d="m67.3,84.04l-.14.06s.02.09.07-.02c-.01.05.02,0,.08-.04Z"/>
        <path class="cls-3" d="m67.38,84.07c.07.04.17.06.04.12.25-.02.21-.15-.04-.12Z"/>
        <path class="cls-3" d="m68.02,84.52l.1.05.08-.06s-.19-.05-.18,0Z"/>
        <path class="cls-3" d="m66.4,83.9s.04.1.05.15l.1-.04s-.14-.05-.15-.11Z"/>
        <path class="cls-3" d="m66.45,84.05l-.14.07c.13,0,.15-.02.14-.07Z"/>
        <polygon class="cls-3" points="67.06 84.32 67.3 84.18 67.02 84.32 67.06 84.32"/>
        <polygon class="cls-3" points="65.85 83.89 65.93 83.8 65.78 83.94 65.85 83.89"/>
        <path class="cls-3" d="m65.48,83.91c.06-.07-.08-.12-.02-.17-.1.01-.18.08-.26.13.08-.03.17-.02.28.04Z"/>
        <path class="cls-3" d="m65.07,83.95s.08-.05.13-.08c-.04.02-.09.04-.13.08Z"/>
        <path class="cls-3" d="m66.06,84.09s-.03-.08-.11-.11l.06.11s.04,0,.06,0Z"/>
        <path class="cls-3" d="m66.01,84.1h0c-.06,0-.1,0-.12,0,.02,0,.05,0,.12,0Z"/>
        <path class="cls-3" d="m66.07,84.09s0,0-.01,0c0,.01,0,.01.01,0Z"/>
        <path class="cls-3" d="m66.68,84.22c-.08.06-.26.12-.09.21.06-.07-.04-.12.09-.21Z"/>
        <path class="cls-3" d="m66.14,84.23l.15.02s-.03-.07.01-.1l-.16.07Z"/>
        <polygon class="cls-3" points="66.07 84.26 66.14 84.23 66.09 84.22 66.07 84.26"/>
        <path class="cls-3" d="m65.34,84.05c-.07.05-.14.05-.22.06.09.02.18.03.26.03.01-.03.05-.09-.04-.09Z"/>
        <path class="cls-3" d="m65.66,84.08s-.01,0-.01,0c0,0,.02.01.01,0Z"/>
        <path class="cls-3" d="m64.31,84.11s0,.01.01.02c0,0,0-.01,0-.02h-.02Z"/>
        <path class="cls-3" d="m65.39,84.16c.07.02.11,0,.14-.04-.05.01-.1.02-.16.02,0,.02,0,.03.01.02Z"/>
        <path class="cls-3" d="m64.85,84s.07.04.11.06c-.03-.03-.1-.09-.11-.06Z"/>
        <path class="cls-3" d="m65.62,84.06s0,0,0,0c-.02-.02-.02-.01,0,0Z"/>
        <path class="cls-3" d="m65.62,84.06s-.06.04-.09.07c.04,0,.08-.02.11-.04,0,0-.02-.02-.02-.03Z"/>
        <path class="cls-3" d="m64.07,84.8c.01-.1.18-.19.33-.08.15-.07.05-.4-.08-.58,0,.04,0,.08-.16.14.05.05.34.13.21.22-.2.05-.16-.04-.26-.09.08.12-.25.18-.21.36l.18-.06s-.06.07-.01.1Z"/>
        <path class="cls-3" d="m64.61,84.14h.06c-.07-.03-.12-.07-.22-.15-.1.05-.12.09-.13.12h.31s-.02.03-.02.03Z"/>
        <path class="cls-3" d="m64.95,84.13c-.05.11-.2.15-.11.27.18,0,.13-.09.24-.14-.29.03.08-.06-.13-.12.06-.02.11-.02.16-.03-.05-.01-.1-.03-.15-.05,0,0,0,0,0,0h0s0,0,0,0c.01.01.02.02,0,.01,0,0,0,0,0,0,0,.02,0,.03-.01.04-.09-.02-.01-.03.01-.04,0,0,0-.01,0-.02,0,0,0,0,0,0l-.3.06c.06.02.14.01.28,0Z"/>
        <path class="cls-3" d="m66.44,84.67s0-.02,0-.03c-.02.01-.03.02,0,.03Z"/>
        <path class="cls-3" d="m66.31,84.6s.04-.06.11-.05c.06.03,0,.05,0,.09.04-.03.15-.08.02-.13h-.02c-.12-.02-.27-.16-.25-.17.03.1.07.17.14.26Z"/>
        <path class="cls-3" d="m65.63,84.39l-.25.05.13.09v-.06c.13.02.1-.05.12-.09Z"/>
        <polygon class="cls-3" points="64.28 84.06 64.32 83.94 64.17 84.1 64.28 84.06"/>
        <polygon class="cls-3" points="63.96 84.07 63.98 83.97 63.89 84.03 63.96 84.07"/>
        <path class="cls-3" d="m45.94,85.3l-.07.03s.06-.02.07-.03Z"/>
        <path class="cls-3" d="m46.46,85.3v-.05s-.02.05,0,.05Z"/>
        <path class="cls-3" d="m56.12,84.08c-.11-.09-.22-.24-.21-.12l.03.11c.07-.02.13,0,.18.02Z"/>
        <path class="cls-3" d="m50.75,84.73s.02.02.03.03c.03-.04.05-.07.07-.1-.03.02-.07.05-.1.07Z"/>
        <path class="cls-3" d="m50.67,85.18l-.14-.07s.08.05.14.07Z"/>
        <path class="cls-3" d="m43.09,85.41l-.08.11c.13,0,.07-.06.08-.11Z"/>
        <path class="cls-3" d="m60.69,84.11c-.09-.04-.16-.06-.23-.07.11.06.2.16.23.07Z"/>
        <path class="cls-3" d="m46.15,84.15s-.06.04-.06.07c.05-.02.07-.04.06-.07Z"/>
        <path class="cls-3" d="m60.2,84.05s.03.02.05.03c.07-.02.13-.03.21-.03-.08-.05-.17-.07-.26,0Z"/>
        <path class="cls-3" d="m32.73,85.32s-.02,0-.02-.01c0,.01,0,.02.02.01Z"/>
        <path class="cls-3" d="m29.71,84.23s.08,0,.12,0c-.02,0-.06,0-.12,0Z"/>
        <path class="cls-3" d="m62.68,84.02c.07,0,.01-.01,0,0h0Z"/>
        <path class="cls-3" d="m63.01,84.45s-.03.03-.03.05c0-.03.02-.04.03-.05Z"/>
        <path class="cls-3" d="m59.53,84.72s0,0,0,0c.02.02.02.02,0,0Z"/>
        <path class="cls-3" d="m62.78,84.07s-.05-.02-.09-.03c.01,0,.04.02.09.03Z"/>
        <path class="cls-3" d="m62.77,84.02s.04,0,.06.01c0-.02,0-.03-.06-.01Z"/>
        <path class="cls-3" d="m62.59,84.03s.07,0,.11.01c-.01,0-.02-.01-.02-.02-.02,0-.05,0-.09,0Z"/>
        <path class="cls-3" d="m38.28,85.03s0,0-.01-.01c-.07.05-.04.04.01.01Z"/>
        <polygon class="cls-3" points="54.36 85.21 54.37 85.2 54.36 85.2 54.36 85.21"/>
        <path class="cls-3" d="m54.11,85.29c.1-.14.16-.12.24-.09l-.08-.31-.16.4Z"/>
        <path class="cls-3" d="m44.69,85.33l.17.1c-.21.16-.36.11-.2.24.02-.34.66-.03.69-.37l.11.07s-.04.02-.07.01c.22.16.16-.25.44-.2.1.03.17.08.1.12l.22-.08c.06,0,.05.07-.02.06l.33-.03h0s.16-.13.21-.16c.08.05-.04.04-.02.08l.19-.08c.08.09-.08.17-.21.16.17.34.15-.09.53.11l-.17.04c.11.19.25.12.45.24-.05-.06-.4-.3-.19-.39.06.03.13.04.24-.03,0,.12.11.09.24.08v.16c.13-.05.12-.13.21-.2.16.02.19.14.23.24.26.03-.18-.2.13-.23.21.06.36,0,.62-.1.15.06-.03.1.03.14l.13-.13s.02.04.02.06c.11-.05,0-.16.18-.2.05-.18.36.26.57.06.05.05-.03.1,0,.16.3-.13.25-.1.5-.27l.21.1c-.15-.12.04-.26.21-.38-.05-.06-.1-.11-.13-.13l.27-.09s0,.08-.04.15c.02-.01.04-.03.05-.04.1.06.05.15-.02.24-.03-.03-.07-.07-.1-.1-.07.1-.13.2-.12.3.02-.02.05-.03.09-.04-.02.03-.03.05-.02.07,0,.02.04-.02.08-.06l.06.18.02-.07.36.11c.25-.18.48-.44.88-.52-.1.13-.02.21-.03.37-.11-.16-.31.07-.52.04.11.02.09.09.06.12l.37-.15c0,.13.08.09.18.15-.07-.25.28-.17.43-.24,0,.08-.03.17-.21.15.2.19.26-.29.47-.13-.05,0-.07-.01-.09.03.11-.07.36-.02.3.06h-.05c.3.03.92,0,.96-.21,0,.03-.04.26-.06.3l.54-.72c-.05.18.13.62-.12.72.07.03.16.06.31,0-.05-.03-.12-.26-.06-.28.18.2.13.11.35.28-.07-.04,0-.33.12-.32-.02.04,0,.28-.03.31l.29-.28c-.07.05-.01.24.05.32-.03-.06.25,0,.33-.02l-.12-.07c.33.04.32-.4.64-.38-.04.06-.1.36.07.39.08-.14.33-.69.62-.8l.05.08.22-.09c-.14.22-.52.67-.73.85.12.07.03.1.22.09.06.08-.1.12-.15.12l.42.05c-.02-.17.32-.17.31-.31l-.46.17c-.02-.17.27-.48.57-.45.08.07-.06.3-.05.36.04-.06.29-.11.31-.07l-.13.09c.17.06.27-.22.47-.06.07.01.21.22.22.12-.11-.19-.14-.79-.06-.93.02.01.36.18.44.28.11.15-.17.36-.07.49,0-.05.07-.1.09-.12.07.04-.03.14.13.12.03-.17.32.01.07-.14.15-.05.16.04.35.03-.06-.11.16-.37.32-.42,0,.04.03.1.04.13.32.02.49.09.78.09.03.04.17.09.11.16.04-.03.08-.09.17-.09.18.15-.2.02-.07.2.01-.1.24-.14.37-.2-.04-.15-.3-.03-.43.03,0-.21.23-.43.54-.53.25-.05.11.14.15.11.46.04.39-.37.78-.22.15.13,0,.27.04.36-.2.05-.31-.09-.44-.08l.17.06c-.06.04-.2.08-.27.04.13.12.78.02,1.14.13.06-.05.17-.09.12-.15l-.11.02c-.1-.11.21-.15.07-.2.15-.08.32-.2.53-.13l.04.15s-.14-.09-.2-.04c.09-.07.33.21.42,0l-.15-.11c.15-.08.34-.24.53-.19-.09-.15-.04.02-.18-.16.12.22-.48,0-.3.22-.14-.21-.24-.09-.42-.26,0,.05.06.1-.09.07,0,.01-.02.03-.03.04,0,0,0,0-.01,0,0,0,0,0,0,0,0,0,0,0,0,0,.04.02.07.05.08.08-.08.12-.33.11-.42.17-.09-.02.04-.06-.01-.11l-.13.09c-.01-.11-.25-.19-.03-.25h-.2c-.12-.07-.28-.09-.38-.05-.09-.02-.24.12-.16.04l-.31.07v-.03c-.31-.01-.64.19-.99-.02-.1.03-.21.06-.39.03l-.03-.1c-.13.03-.4-.1-.46,0-.14-.26-.65-.06-.88-.1v.13c-.17,0-.33.03-.53.08v.11c-.16.09-.43-.08-.71-.07.02-.04.09-.03.14,0-.33-.25-.69.18-.99,0-.07.04-.13.03-.18,0,0,0,.01,0,.02,0,0,0-.02,0-.03,0-.03-.02-.07-.04-.1-.06.03.03.06.05.09.06-.06,0-.14.02-.23.04l-.04-.12s-.01,0-.02,0c-.08-.04-.07.06-.02.15-.04.02-.08.04-.11.07-.07-.19-.22.07-.31-.14-.06.1-.43.08-.47.29,0-.03-.03-.04.02-.04-.09-.02-.19-.05-.27.01l-.04-.15-.21.21c-.13-.09-.18-.15-.05-.27-.3.18-.24.07-.5.25v-.1c-.08,0-.22.14-.28.05-.2-.19-1.01-.03-1.53-.2.1.29-.24-.13-.26.1-.03-.07-.1-.11-.02-.17-.27.07-.4-.11-.59.08-.03-.07.06-.1.03-.14-.02.01-.08.06-.11.02-.03-.04.04-.06.08-.09-.27.01-.3.22-.32.42-.14-.09-.21-.08-.31.05-.05-.07-.13-.13.04-.16-.1,0-.58-.1-.59.06-.03-.04-.13-.01-.16,0-.21,0-.23-.02-.44,0l.06.03c-.08.19-.17.04-.34.07v-.02c-.38-.14-.16.07-.55-.09l.02.12c-.04.26-.34-.15-.56-.05l.08.07c-.12.09-.34-.35-.46-.38-.03-.02.04-.04.08-.05-.32-.15-.04.16-.28.19-.04-.08.06-.22-.1-.23-.08-.07-.47.28-.68.11.05.07.1.13-.01.18-.17.02-.46-.25-.61-.04-.02-.02-.03-.03-.03-.05-.13.05-.42.09-.5.2-.12-.41-.81.2-.8-.18l-.4.02v-.04c-.24-.03-.33.07-.42.16-.06-.03-.02-.06-.01-.08-.37-.08-.41-.06-.72.13l-.03-.12c-.08.07-.54-.19-.9-.05,0-.01.01-.04.04-.06-.41.15-.98-.34-1.13.11l-.27.11c.35.04-.05.2.09.27-.14.03-.36-.14-.19-.16l.03.02c.06-.24-.44-.08-.43-.24-.69.01-1.36-.12-2.01-.13l.07.18h-.23c-.06-.05-.08-.15.08-.15-.08-.1-.27.09-.27.13-.32-.07.12-.21.03-.22h-.13s.03.04.03.04c-.11.07-.12.15-.31.14-.12-.04-.06-.11-.11-.12,0-.01-.02-.02-.07,0l-.28-.02.11.14c-.13.07-.27,0-.14.16-.19-.25-1.06-.09-1.18-.17-.18.11-.35.1-.57.09.05.03.09.19-.1.17.07-.33-.34-.15-.49-.39.13.16-.53.04-.32.27-.16-.03,0-.13-.13-.2-.37.13-.81-.08-1.27-.04,0,.04.07.11-.03.18l-.24-.22c-.09.02-.08.25-.25.1.02.04.06.09,0,.11-.89-.21-1.83.18-2.74-.23.12.09.04.09-.05.1.06.02,0,.11.01.17l-.38-.17c-.07.17-.41.01-.45.17l.12-.03c-.16.19.22.41.2.65.18-.21.47.31.77.01.06.05-.06.08-.02.13.07-.1.16-.12.33-.08l-.02.03c.47-.03.67.08,1.2.14l-.04-.12c.11.02.14.05.19.08.13-.18-.32-.01-.2-.21.15.24.8,0,.9.28.17,0-.05-.14.12-.14l.05.07.04-.1c.11.02.17.11.18.17-.03,0-.08.02-.11.02.15.09.42-.03.47,0l-.17-.05c.48-.07,1.06.03,1.52-.12l-.03-.06c.35-.1.28.06.67.01h-.01c.08-.04.18-.07.29-.06-.1.07.18.13.06.2.38-.11.19-.09.44-.29l.06.09c.09-.08.09-.13.29-.15-.16.08.12.14-.05.25.4.2.6-.2.78.09.19-.26-.35-.14-.25-.2-.09-.08.15-.19.28-.17.13,0,.22.33.54.32-.03,0-.03.02-.07.02.12.07.24-.09.39.02.08-.16.19,0,.22-.19l-.3.05c.17-.05.33-.28.6-.17-.02.04-.1.09-.16.12.08.06.16-.04.24.02-.02.2-.36.04-.54.19.09.08.34-.14.25.07.13-.27.32.03.54-.17v.12s.09-.07.16-.07l-.12.15c.18-.13.34.11.51.04-.36,0-.08-.14-.23-.23.44-.16.25.31.75.25-.07.02-.25-.07-.15-.13.09.02.22.07.28.13.33-.02-.05-.12.09-.19.11.14.16-.06.3-.11v.12c.37.08.1-.25.43-.16l-.14.17.17-.04-.04.14c.19-.1.25-.08.44-.04-.04-.08.02-.22.19-.22.11.07-.06.11.17.1-.05.08-.11.17-.21.06-.01.04-.05.08-.06.11.12.08.3.02.39.02-.03,0-.07-.01-.09-.03l.34-.17c.05.05.01.08-.03.12.07-.01.12-.07.22-.08-.03.1-.02.2-.16.25l.32-.11s.17.12.12.15c.18.06.44-.19.68-.11.01-.02.04-.04.09-.05.22.02.42.14.69,0l.15.18c.21-.04-.2-.22.14-.29.24-.06.09.15.18.2.12-.09.33-.27.56-.13-.07.03-.13,0-.2.02Zm2.55-.08s-.15.1-.18.03c.06-.14.1-.07.18-.03Zm3.88-.29s-.09.02-.16-.03c.05,0,.1,0,.16.03Zm10.81-.84s0,0,0,0c-.11-.05-.07-.03,0,0Zm.23.05s.02-.03.01-.05c-.02.03-.07.03-.13.02.02.03.05.05.11.03Zm-24.61.05l.04.03c-.1.03-.07,0-.04-.03Z"/>
        <path class="cls-3" d="m50.68,85.13s-.02-.04-.02-.07c-.02.02-.02.04.02.07Z"/>
        <path class="cls-3" d="m43.1,85.39s0,0,0,0c0,0,0,.01,0,.02l.02-.02Z"/>
        <path class="cls-3" d="m58.62,85.2s-.07-.04-.09-.06c0,.03.02.05.09.06Z"/>
        <path class="cls-3" d="m63.38,83.97l-.15.03c.07,0,.1.02.13.04,0-.03-.03-.07.01-.07Z"/>
        <path class="cls-3" d="m64.65,84.72s.05,0,.07-.02v-.06c-.1,0-.16.05-.07.07Z"/>
        <path class="cls-3" d="m63.52,84.37c.01.1.1.07.21.05,0,0-.01,0-.02,0,.03-.14-.08-.09-.19-.05Z"/>
        <path class="cls-3" d="m63.75,84.41s.06,0,.1,0c.01-.06-.04-.01-.1,0Z"/>
        <path class="cls-3" d="m62.46,84.11s.03-.13.06-.09c.05-.13-.33.16-.06.09Z"/>
        <polygon class="cls-3" points="63.6 84.7 63.56 84.58 63.51 84.68 63.6 84.7"/>
        <path class="cls-3" d="m62.79,84.61l.16.03s.02-.03.04-.04c-.1,0-.21-.03-.21,0Z"/>
        <path class="cls-3" d="m63,84.6c.05,0,.1,0,.13-.02-.03,0-.09,0-.13.02Z"/>
        <polygon class="cls-3" points="63.38 84.74 63.33 84.72 63.21 84.71 63.38 84.74"/>
        <path class="cls-3" d="m61.02,84.59l-.18.04s.03.07.1.05c.04-.03.11-.05.08-.09Z"/>
        <path class="cls-3" d="m61.56,84.93s-.05-.05-.08-.1v.16s.08-.06.08-.06Z"/>
        <path class="cls-3" d="m61.04,84.97s-.26.12-.03.11c.02-.04.2-.08.03-.11Z"/>
        <polygon class="cls-3" points="58.34 84.77 58.38 84.77 58.38 84.51 58.34 84.77"/>
        <path class="cls-3" d="m55.96,85.38c.21.06.05-.16.24-.08.05-.06-.16-.06-.11-.11-.13.06-.2.03-.14.2Z"/>
        <path class="cls-3" d="m56.09,85.18s.04-.02.07-.04c-.04.02-.05.03-.07.04Z"/>
        <polygon class="cls-3" points="29.21 84.09 29.07 84.04 29.16 84.12 29.21 84.09"/>
        <path class="cls-3" d="m28.95,84.28l-.03-.16-.08.15s.09-.02.11.02Z"/>
        <path class="cls-3" d="m47.62,85.58v-.04s-.04-.05-.11-.05l.11.09Z"/>
        <polygon class="cls-3" points="45.77 85.46 45.8 85.46 45.74 85.31 45.77 85.46"/>
        <path class="cls-3" d="m44.21,85.64c.06,0,.14-.03.2-.02-.14.03-.22-.16-.2.02Z"/>
      </g>
      <g>
        <path class="cls-3" d="m52.04,94.48s.02-.1.03-.11c-.06.02-.03.14-.03.11Z"/>
        <polygon class="cls-3" points="51.47 94.72 51.48 94.67 51.4 94.78 51.47 94.72"/>
        <path class="cls-3" d="m50.94,94.71c.05.18.19-.03.29.03l.02.04.04-.14c-.11.02-.26.12-.34.07Z"/>
        <path class="cls-3" d="m50.66,94.33c.02.07-.06.06.07.02,0,0,0-.01-.01-.02-.01,0-.03,0-.05,0Z"/>
        <path class="cls-3" d="m50.72,94.33c.06,0-.04-.06,0,0h0Z"/>
        <path class="cls-3" d="m50.46,94.37l.07-.06s-.08-.05-.06-.08c-.08.03-.06.07-.02.14Z"/>
        <path class="cls-3" d="m50.39,94.5l.04-.03s-.02-.02-.04.03Z"/>
        <path class="cls-3" d="m50.51,94.42l-.08.06s.01.09.04-.02c0,.05,0,0,.04-.04Z"/>
        <path class="cls-3" d="m50.55,94.45s.09.06.02.12c.14-.02.12-.15-.02-.12Z"/>
        <path class="cls-3" d="m50.92,94.9l.06.05.05-.06s-.11-.05-.1,0Z"/>
        <path class="cls-3" d="m50,94.28s.02.1.03.15l.05-.04s-.08-.05-.08-.11Z"/>
        <path class="cls-3" d="m50.03,94.43l-.08.07c.07,0,.09-.02.08-.07Z"/>
        <polygon class="cls-3" points="50.38 94.7 50.51 94.56 50.35 94.7 50.38 94.7"/>
        <polygon class="cls-3" points="49.69 94.27 49.74 94.19 49.65 94.32 49.69 94.27"/>
        <path class="cls-3" d="m49.48,94.29c.03-.07-.05-.12-.01-.17-.06.01-.1.08-.15.13.05-.03.09-.02.16.04Z"/>
        <path class="cls-3" d="m49.26,94.34s.05-.05.07-.08c-.02.02-.05.04-.07.08Z"/>
        <path class="cls-3" d="m49.81,94.48s-.02-.08-.06-.11l.03.11s.02,0,.03,0Z"/>
        <path class="cls-3" d="m49.78,94.48h0s-.06,0-.07,0c0,0,.03,0,.07,0Z"/>
        <path class="cls-3" d="m49.82,94.48s0,0,0,0c0,.01,0,.01,0,0Z"/>
        <path class="cls-3" d="m50.16,94.6c-.05.06-.15.12-.05.21.03-.07-.02-.12.05-.21Z"/>
        <path class="cls-3" d="m49.86,94.61l.09.02s-.02-.07,0-.1l-.09.07Z"/>
        <polygon class="cls-3" points="49.82 94.64 49.86 94.61 49.83 94.6 49.82 94.64"/>
        <path class="cls-3" d="m49.4,94.44s-.08.05-.12.06c.05.02.1.03.15.03,0-.03.03-.09-.02-.09Z"/>
        <path class="cls-3" d="m49.59,94.46s0,0,0,0c0,0,0,.01,0,0Z"/>
        <path class="cls-3" d="m48.83,94.49s0,.01,0,.02c0,0,0-.01,0-.02h0Z"/>
        <path class="cls-3" d="m49.44,94.55s.06,0,.08-.04c-.03.01-.06.02-.09.02,0,.02,0,.03,0,.02Z"/>
        <path class="cls-3" d="m49.13,94.39s.04.04.06.06c-.02-.03-.06-.09-.06-.06Z"/>
        <path class="cls-3" d="m49.57,94.44s0,0,0,0c-.01-.02-.01-.01,0,0Z"/>
        <path class="cls-3" d="m49.57,94.44s-.03.04-.05.07c.02,0,.04-.02.06-.04,0,0,0-.02-.01-.03Z"/>
        <path class="cls-3" d="m48.69,95.18c0-.1.1-.19.19-.08.08-.07.03-.4-.04-.58,0,.04,0,.08-.09.14.03.05.19.13.12.22-.11.05-.09-.04-.15-.09.05.12-.14.18-.12.36l.1-.06s-.03.07,0,.1Z"/>
        <path class="cls-3" d="m49,94.52h.04s-.07-.07-.12-.15c-.06.05-.07.09-.07.12h.17s-.01.03-.01.03Z"/>
        <path class="cls-3" d="m49.19,94.51c-.03.11-.11.15-.06.27.1,0,.07-.09.13-.14-.17.03.05-.06-.07-.12.03-.02.06-.02.09-.03-.03-.01-.06-.03-.09-.05,0,0,0,0,0,0h0s0,0,0,0c0,.01,0,.02,0,.01,0,0,0,0,0,0,0,.01,0,.03,0,.04-.05-.02,0-.03,0-.04,0,0,0-.01,0-.02,0,0,0,0,0,0l-.17.06s.08.01.16,0Z"/>
        <path class="cls-3" d="m50.02,95.05s0-.02,0-.03c-.01.01-.01.02,0,.03Z"/>
        <path class="cls-3" d="m49.95,94.98s.02-.06.06-.05c.03.03,0,.05,0,.09.02-.03.08-.08,0-.13h-.01c-.07-.02-.15-.16-.14-.17.02.1.04.17.08.26Z"/>
        <path class="cls-3" d="m49.57,94.77l-.14.05.07.09v-.06c.08.02.06-.05.07-.09Z"/>
        <polygon class="cls-3" points="48.81 94.44 48.83 94.32 48.75 94.49 48.81 94.44"/>
        <polygon class="cls-3" points="48.63 94.45 48.64 94.35 48.59 94.41 48.63 94.45"/>
        <path class="cls-3" d="m38.47,95.68l-.04.03s.03-.02.04-.03Z"/>
        <path class="cls-3" d="m38.77,95.69v-.05s-.01.05,0,.05Z"/>
        <path class="cls-3" d="m44.21,94.46c-.06-.09-.13-.24-.12-.12l.02.11s.07,0,.1.02Z"/>
        <path class="cls-3" d="m41.18,95.11s.01.02.02.03c.01-.04.03-.07.04-.1-.02.02-.04.05-.06.07Z"/>
        <path class="cls-3" d="m41.14,95.56l-.08-.07s.04.05.08.07Z"/>
        <path class="cls-3" d="m36.86,95.79l-.05.11c.07,0,.04-.06.05-.11Z"/>
        <path class="cls-3" d="m46.79,94.49c-.05-.04-.09-.06-.13-.07.06.06.11.16.13.07Z"/>
        <path class="cls-3" d="m38.59,94.53s-.04.04-.03.07c.03-.02.04-.04.03-.07Z"/>
        <path class="cls-3" d="m46.51,94.43s.02.02.03.03c.04-.02.08-.03.12-.03-.05-.05-.1-.07-.15,0Z"/>
        <path class="cls-3" d="m31.03,95.71s0,0-.01-.01c0,.01,0,.02.01.01Z"/>
        <path class="cls-3" d="m29.33,94.61s.04,0,.07,0c-.01,0-.03,0-.07,0Z"/>
        <path class="cls-3" d="m47.91,94.4s0-.01,0,0h0Z"/>
        <path class="cls-3" d="m48.09,94.83s-.01.03-.02.05c0-.03,0-.04.02-.05Z"/>
        <path class="cls-3" d="m46.13,95.1s0,0,0,0c.01.02,0,.02,0,0Z"/>
        <path class="cls-3" d="m47.96,94.45s-.03-.02-.05-.03c0,0,.02.02.05.03Z"/>
        <path class="cls-3" d="m47.96,94.4s.02,0,.03.01c0-.02,0-.03-.03-.01Z"/>
        <path class="cls-3" d="m47.85,94.41s.04,0,.06.01c0,0-.01-.01,0-.02-.01,0-.03,0-.05,0Z"/>
        <path class="cls-3" d="m34.16,95.41s0,0,0-.01c-.04.05-.02.04,0,.01Z"/>
        <polygon class="cls-3" points="43.22 95.59 43.22 95.58 43.22 95.58 43.22 95.59"/>
        <path class="cls-3" d="m43.08,95.67c.06-.13.09-.12.14-.09l-.05-.31-.09.4Z"/>
        <path class="cls-3" d="m37.77,95.71l.1.1c-.12.16-.2.11-.11.24.01-.34.37-.03.39-.37l.06.07s-.02.02-.04.01c.12.16.09-.25.25-.2.06.03.09.08.06.12l.12-.08s.03.07,0,.06l.19-.03h0s.09-.13.12-.16c.05.05-.02.04-.01.08l.1-.08c.04.09-.04.17-.12.16.1.34.09-.09.3.11l-.1.04c.06.19.14.12.25.24-.03-.06-.22-.3-.11-.39.03.03.07.04.14-.03,0,.12.06.09.13.08v.16c.08-.05.07-.13.12-.2.09.02.11.14.13.24.14.03-.1-.2.07-.23.12.06.2,0,.35-.1.08.06-.01.1.02.14l.07-.13s.01.04,0,.06c.06-.05,0-.16.1-.2.03-.18.2.26.32.06.03.05-.01.1,0,.16.17-.13.14-.1.28-.27l.12.1c-.09-.12.02-.26.12-.38-.03-.06-.06-.11-.07-.13l.15-.09s0,.08-.02.15c.01-.01.02-.03.03-.04.05.06.03.15-.01.24-.02-.03-.04-.07-.06-.1-.04.1-.07.2-.07.3,0-.02.03-.03.05-.04,0,.03-.02.05-.01.07,0,.02.02-.02.05-.06l.03.18v-.07s.21.11.21.11c.14-.18.27-.44.5-.52-.06.13-.01.21-.02.37-.06-.16-.18.07-.29.04.06.02.05.09.03.12l.21-.15c0,.13.04.09.1.15-.04-.25.16-.17.24-.24,0,.08-.02.17-.12.15.12.19.15-.29.26-.13-.03,0-.04-.01-.05.03.06-.07.21-.02.17.06h-.03c.17.03.52,0,.54-.21,0,.03-.02.26-.03.3l.3-.72c-.03.18.08.62-.06.72.04.03.09.06.18,0-.03-.03-.07-.26-.03-.28.1.2.07.11.2.28-.04-.04,0-.33.07-.32-.01.04,0,.28-.02.31l.16-.28c-.04.05,0,.24.03.32-.02-.06.14,0,.18-.02l-.07-.07c.18.04.18-.4.36-.38-.02.06-.05.36.04.39.04-.14.19-.69.35-.8l.03.08.12-.09c-.08.22-.29.67-.41.85.07.07.02.1.12.09.04.08-.06.12-.09.12l.24.05c-.01-.17.18-.17.17-.31l-.26.17c-.01-.17.15-.48.32-.45.04.07-.03.3-.03.36.02-.06.16-.11.18-.07l-.07.09c.09.06.15-.22.27-.06.04.01.12.22.12.12-.06-.19-.08-.79-.03-.93.01.01.21.18.25.28.06.15-.1.36-.04.49,0-.05.04-.1.05-.12.04.04-.02.14.07.12.01-.17.18.01.04-.14.09-.05.09.04.2.03-.03-.11.09-.37.18-.42,0,.04.01.1.02.13.18.02.28.09.44.09.02.04.1.09.06.16.02-.03.05-.09.1-.09.1.15-.11.02-.04.2,0-.1.13-.14.21-.2-.02-.15-.17-.03-.24.03,0-.21.13-.43.3-.53.14-.05.06.14.08.11.26.04.22-.37.44-.22.09.13,0,.27.02.36-.11.05-.17-.09-.25-.08l.09.06s-.11.08-.15.04c.07.12.44.02.64.13.04-.05.1-.09.07-.15l-.06.02c-.06-.11.12-.15.04-.2.09-.08.18-.2.3-.13l.02.15s-.08-.09-.11-.04c.05-.07.18.21.24,0l-.08-.11c.09-.08.19-.24.3-.19-.05-.15-.02.02-.1-.16.07.22-.27,0-.17.22-.08-.21-.13-.09-.24-.26,0,.05.04.1-.05.07,0,.01-.01.03-.02.04,0,0,0,0,0,0,0,0,0,0,0,0,0,0,0,0,0,0,.02.02.04.05.05.08-.04.12-.19.11-.23.17-.05-.02.02-.06,0-.11l-.07.09c0-.11-.14-.19-.02-.25h-.11c-.07-.07-.16-.09-.21-.05-.05-.02-.13.12-.09.04l-.18.07v-.03c-.18-.01-.36.19-.56-.02-.06.03-.12.06-.22.03l-.02-.1c-.08.03-.23-.1-.26,0-.08-.26-.36-.06-.5-.1v.13c-.1,0-.18.03-.3.08v.11c-.09.09-.24-.08-.4-.07.01-.04.05-.03.08,0-.18-.25-.39.18-.56,0-.04.04-.07.03-.1,0,0,0,0,0,.01,0,0,0-.01,0-.02,0-.02-.02-.04-.04-.06-.06.02.03.03.05.05.06-.03,0-.08.02-.13.04l-.02-.12s0,0-.01,0c-.05-.04-.04.06-.01.15-.02.02-.05.04-.06.07-.04-.19-.13.07-.18-.14-.03.1-.24.08-.27.29,0-.03-.02-.04.01-.04-.05-.02-.11-.05-.15.01l-.02-.15-.12.21c-.07-.09-.1-.15-.03-.27-.17.18-.14.07-.28.25v-.1s-.13.14-.16.05c-.11-.19-.57-.03-.86-.2.06.29-.14-.13-.15.1-.02-.07-.06-.11-.01-.17-.15.07-.23-.11-.33.08-.02-.07.03-.1.02-.14-.01.01-.05.06-.06.02-.02-.04.02-.06.05-.09-.15.01-.17.22-.18.42-.08-.09-.12-.08-.17.05-.03-.07-.07-.13.02-.16-.05,0-.33-.1-.33.06-.02-.04-.08-.01-.09,0-.12,0-.13-.02-.25,0l.03.03c-.05.19-.1.04-.19.07v-.02c-.22-.14-.09.07-.31-.09v.12c0,.26-.18-.15-.31-.05l.05.07c-.07.09-.19-.35-.26-.38-.01-.02.02-.04.04-.05-.18-.15-.02.16-.16.19-.02-.08.03-.22-.06-.23-.05-.07-.26.28-.39.11.03.07.05.13,0,.18-.1.02-.26-.25-.34-.04-.01-.02-.02-.03-.02-.05-.07.05-.24.09-.28.2-.07-.41-.45.2-.45-.18l-.22.02v-.04c-.14-.03-.19.07-.24.16-.03-.03,0-.06,0-.08-.21-.08-.23-.06-.41.13l-.02-.12c-.05.07-.3-.19-.51-.05,0-.01,0-.04.02-.06-.23.15-.55-.34-.64.11l-.15.11c.2.04-.03.2.05.27-.08.03-.2-.14-.11-.16v.02c.05-.24-.23-.08-.23-.24-.39.01-.77-.12-1.13-.13l.04.18h-.13c-.03-.05-.04-.15.05-.15-.05-.1-.15.09-.15.13-.18-.07.07-.21.01-.22h-.07s.02.04.02.04c-.06.07-.07.15-.17.14-.07-.04-.04-.11-.06-.12,0-.01,0-.02-.04,0l-.16-.02.06.14c-.07.07-.15,0-.08.16-.11-.25-.6-.09-.66-.17-.1.11-.2.1-.32.09.03.03.05.19-.06.17.04-.34-.19-.15-.28-.39.08.16-.3.04-.18.27-.09-.03,0-.13-.07-.2-.21.13-.46-.08-.72-.04,0,.04.04.11-.02.18l-.14-.22c-.05.02-.05.25-.14.1.01.04.03.09,0,.11-.5-.21-1.03.18-1.54-.23.07.09.02.09-.03.1.03.02,0,.11,0,.17l-.21-.17c-.04.17-.23.01-.25.17l.07-.03c-.09.19.13.41.11.65.1-.21.27.31.43.01.04.05-.03.08-.01.13.04-.1.09-.12.19-.08v.03c.25-.03.37.08.66.14l-.02-.12c.06.02.08.05.11.08.07-.18-.18-.01-.11-.21.08.24.45,0,.51.28.1,0-.03-.14.07-.14l.03.07.02-.1c.06.02.1.11.1.17-.02,0-.04.02-.06.02.08.09.24-.03.26,0l-.09-.05c.27-.07.6.03.85-.12l-.02-.06c.2-.1.16.06.38.01h0s.1-.07.16-.06c-.05.07.1.13.03.2.21-.11.11-.09.25-.29l.03.09c.05-.08.05-.13.16-.15-.09.08.07.14-.03.25.23.2.34-.2.44.09.1-.26-.2-.14-.14-.2-.05-.08.09-.19.16-.17.07,0,.12.33.31.32-.02,0-.02.02-.04.02.07.07.13-.09.22.02.05-.16.11,0,.12-.19l-.17.05c.1-.05.18-.28.34-.17-.01.04-.06.09-.09.12.05.06.09-.04.14.02-.01.2-.2.04-.31.19.05.08.19-.14.14.07.07-.27.18.03.3-.17v.12s.05-.07.09-.07l-.07.15c.1-.13.19.11.29.04-.2,0-.05-.14-.13-.23.25-.16.14.31.42.25-.04.02-.14-.07-.08-.13.05.02.12.07.16.13.18-.02-.03-.12.05-.19.06.14.09-.06.17-.11v.12c.21.08.06-.25.25-.16l-.08.17.1-.04-.02.14c.11-.1.14-.08.25-.04-.02-.08.01-.22.11-.22.06.07-.04.11.1.1-.03.08-.06.17-.12.06,0,.04-.03.08-.04.11.07.08.17.02.22.02-.02,0-.04-.01-.05-.03l.19-.17s0,.08-.02.12c.04-.01.07-.07.12-.08-.01.1-.01.2-.09.25l.18-.11s.09.12.07.15c.1.06.25-.19.38-.11,0-.02.02-.04.05-.05.13.02.24.14.39,0l.08.18c.12-.04-.11-.22.08-.29.14-.06.05.15.1.2.07-.09.19-.27.31-.13-.04.03-.07,0-.11.02Zm1.44-.08s-.08.1-.1.03c.03-.14.06-.07.1-.03Zm2.19-.29s-.05.02-.09-.03c.03,0,.06,0,.09.03Zm6.09-.84s0,0,0,0c-.06-.05-.04-.03,0,0Zm.13.05s.01-.03,0-.05c0,.03-.04.03-.07.02,0,.03.03.05.06.03Zm-13.87.05l.03.03c-.06.03-.04,0-.03-.03Z"/>
        <path class="cls-3" d="m41.15,95.51s-.01-.04-.01-.07c-.01.02-.01.04.01.07Z"/>
        <path class="cls-3" d="m36.87,95.77s0,0,0,0c0,0,0,.01,0,.02v-.02Z"/>
        <path class="cls-3" d="m45.62,95.58s-.04-.04-.05-.06c0,.03.01.05.05.06Z"/>
        <path class="cls-3" d="m48.3,94.35l-.08.03s.05.02.07.04c0-.03-.02-.07,0-.07Z"/>
        <path class="cls-3" d="m49.02,95.1s.03,0,.04-.02v-.06c-.05,0-.09.05-.04.07Z"/>
        <path class="cls-3" d="m48.38,94.75c0,.1.06.07.12.05,0,0,0,0-.01,0,.02-.14-.04-.09-.11-.05Z"/>
        <path class="cls-3" d="m48.51,94.8s.04,0,.05,0c0-.06-.02-.01-.05,0Z"/>
        <path class="cls-3" d="m47.78,94.49s.02-.13.03-.09c.03-.13-.18.16-.03.09Z"/>
        <polygon class="cls-3" points="48.42 95.09 48.4 94.96 48.37 95.06 48.42 95.09"/>
        <path class="cls-3" d="m47.97,94.99l.09.03s.01-.03.02-.04c-.06,0-.12-.03-.12,0Z"/>
        <path class="cls-3" d="m48.08,94.99s.06,0,.07-.02c-.02,0-.05,0-.07.02Z"/>
        <polygon class="cls-3" points="48.3 95.12 48.27 95.1 48.21 95.09 48.3 95.12"/>
        <path class="cls-3" d="m46.97,94.97l-.1.04s.02.07.05.05c.02-.03.06-.05.05-.09Z"/>
        <path class="cls-3" d="m47.28,95.31s-.03-.05-.04-.1v.16s.04-.06.04-.06Z"/>
        <path class="cls-3" d="m46.98,95.35s-.15.12-.02.11c.01-.04.11-.08.02-.11Z"/>
        <polygon class="cls-3" points="45.46 95.15 45.49 95.15 45.48 94.9 45.46 95.15"/>
        <path class="cls-3" d="m44.12,95.76c.12.06.03-.16.14-.08.03-.06-.09-.06-.06-.11-.07.06-.11.03-.08.2Z"/>
        <path class="cls-3" d="m44.2,95.57s.02-.02.04-.04c-.02.02-.03.03-.04.04Z"/>
        <polygon class="cls-3" points="29.05 94.47 28.97 94.42 29.02 94.51 29.05 94.47"/>
        <path class="cls-3" d="m28.9,94.66l-.02-.16-.05.15s.05-.02.06.02Z"/>
        <path class="cls-3" d="m39.42,95.96v-.04s-.02-.05-.06-.05l.06.09Z"/>
        <polygon class="cls-3" points="38.38 95.84 38.39 95.84 38.36 95.7 38.38 95.84"/>
        <path class="cls-3" d="m37.5,96.03s.08-.03.11-.02c-.08.03-.12-.16-.11.02Z"/>
      </g>
      <g>
        <line class="cls-1" x1="63.59" y1="95.09" x2="78.55" y2="96.12"/>
        <g>
          <path class="cls-3" d="m78.57,95.51s.02-.09.03-.11c-.04.02-.03.14-.03.11Z"/>
          <polygon class="cls-3" points="78.19 95.72 78.2 95.68 78.14 95.78 78.19 95.72"/>
          <path class="cls-3" d="m77.85,95.7c.02.18.13-.02.18.05v.04s.04-.14.04-.14c-.08.02-.18.11-.23.05Z"/>
          <path class="cls-3" d="m77.7,95.3c0,.07-.04.06.04.02,0,0,0-.01,0-.02,0,0-.02,0-.03,0Z"/>
          <path class="cls-3" d="m77.73,95.31s-.02-.06,0,0h0Z"/>
          <path class="cls-3" d="m77.56,95.33l.05-.06s-.05-.05-.03-.08c-.05.03-.04.07-.02.14Z"/>
          <path class="cls-3" d="m77.51,95.46l.03-.02s0-.02-.03.02Z"/>
          <path class="cls-3" d="m77.59,95.38l-.06.05s0,.09.03-.02c0,.05,0,0,.03-.03Z"/>
          <path class="cls-3" d="m77.62,95.41s.06.07,0,.13c.09-.02.09-.14,0-.13Z"/>
          <path class="cls-3" d="m77.82,95.88l.03.05.03-.06s-.07-.05-.07,0Z"/>
          <path class="cls-3" d="m77.27,95.22s0,.1,0,.15l.04-.04s-.05-.05-.05-.11Z"/>
          <path class="cls-3" d="m77.28,95.37l-.06.06s.06-.02.06-.06Z"/>
          <polygon class="cls-3" points="77.49 95.66 77.58 95.53 77.47 95.66 77.49 95.66"/>
          <polygon class="cls-3" points="77.08 95.2 77.11 95.12 77.05 95.25 77.08 95.2"/>
          <path class="cls-3" d="m76.94,95.21c.03-.07-.02-.12,0-.17-.04.01-.07.07-.1.12.03-.03.06-.02.1.04Z"/>
          <path class="cls-3" d="m76.79,95.24s.03-.05.05-.08c-.02.02-.03.04-.05.08Z"/>
          <path class="cls-3" d="m77.14,95.41s0-.08-.03-.11v.11s.03,0,.03,0Z"/>
          <path class="cls-3" d="m77.12,95.41h0s-.04-.01-.04-.01c0,0,.02,0,.04.01Z"/>
          <path class="cls-3" d="m77.14,95.41s0,0,0,0c0,.01,0,.01,0,0Z"/>
          <path class="cls-3" d="m77.36,95.55c-.03.06-.1.12-.05.21.03-.07,0-.13.05-.21Z"/>
          <path class="cls-3" d="m77.16,95.54l.05.03s0-.07.01-.1l-.06.07Z"/>
          <polygon class="cls-3" points="77.13 95.58 77.16 95.54 77.14 95.53 77.13 95.58"/>
          <path class="cls-3" d="m76.88,95.35s-.05.05-.08.05c.03.02.06.04.09.04,0-.03.02-.09,0-.09Z"/>
          <path class="cls-3" d="m77,95.39s0,0,0,0c0,0,0,.01,0,0Z"/>
          <path class="cls-3" d="m76.5,95.38s0,.01,0,.02c0,0,0-.01,0-.02h0Z"/>
          <path class="cls-3" d="m76.89,95.46s.04,0,.05-.03c-.02,0-.04.02-.06.01,0,.01,0,.02,0,.02Z"/>
          <path class="cls-3" d="m76.71,95.29s.02.04.04.06c0-.03-.03-.09-.04-.06Z"/>
          <path class="cls-3" d="m76.98,95.36s0,0,0,0c0-.02,0-.01,0,0Z"/>
          <path class="cls-3" d="m76.98,95.36s-.02.04-.04.06c.02,0,.03-.02.04-.03,0,0,0-.02,0-.03Z"/>
          <path class="cls-3" d="m76.37,96.06c.01-.1.08-.19.13-.08.06-.07.05-.4.01-.58,0,.04,0,.08-.07.14.02.06.11.13.06.22-.08.05-.06-.04-.09-.09.02.13-.1.17-.1.35l.07-.06s-.03.07-.01.1Z"/>
          <path class="cls-3" d="m76.61,95.42h.02s-.04-.07-.07-.15c-.04.05-.05.08-.06.11l.11.02h0Z"/>
          <path class="cls-3" d="m76.74,95.42c-.03.11-.08.15-.06.27.07,0,.05-.09.1-.13-.11.02.03-.06-.04-.12.02-.02.04-.02.06-.02-.02-.01-.04-.03-.05-.05,0,0,0,0,0,0h0s0,0,0,0c0,.01,0,.02,0,.01,0,0,0,0,0,0,0,.01,0,.03,0,.04-.03-.02,0-.03,0-.04,0,0,0-.01,0-.02,0,0,0,0,0,0l-.11.05s.05.02.1,0Z"/>
          <path class="cls-3" d="m77.24,95.99s0-.02,0-.03c0,.01-.01.02,0,.03Z"/>
          <path class="cls-3" d="m77.2,95.92s.02-.06.04-.04c.02.03,0,.05,0,.09.02-.03.06-.07.01-.13h0s-.09-.16-.08-.18c0,.1.01.17.03.26Z"/>
          <path class="cls-3" d="m76.96,95.7l-.09.05.04.1v-.06c.05.03.04-.04.05-.09Z"/>
          <polygon class="cls-3" points="76.5 95.33 76.52 95.22 76.45 95.37 76.5 95.33"/>
          <polygon class="cls-3" points="76.38 95.33 76.39 95.24 76.36 95.29 76.38 95.33"/>
          <path class="cls-3" d="m69.75,96.11l-.03.03s.02-.02.03-.03Z"/>
          <path class="cls-3" d="m69.94,96.13v-.05s0,.05,0,.05Z"/>
          <path class="cls-3" d="m73.53,95.15c-.03-.09-.06-.24-.07-.13v.11s.05,0,.07.02Z"/>
          <path class="cls-3" d="m71.54,95.66s0,.02,0,.03c.01-.04.02-.07.03-.1-.01.02-.03.04-.04.07Z"/>
          <path class="cls-3" d="m71.48,96.11l-.05-.07s.02.05.05.07Z"/>
          <path class="cls-3" d="m68.71,96.15l-.04.11s.03-.05.04-.11Z"/>
          <path class="cls-3" d="m75.19,95.29s-.06-.06-.08-.07c.04.06.06.16.08.07Z"/>
          <path class="cls-3" d="m69.91,94.96s-.03.04-.03.06c.02-.02.03-.04.03-.06Z"/>
          <path class="cls-3" d="m75.02,95.21s.01.02.02.03c.03-.02.05-.03.08-.02-.03-.05-.06-.08-.1,0Z"/>
          <path class="cls-3" d="m64.96,95.8s0,0,0-.01c0,.01,0,.02,0,.01Z"/>
          <path class="cls-3" d="m63.94,94.63s.03,0,.05,0c0,0-.02,0-.05,0Z"/>
          <path class="cls-3" d="m75.92,95.25s0-.01,0,0h0Z"/>
          <path class="cls-3" d="m76.01,95.69s-.01.03-.01.05c0-.03,0-.04.01-.05Z"/>
          <path class="cls-3" d="m74.73,95.87s0,0,0,0c0,.02,0,.02,0,0Z"/>
          <path class="cls-3" d="m75.95,95.31s-.02-.03-.03-.03c0,0,.01.02.03.03Z"/>
          <path class="cls-3" d="m75.95,95.25s.01,0,.02.01c0-.02,0-.03-.02-.01Z"/>
          <path class="cls-3" d="m75.88,95.26s.03,0,.04.01c0,0,0-.01,0-.02,0,0-.02,0-.03,0Z"/>
          <path class="cls-3" d="m66.99,95.65s0,0,0-.01c-.03.04-.02.04,0,.01Z"/>
          <polygon class="cls-3" points="72.82 96.23 72.82 96.22 72.82 96.22 72.82 96.23"/>
          <path class="cls-3" d="m72.72,96.3c.05-.13.07-.11.09-.08v-.31s-.09.4-.09.4Z"/>
          <path class="cls-3" d="m69.3,96.11l.06.1c-.09.15-.14.1-.09.24.03-.34.24-.02.28-.36l.04.07s-.01.02-.03.01c.07.17.08-.24.18-.19.03.03.06.08.03.12l.09-.08s.01.07,0,.06l.12-.02h0s.07-.12.09-.16c.03.05-.02.03-.01.08l.07-.08c.02.09-.04.17-.09.16.04.34.06-.08.18.13l-.07.04c.03.19.08.13.15.25-.01-.06-.12-.31-.04-.39.02.03.05.04.09-.02,0,.12.03.09.08.09v.16s.04-.12.08-.19c.06.02.06.14.07.25.09.03-.05-.2.06-.23.07.07.13,0,.23-.08.05.06-.02.1,0,.14l.06-.12s0,.04,0,.06c.04-.05.01-.16.08-.2.03-.17.11.27.2.07.02.05-.02.1-.01.16.12-.12.1-.09.2-.26l.07.11c-.05-.12.03-.26.1-.37-.02-.06-.03-.11-.04-.14l.1-.08s0,.08-.02.15c0-.01.01-.03.02-.04.03.06,0,.15-.02.24,0-.03-.02-.07-.03-.1-.03.1-.06.2-.06.29,0-.02.02-.03.04-.04,0,.03-.01.05-.01.07,0,.02.01-.02.03-.06v.18s.02-.07.02-.07l.12.12c.1-.17.2-.43.36-.49-.05.13-.02.21-.04.37-.03-.17-.12.06-.19.02.04.02.02.09.01.12l.15-.14c-.01.13.02.1.05.15,0-.25.11-.16.17-.23,0,.08-.02.17-.09.14.06.19.12-.29.18-.12-.02,0-.02-.01-.03.03.04-.07.13,0,.11.07h-.02c.11.04.33.03.36-.19,0,.03-.03.25-.04.3l.24-.7c-.03.18,0,.62-.09.72.02.03.05.06.11,0-.02-.03-.03-.27,0-.28.05.21.04.11.11.29-.02-.04.03-.32.07-.31,0,.04-.02.28-.03.31l.12-.27s-.02.24,0,.32c0-.06.09.01.12-.01l-.04-.07c.12.05.14-.39.26-.36-.02.06-.06.35,0,.39.04-.14.17-.68.28-.79v.08s.1-.09.1-.09c-.06.21-.23.66-.32.83.04.07,0,.1.07.09.02.08-.04.11-.06.12l.15.06c0-.17.13-.16.13-.3l-.18.16c0-.17.13-.47.24-.43.02.07-.04.3-.04.35.02-.06.11-.1.12-.06l-.05.09c.06.07.11-.22.18-.05.02.01.06.22.07.12-.03-.19,0-.79.04-.93,0,.01.12.19.14.29.03.15-.09.35-.06.48,0-.05.03-.1.04-.12.02.04-.02.14.04.12.02-.17.12.02.04-.14.06-.04.06.04.12.04-.01-.11.09-.37.14-.41,0,.04,0,.1,0,.13.11.02.17.1.28.11,0,.04.06.1.03.17.02-.03.04-.09.07-.09.05.15-.08.02-.04.2.01-.1.1-.13.15-.19,0-.15-.11-.04-.16.02.01-.21.11-.43.23-.51.09-.05.03.14.05.11.17.05.17-.36.3-.2.05.14-.02.27-.01.36-.08.05-.11-.09-.16-.09l.06.07s-.08.07-.1.03c.04.12.28.04.4.16.03-.04.07-.09.05-.14l-.04.02c-.03-.11.09-.14.04-.2.06-.07.13-.19.2-.12v.15s-.04-.09-.07-.05c.04-.07.1.22.15.02l-.05-.11c.06-.07.14-.23.21-.18-.02-.15-.02.02-.05-.16.03.22-.17-.02-.12.21-.04-.21-.08-.09-.13-.27,0,.05.02.1-.04.07,0,.01-.01.03-.02.04,0,0,0,0,0,0,0,0,0,0,0,0,0,0,0,0,0,0,.01.02.02.05.02.08-.04.11-.13.1-.16.16-.03-.03.02-.06,0-.11l-.05.09c0-.11-.08-.19,0-.25h-.07c-.04-.08-.1-.1-.13-.06-.03-.03-.09.12-.06.03l-.12.06v-.03c-.11-.02-.24.17-.36-.04-.04.03-.08.06-.14.02v-.1c-.06.03-.14-.11-.17,0-.03-.26-.23-.07-.31-.13v.13c-.07-.01-.13.02-.21.07v.11c-.07.09-.16-.09-.26-.09,0-.04.03-.03.05,0-.1-.26-.26.17-.36-.02-.03.04-.05.02-.06,0,0,0,0,0,0,0,0,0,0,0-.01,0-.01-.02-.02-.04-.03-.06,0,.03.02.05.03.06-.02,0-.05.01-.09.04v-.12s0,0-.01,0c-.03-.05-.03.06-.02.15-.02.02-.03.04-.05.07-.01-.2-.09.06-.1-.15-.03.1-.16.07-.19.28,0-.03,0-.04,0-.04-.03-.03-.07-.05-.1,0v-.15s-.09.2-.09.2c-.04-.1-.05-.15,0-.27-.12.17-.09.06-.2.23v-.1s-.08.13-.1.05c-.06-.19-.36-.05-.54-.24.02.29-.08-.14-.1.09,0-.07-.03-.11,0-.17-.1.06-.14-.12-.22.07,0-.07.03-.1.02-.14,0,.01-.03.06-.04.02,0-.04.02-.06.04-.09-.1,0-.12.22-.15.41-.04-.1-.07-.09-.11.04-.01-.07-.04-.14.03-.16-.03-.01-.21-.11-.22.05,0-.04-.05-.02-.06,0-.08-.01-.08-.03-.16-.02l.02.03c-.04.19-.07.04-.13.06v-.02c-.13-.15-.06.06-.19-.11v.12c-.03.26-.11-.16-.2-.07l.02.07c-.05.09-.1-.36-.14-.39,0-.02.02-.03.03-.05-.11-.16-.03.16-.11.19-.01-.09.04-.21-.02-.23-.02-.07-.19.26-.26.1.01.07.03.13-.02.18-.06.02-.15-.26-.22-.06,0-.02,0-.04,0-.05-.05.05-.16.08-.19.19-.01-.42-.31.18-.28-.2h-.15s0-.03,0-.03c-.09-.03-.13.06-.17.15-.02-.03,0-.06,0-.08-.13-.09-.14-.07-.27.11v-.12c-.04.07-.19-.21-.33-.07,0-.01,0-.04.02-.05-.16.13-.33-.37-.42.08l-.11.1c.12.04-.03.19.01.27-.05.02-.12-.14-.06-.16v.02c.05-.23-.14-.09-.13-.25-.25,0-.49-.15-.72-.18v.18s-.07-.02-.07-.02c-.02-.04-.02-.14.04-.13-.02-.11-.1.08-.11.12-.11-.08.06-.21.02-.22h-.05s0,.03,0,.03c-.04.07-.05.15-.12.14-.04-.04-.02-.11-.03-.12,0-.01,0-.02-.03,0l-.1-.02.03.15c-.05.07-.1-.01-.06.15-.05-.26-.38-.12-.42-.2-.07.1-.13.09-.21.08.02.03.02.19-.05.17.05-.33-.11-.15-.15-.4.04.16-.19.03-.13.26-.05-.03,0-.13-.03-.21-.14.12-.29-.1-.46-.07,0,.04.02.11-.02.18l-.07-.23s-.05.25-.1.09c0,.04.01.09,0,.11-.31-.24-.68.13-.98-.3.04.09,0,.09-.03.1.02.02,0,.11,0,.17l-.13-.17c-.04.16-.15,0-.17.16l.05-.03c-.07.18.05.42.03.66.08-.21.15.33.28.03.02.05-.03.08-.02.13.03-.1.07-.12.13-.07v.02c.16-.01.23.09.42.17v-.12s.04.06.06.09c.06-.18-.11-.02-.06-.21.04.24.29.02.31.3.06,0,0-.14.05-.13v.08s.03-.09.03-.09c.04.02.05.11.05.18,0,0-.03.02-.04.02.05.09.15-.02.17.01l-.06-.05c.18-.06.38.05.56-.08v-.06c.13-.09.09.07.23.03h0s.07-.07.11-.06c-.04.06.06.13,0,.2.15-.1.07-.08.18-.28v.09c.05-.08.06-.13.13-.14-.06.08.03.14-.04.24.13.21.23-.19.28.11.08-.25-.12-.15-.08-.2-.03-.09.07-.19.11-.16.05,0,.06.33.18.34-.01,0-.01.02-.03.02.04.07.09-.08.14.03.04-.15.07.01.09-.18l-.11.04c.06-.05.14-.27.23-.16-.01.04-.04.09-.07.12.03.06.06-.03.09.03-.02.2-.13.03-.21.18.03.09.13-.13.09.08.07-.27.11.04.21-.16v.12s.03-.07.05-.07l-.05.15c.07-.13.12.12.18.06-.13,0-.02-.14-.07-.23.17-.15.07.32.25.27-.03.02-.09-.08-.04-.13.03.03.07.08.09.14.12-.02,0-.12.05-.19.03.15.06-.05.12-.1v.12c.12.09.05-.25.16-.15l-.06.16.07-.04-.02.14c.08-.1.1-.07.16-.03,0-.09.02-.22.08-.22.04.07-.03.11.06.1-.02.07-.05.17-.08.05,0,.04-.02.07-.03.11.04.09.11.03.14.03-.01,0-.03-.01-.03-.03l.13-.16s0,.08-.02.12c.03-.01.05-.07.08-.07-.02.1-.02.2-.08.24l.12-.1s.05.12.03.16c.06.06.17-.18.25-.1,0-.02.02-.04.04-.05.08.03.14.15.25.03l.04.18c.08-.03-.06-.23.07-.28.09-.05.02.15.05.2.05-.09.14-.26.21-.11-.03.03-.05,0-.07.02Zm.93-.01s-.06.1-.07.03c.03-.14.04-.07.07-.03Zm1.43-.19s-.04.02-.06-.03c.02,0,.04,0,.06.03Zm3.98-.57s0,0,0,0c-.04-.05-.02-.03,0,0Zm.08.06s.01-.03,0-.05c0,.03-.03.03-.05.02,0,.03.01.05.04.03Zm-8.94-.57v.03s-.01,0,0-.03Z"/>
          <path class="cls-3" d="m71.49,96.05s0-.04,0-.07c0,.02-.01.04,0,.07Z"/>
          <path class="cls-3" d="m68.72,96.13s0,0,0,0c0,0,0,.01,0,.02v-.02Z"/>
          <path class="cls-3" d="m74.36,96.32s-.02-.04-.03-.06c0,.03,0,.05.03.06Z"/>
          <path class="cls-3" d="m76.18,95.22l-.06.03s.03.02.05.04c0-.03,0-.07.01-.07Z"/>
          <path class="cls-3" d="m76.59,95.99s.02,0,.03-.01v-.06s-.06.04-.03.07Z"/>
          <path class="cls-3" d="m76.2,95.62c0,.1.03.07.07.05,0,0,0,0,0,0,.02-.14-.02-.1-.07-.05Z"/>
          <path class="cls-3" d="m76.28,95.67s.02,0,.03,0c0-.06-.01-.01-.03,0Z"/>
          <path class="cls-3" d="m75.83,95.33s.02-.13.03-.09c.03-.13-.13.15-.03.09Z"/>
          <polygon class="cls-3" points="76.2 95.96 76.2 95.83 76.17 95.93 76.2 95.96"/>
          <path class="cls-3" d="m75.92,95.84l.06.04s0-.03.02-.04c-.04,0-.08-.03-.08,0Z"/>
          <path class="cls-3" d="m75.99,95.84s.04,0,.05-.02c-.01,0-.03,0-.05.02Z"/>
          <polygon class="cls-3" points="76.12 95.99 76.1 95.96 76.06 95.95 76.12 95.99"/>
          <path class="cls-3" d="m75.28,95.78l-.07.03s0,.07.03.05c.02-.03.04-.04.04-.09Z"/>
          <path class="cls-3" d="m75.45,96.13s-.02-.06-.02-.1v.15s.02-.06.02-.06Z"/>
          <path class="cls-3" d="m75.26,96.15s-.1.12-.02.11c0-.04.08-.07.02-.11Z"/>
          <polygon class="cls-3" points="74.29 95.89 74.31 95.89 74.32 95.64 74.29 95.89"/>
          <path class="cls-3" d="m73.38,96.44c.07.07.03-.16.09-.07.02-.06-.05-.07-.03-.12-.05.06-.07.02-.06.19Z"/>
          <path class="cls-3" d="m73.45,96.25s.02-.02.03-.04c-.01.01-.02.03-.03.04Z"/>
          <polygon class="cls-3" points="63.77 94.48 63.72 94.43 63.75 94.52 63.77 94.48"/>
          <path class="cls-3" d="m63.66,94.67v-.16s-.04.14-.04.14c.01,0,.03-.02.04.02Z"/>
          <path class="cls-3" d="m70.35,96.43v-.04s0-.05-.03-.05l.03.09Z"/>
          <polygon class="cls-3" points="69.68 96.26 69.69 96.27 69.68 96.12 69.68 96.26"/>
          <path class="cls-3" d="m69.1,96.41s.05-.02.07-.02c-.05.02-.07-.17-.07.02Z"/>
        </g>
      </g>
      <g>
        <path class="cls-3" d="m79.31,174.74c.09,0,.05-.1.07-.11-.14.02-.06.14-.07.11Z"/>
        <polygon class="cls-3" points="77.9 174.98 77.92 174.94 77.72 175.04 77.9 174.98"/>
        <path class="cls-3" d="m76.58,174.98c.12.18.48-.03.71.03l.04.04.11-.14c-.29.02-.66.12-.86.07Z"/>
        <path class="cls-3" d="m75.88,174.59c.04.07-.15.06.16.02-.02,0-.02-.01-.03-.02-.03,0-.07,0-.13,0Z"/>
        <path class="cls-3" d="m76.01,174.6c.14,0-.09-.06,0,0h0Z"/>
        <path class="cls-3" d="m75.37,174.64l.18-.06s-.2-.05-.14-.08c-.19.03-.15.07-.04.14Z"/>
        <path class="cls-3" d="m75.19,174.77l.09-.03s-.04-.02-.09.03Z"/>
        <path class="cls-3" d="m75.49,174.69l-.2.06s.03.09.09-.02c-.02.05.02,0,.11-.04Z"/>
        <path class="cls-3" d="m75.6,174.71c.1.04.24.06.05.12.35-.02.3-.15-.05-.12Z"/>
        <path class="cls-3" d="m76.51,175.17l.14.05.12-.06c-.06.03-.26-.05-.26,0Z"/>
        <path class="cls-3" d="m74.23,174.55s.06.1.08.15l.14-.04c-.07-.03-.2-.05-.21-.11Z"/>
        <path class="cls-3" d="m74.3,174.7l-.2.07c.18,0,.21-.02.2-.07Z"/>
        <polygon class="cls-3" points="75.16 174.97 75.49 174.83 75.1 174.97 75.16 174.97"/>
        <polygon class="cls-3" points="73.46 174.54 73.57 174.45 73.37 174.59 73.46 174.54"/>
        <path class="cls-3" d="m72.94,174.56c.08-.07-.12-.12-.03-.17-.14.01-.26.08-.37.13.11-.03.23-.02.39.04Z"/>
        <path class="cls-3" d="m72.37,174.6c.06-.02.12-.05.18-.08-.06.02-.12.04-.18.08Z"/>
        <path class="cls-3" d="m73.76,174.74s-.05-.08-.16-.11l.08.11s.05,0,.08,0Z"/>
        <path class="cls-3" d="m73.68,174.74h0c-.09,0-.15,0-.17,0,.02,0,.07,0,.17,0Z"/>
        <path class="cls-3" d="m73.78,174.74s-.01,0-.02,0c0,.01.01.01.02,0Z"/>
        <path class="cls-3" d="m74.63,174.87c-.12.06-.37.12-.13.21.09-.07-.05-.12.13-.21Z"/>
        <path class="cls-3" d="m73.88,174.88l.21.02s-.04-.07.02-.1l-.23.07Z"/>
        <polygon class="cls-3" points="73.77 174.91 73.88 174.88 73.8 174.87 73.77 174.91"/>
        <path class="cls-3" d="m72.74,174.7c-.09.05-.19.05-.31.06.12.02.25.03.37.03.02-.03.07-.09-.06-.09Z"/>
        <path class="cls-3" d="m73.2,174.73s-.01,0-.02,0c.01,0,.02.01.02,0Z"/>
        <path class="cls-3" d="m71.3,174.76s.01.01.02.02c0,0,0-.01,0-.02h-.02Z"/>
        <path class="cls-3" d="m72.82,174.81c.09.02.15,0,.2-.04-.07.01-.14.02-.22.02,0,.02,0,.03.02.02Z"/>
        <path class="cls-3" d="m72.06,174.65s.1.04.16.06c-.05-.03-.14-.09-.16-.06Z"/>
        <path class="cls-3" d="m73.14,174.71s0,0,.01,0c-.03-.02-.03-.01-.01,0Z"/>
        <path class="cls-3" d="m73.14,174.71s-.08.04-.12.07c.06,0,.11-.02.15-.04-.01,0-.02-.02-.03-.03Z"/>
        <path class="cls-3" d="m70.96,175.45c.02-.1.26-.19.47-.08.21-.07.07-.4-.11-.58,0,.04,0,.08-.22.14.07.05.47.13.29.22-.28.05-.23-.04-.37-.09.12.12-.36.18-.3.36l.25-.06s-.08.07-.02.1Z"/>
        <path class="cls-3" d="m71.72,174.79h.09c-.1-.03-.17-.07-.3-.15-.15.05-.18.09-.19.12h.43s-.03.03-.03.03Z"/>
        <path class="cls-3" d="m72.2,174.78c-.07.11-.28.15-.15.27.26,0,.18-.09.33-.14-.41.03.12-.06-.18-.12.08-.02.15-.02.22-.03-.07-.01-.15-.03-.21-.05,0,0,0,0,0,0h0s0,0,0,0c.02.01.02.02,0,.01,0,0,0,0,0,0,0,.02-.01.03-.02.04-.12-.02-.02-.03.02-.04,0,0,0-.01,0-.02,0,0,0,0,0,0l-.41.06c.09.02.2.01.39,0Z"/>
        <path class="cls-3" d="m74.28,175.32s-.01-.02-.01-.03c-.03.01-.04.02.01.03Z"/>
        <path class="cls-3" d="m74.11,175.25s.06-.06.15-.05c.08.03,0,.05,0,.09.06-.03.21-.08.02-.13h-.03c-.17-.02-.38-.16-.35-.17.05.1.09.17.2.26Z"/>
        <path class="cls-3" d="m73.15,175.04l-.35.05.18.09v-.06c.19.02.14-.05.17-.09Z"/>
        <polygon class="cls-3" points="71.26 174.71 71.31 174.59 71.11 174.75 71.26 174.71"/>
        <polygon class="cls-3" points="70.81 174.72 70.83 174.62 70.71 174.68 70.81 174.72"/>
        <path class="cls-3" d="m45.5,175.95l-.1.03s.08-.02.1-.03Z"/>
        <path class="cls-3" d="m46.24,175.95l.02-.05s-.05.05-.02.05Z"/>
        <path class="cls-3" d="m59.8,174.73c-.15-.09-.31-.24-.29-.12l.05.11c.1-.02.18,0,.25.02Z"/>
        <path class="cls-3" d="m52.25,175.38s.03.02.04.03c.04-.04.07-.07.1-.1-.04.02-.09.05-.14.07Z"/>
        <path class="cls-3" d="m52.15,175.83l-.19-.07s.11.05.19.07Z"/>
        <path class="cls-3" d="m41.49,176.06l-.12.11c.19,0,.1-.06.12-.11Z"/>
        <path class="cls-3" d="m66.22,174.76c-.13-.04-.23-.06-.32-.07.15.06.28.16.32.07Z"/>
        <path class="cls-3" d="m45.79,174.8c-.06.02-.09.04-.09.07.06-.02.1-.04.09-.07Z"/>
        <path class="cls-3" d="m65.53,174.69s.04.02.07.03c.09-.02.19-.03.3-.03-.11-.05-.24-.07-.37,0Z"/>
        <path class="cls-3" d="m26.95,175.97s-.02,0-.03-.01c0,.01.01.02.03.01Z"/>
        <path class="cls-3" d="m22.71,174.88s.11,0,.17,0c-.03,0-.08,0-.17,0Z"/>
        <path class="cls-3" d="m69.01,174.67c.1,0,.02-.01,0,0h0Z"/>
        <path class="cls-3" d="m69.47,175.1s-.04.03-.04.05c0-.03.02-.04.04-.05Z"/>
        <path class="cls-3" d="m64.59,175.37s0,0,0,0c.03.02.02.02,0,0Z"/>
        <path class="cls-3" d="m69.15,174.72s-.08-.02-.12-.03c.02,0,.06.02.12.03Z"/>
        <path class="cls-3" d="m69.13,174.67s.06,0,.08.01c.01-.02,0-.03-.08-.01Z"/>
        <path class="cls-3" d="m68.88,174.68c.05,0,.11,0,.15.01-.02,0-.03-.01-.02-.02-.03,0-.07,0-.13,0Z"/>
        <path class="cls-3" d="m34.74,175.68s-.01,0-.02-.01c-.1.05-.05.04.02.01Z"/>
        <path class="cls-3" d="m57.32,175.86s0,0,.01,0c0,0-.01,0-.01,0h0Z"/>
        <path class="cls-3" d="m56.98,175.94c.15-.14.23-.12.34-.09l-.11-.31-.23.4Z"/>
        <path class="cls-3" d="m43.75,175.98l.24.1c-.29.16-.5.11-.27.24.03-.34.93-.03.97-.37l.16.07s-.05.02-.1.01c.31.16.23-.25.62-.2.14.03.23.08.14.12l.31-.08c.09,0,.07.07-.02.06l.47-.03h0c.07-.04.22-.13.29-.16.12.05-.06.04-.03.08l.26-.08c.11.09-.11.17-.29.16.24.34.22-.09.74.11l-.25.04c.16.19.35.12.63.24-.07-.06-.56-.3-.27-.39.08.03.18.04.34-.03,0,.12.15.09.34.08v.16c.19-.05.17-.13.29-.2.22.02.27.14.32.24.36.03-.25-.2.18-.23.3.06.51,0,.86-.1.21.06-.04.1.04.14l.19-.13s.03.04.02.06c.16-.05.01-.16.26-.2.07-.18.5.26.81.06.07.05-.04.1-.01.16.42-.13.36-.1.7-.27l.29.1c-.21-.12.06-.26.3-.38-.08-.06-.14-.11-.18-.13l.38-.09s0,.08-.05.15c.03-.01.05-.03.07-.04.14.06.07.15-.03.24-.05-.03-.09-.07-.14-.1-.09.1-.18.2-.16.3.02-.02.07-.03.13-.04-.02.03-.04.05-.03.07.01.02.05-.02.12-.06l.09.18.02-.07.5.11c.36-.18.67-.44,1.24-.52-.14.13-.03.21-.04.37-.15-.16-.44.07-.73.04.15.02.12.09.08.12l.52-.15c-.01.13.11.09.25.15-.1-.25.39-.17.6-.24.01.08-.04.17-.3.15.29.19.37-.29.65-.13-.06,0-.1-.01-.12.03.15-.07.51-.02.43.06h-.06c.42.03,1.29,0,1.35-.21,0,.03-.06.26-.08.3l.75-.72c-.07.18.19.62-.16.72.1.03.23.06.44,0-.07-.03-.17-.26-.08-.28.26.2.18.11.5.28-.1-.04.01-.33.17-.32-.03.04.01.28-.05.31l.4-.28c-.1.05-.02.24.07.32-.04-.06.35,0,.46-.02l-.17-.07c.46.04.45-.4.9-.38-.05.06-.14.36.09.39.11-.14.47-.69.87-.8l.08.08.31-.09c-.19.22-.73.67-1.02.85.17.07.05.1.3.09.09.08-.14.12-.21.12l.6.05c-.03-.17.46-.17.43-.31l-.65.17c-.03-.17.37-.48.8-.45.11.07-.08.3-.07.36.05-.06.4-.11.44-.07l-.18.09c.24.06.38-.22.67-.06.1.01.29.22.31.12-.16-.19-.19-.79-.08-.93.03.01.51.18.62.28.16.15-.24.36-.1.49,0-.05.09-.1.13-.12.1.04-.04.14.18.12.04-.17.45.01.11-.14.22-.05.23.04.49.03-.08-.11.23-.37.45-.42-.01.04.04.1.06.13.45.02.69.09,1.1.09.04.04.24.09.15.16.06-.03.11-.09.24-.09.25.15-.29.02-.1.2.02-.1.33-.14.51-.2-.06-.15-.42-.03-.61.03,0-.21.32-.43.75-.53.35-.05.15.14.21.11.65.04.55-.37,1.09-.22.21.13,0,.27.06.36-.28.05-.43-.09-.62-.08l.23.06c-.09.04-.28.08-.38.04.18.12,1.1.02,1.6.13.09-.05.24-.09.17-.15l-.16.02c-.15-.11.3-.15.1-.2.21-.08.45-.2.75-.13l.06.15s-.2-.09-.28-.04c.12-.07.46.21.6,0l-.21-.11c.21-.08.48-.24.74-.19-.12-.15-.06.02-.25-.16.16.22-.68,0-.42.22-.19-.21-.33-.09-.59-.26,0,.05.09.1-.13.07-.01.01-.03.03-.05.04,0,0,0,0-.02,0,0,0,0,0,.01,0,0,0-.01,0,0,0,.05.02.1.05.11.08-.11.12-.46.11-.58.17-.13-.02.06-.06-.02-.11l-.18.09c-.02-.11-.35-.19-.04-.25h-.28c-.16-.07-.39-.09-.53-.05-.13-.02-.33.12-.22.04l-.44.07v-.03c-.44-.01-.9.19-1.39-.02-.15.03-.3.06-.54.03l-.05-.1c-.19.03-.56-.1-.64,0-.2-.26-.91-.06-1.24-.1v.13c-.24,0-.46.03-.74.08l.02.11c-.24.09-.62-.08-1.01-.07.03-.04.12-.03.19,0-.46-.25-.97.18-1.38,0-.1.04-.18.03-.25,0,0,0,.02,0,.03,0-.01,0-.03,0-.04,0-.05-.02-.09-.04-.14-.06.04.03.08.05.12.06-.08,0-.2.02-.32.04l-.05-.12s-.02,0-.03,0c-.12-.04-.09.06-.03.15-.06.02-.11.04-.16.07-.09-.19-.31.07-.44-.14-.08.1-.6.08-.66.29,0-.03-.04-.04.03-.04-.13-.02-.26-.05-.38.01l-.06-.15-.29.21c-.18-.09-.25-.15-.07-.27-.42.18-.34.07-.7.25l.02-.1c-.13,0-.33.14-.41.05-.29-.19-1.42-.03-2.15-.2.14.29-.34-.13-.37.1-.04-.07-.15-.11-.03-.17-.38.07-.56-.11-.82.08-.04-.07.08-.1.04-.14-.03.01-.12.06-.16.02-.04-.04.05-.06.11-.09-.38.01-.42.22-.45.42-.19-.09-.29-.08-.43.05-.07-.07-.18-.13.06-.16-.13,0-.82-.1-.83.06-.04-.04-.19-.01-.22,0-.3,0-.33-.02-.62,0l.08.03c-.12.19-.25.04-.48.07v-.02c-.54-.14-.23.07-.77-.09l.03.12c-.05.26-.48-.15-.79-.05l.11.07c-.17.09-.48-.35-.65-.38-.04-.02.06-.04.11-.05-.45-.15-.06.16-.39.19-.06-.08.08-.22-.15-.23-.11-.07-.65.28-.96.11.07.07.13.13-.02.18-.24.02-.64-.25-.86-.04-.03-.02-.04-.03-.04-.05-.18.05-.59.09-.7.2-.17-.41-1.13.2-1.13-.18l-.56.02v-.04c-.34-.03-.47.07-.6.16-.08-.03-.02-.06-.02-.08-.52-.08-.58-.06-1.01.13l-.05-.12c-.12.07-.76-.19-1.27-.05,0-.01.02-.04.06-.06-.58.15-1.38-.34-1.59.11l-.38.11c.49.04-.07.2.13.27-.19.03-.5-.14-.26-.16l.04.02c.09-.24-.61-.08-.6-.24-.97.01-1.91-.12-2.82-.13l.1.18h-.32c-.08-.05-.11-.15.11-.15-.12-.1-.38.09-.39.13-.44-.07.17-.21.04-.22h-.18s.04.04.04.04c-.15.07-.16.15-.43.14-.17-.04-.09-.11-.16-.12,0-.01-.02-.02-.1,0l-.4-.02.16.14c-.18.07-.38,0-.19.16-.27-.25-1.49-.09-1.65-.17-.25.11-.49.1-.8.09.08.03.12.19-.14.17.1-.33-.48-.15-.69-.39.19.16-.74.04-.45.27-.22-.03-.01-.13-.18-.2-.52.13-1.14-.08-1.79-.04,0,.04.1.11-.04.18l-.34-.22c-.13.02-.12.25-.35.1.03.04.08.09,0,.11-1.26-.21-2.57.18-3.84-.23.17.09.06.09-.07.1.09.02,0,.11.01.17l-.53-.17c-.1.17-.57.01-.63.17l.17-.03c-.23.19.31.41.28.65.25-.21.66.31,1.08.01.09.05-.08.08-.03.13.1-.1.23-.12.47-.08l-.03.03c.66-.03.94.08,1.68.14l-.05-.12c.16.02.19.05.27.08.18-.18-.45-.01-.28-.21.21.24,1.12,0,1.26.28.24,0-.07-.14.17-.14l.06.07.06-.1c.16.02.24.11.25.17-.04,0-.11.02-.15.02.21.09.59-.03.66,0l-.24-.05c.67-.07,1.48.03,2.13-.12l-.05-.06c.49-.1.39.06.94.01h-.02c.11-.04.25-.07.4-.06-.14.07.26.13.08.2.53-.11.26-.09.62-.29l.08.09c.12-.08.13-.13.4-.15-.22.08.17.14-.08.25.57.2.84-.2,1.1.09.26-.26-.49-.14-.34-.2-.12-.08.21-.19.39-.17.18,0,.31.33.76.32-.05,0-.05.02-.09.02.17.07.33-.09.54.02.12-.16.27,0,.31-.19l-.42.05c.24-.05.46-.28.85-.17-.03.04-.15.09-.23.12.11.06.22-.04.34.02-.03.2-.51.04-.76.19.12.08.48-.14.35.07.18-.27.45.03.76-.17l-.02.12s.15-.07.24-.07l-.16.15c.25-.13.48.11.72.04-.5,0-.11-.14-.32-.23.62-.16.36.31,1.05.25-.09.02-.35-.07-.21-.13.13.02.31.07.39.13.46-.02-.07-.12.12-.19.16.14.23-.06.43-.11v.12c.52.08.14-.25.61-.16l-.2.17.25-.04-.05.14c.27-.1.35-.08.61-.04-.06-.08.03-.22.27-.22.16.07-.09.11.24.1-.07.08-.16.17-.3.06-.01.04-.07.08-.09.11.17.08.43.02.55.02-.05,0-.1-.01-.13-.03l.48-.17c.07.05.02.08-.04.12.1-.01.16-.07.3-.08-.04.1-.03.2-.23.25l.45-.11s.23.12.17.15c.25.06.62-.19.95-.11.02-.02.05-.04.12-.05.31.02.59.14.96,0l.21.18c.29-.04-.29-.22.2-.29.34-.06.13.15.25.2.17-.09.47-.27.78-.13-.1.03-.19,0-.28.02Zm3.59-.08c-.07.03-.21.1-.26.03.08-.14.14-.07.26-.03Zm5.45-.29c-.05.04-.13.02-.22-.03.07,0,.14,0,.22.03Zm15.18-.84s0,0,0,0c-.15-.05-.1-.03,0,0Zm.32.05s.03-.03.02-.05c-.02.03-.09.03-.18.02.02.03.06.05.16.03Zm-34.56.05l.06.03c-.14.03-.1,0-.06-.03Z"/>
        <path class="cls-3" d="m52.16,175.78s-.03-.04-.03-.07c-.03.02-.03.04.03.07Z"/>
        <path class="cls-3" d="m41.52,176.04s0,0-.01,0c0,0,0,.01-.01.02l.02-.02Z"/>
        <path class="cls-3" d="m63.3,175.85c-.07-.02-.1-.04-.13-.06,0,.03.03.05.13.06Z"/>
        <path class="cls-3" d="m69.99,174.62l-.21.03c.1,0,.14.02.19.04,0-.03-.04-.07.02-.07Z"/>
        <path class="cls-3" d="m71.78,175.36s.06,0,.09-.02v-.06c-.14,0-.23.05-.09.07Z"/>
        <path class="cls-3" d="m70.18,175.02c.02.1.15.07.29.05,0,0-.02,0-.03,0,.04-.14-.11-.09-.26-.05Z"/>
        <path class="cls-3" d="m70.51,175.06s.09,0,.13,0c.02-.06-.05-.01-.13,0Z"/>
        <path class="cls-3" d="m68.7,174.76c.07.03.04-.13.08-.09.08-.13-.46.16-.08.09Z"/>
        <polygon class="cls-3" points="70.3 175.35 70.25 175.23 70.17 175.33 70.3 175.35"/>
        <path class="cls-3" d="m69.16,175.26l.23.03s.03-.03.06-.04c-.14,0-.3-.03-.29,0Z"/>
        <path class="cls-3" d="m69.45,175.25c.07,0,.14,0,.19-.02-.04,0-.13,0-.19.02Z"/>
        <polygon class="cls-3" points="69.99 175.39 69.92 175.36 69.75 175.36 69.99 175.39"/>
        <path class="cls-3" d="m66.68,175.24l-.25.04s.04.07.14.05c.06-.03.15-.05.12-.09Z"/>
        <path class="cls-3" d="m67.44,175.58c-.07-.03-.07-.05-.11-.1v.16s.11-.06.11-.06Z"/>
        <path class="cls-3" d="m66.71,175.62s-.37.12-.05.11c.03-.04.28-.08.05-.11Z"/>
        <polygon class="cls-3" points="62.91 175.42 62.98 175.42 62.97 175.16 62.91 175.42"/>
        <path class="cls-3" d="m59.57,176.03c.3.06.07-.16.34-.08.07-.06-.22-.06-.15-.11-.18.06-.27.03-.19.2Z"/>
        <path class="cls-3" d="m59.76,175.83s.06-.02.09-.04c-.05.02-.08.03-.09.04Z"/>
        <polygon class="cls-3" points="22.01 174.74 21.82 174.69 21.94 174.77 22.01 174.74"/>
        <path class="cls-3" d="m21.64,174.93l-.05-.16-.12.15s.13-.02.16.02Z"/>
        <path class="cls-3" d="m47.86,176.23v-.04s-.06-.05-.15-.05l.15.09Z"/>
        <polygon class="cls-3" points="45.26 176.11 45.31 176.11 45.22 175.96 45.26 176.11"/>
        <path class="cls-3" d="m43.08,176.29c.09,0,.19-.03.28-.02-.19.03-.31-.16-.28.02Z"/>
      </g>
    </g>
  </g>
</svg>