<?xml version="1.0" encoding="UTF-8"?>
<svg id="Capa_2" data-name="Capa 2" xmlns="http://www.w3.org/2000/svg" viewBox="0 0 120.66 162.56">
  <defs>
    <style>
      .cls-1, .cls-2 {
        stroke-width: 0px;
      }

      .cls-2 {
        fill: #fff;
      }
    </style>
  </defs>
  <g id="Capa_1-2" data-name="Capa 1">
    <g>
      <g>
        <path class="cls-1" d="m113.51,139.38v-22.81h-10.84c.19-2.17-2.13-3.9-11.96-2.35l-6.15-37.12h21.39v-10.53h-24.94c7.8-5.47,13.44-13.99,14.98-24.15,3.01-19.76-10.56-38.21-30.32-41.22C45.92-1.82,27.47,11.75,24.45,31.51c-2.14,14.03,4.1,27.41,14.97,35.06H14.5v10.53h17.54c-1.56,10.35-5.11,32.58-7.12,35.01,0,0-3.28,1.49-5.08,4.47h-11.59v22.81H.36v22.81h120.18v-22.81h-7.02Z"/>
        <g>
          <path class="cls-2" d="m114.26,139.98c-.94,0-.6.1-.74.11,1.57-.02.7-.14.74-.11Z"/>
          <polygon class="cls-2" points="120.16 148.59 120.12 148.31 120.22 150.59 120.16 148.59"/>
          <path class="cls-2" d="m119.62,161.81c.14.03.35.05.6.06.03-.42,0-1.78-.01-3-.02-1.25-.04-2.55-.01-3.63l.04-.43-.14-1.16c.02,1.38.04,2.93.05,4.44,0,1.37.02,2.69.03,3.73-.2,0-.39,0-.56-.01Z"/>
          <path class="cls-2" d="m111.93,161.42c.48.07-1.67.06,1.8.02-.17,0-.22-.01-.33-.02-.31,0-.74,0-1.47,0Z"/>
          <path class="cls-2" d="m113.4,161.43c1.53,0-1-.06,0,0h0Z"/>
          <path class="cls-2" d="m106.36,161.47l2.01-.06c-.42-.04-2.21-.05-1.54-.08-2.06.03-1.64.07-.47.14Z"/>
          <path class="cls-2" d="m104.45,161.6l1.04-.03c-.18-.02-.46-.02-1.04.03Z"/>
          <path class="cls-2" d="m107.7,161.52l-2.21.06c.29.03.32.09,1.01-.02-.18.05.26,0,1.19-.04Z"/>
          <path class="cls-2" d="m108.95,161.54c1.13.04,2.58.06.57.12,3.84-.02,3.28-.15-.57-.12Z"/>
          <path class="cls-2" d="m118.91,161.99l1.39.05h.1s-.05-1.05-.05-1.05c.01.28,0,.59,0,.99-.34,0-.69-.01-.94-.01-.31,0-.51,0-.48.02Z"/>
          <path class="cls-2" d="m93.84,161.37c-.13.04.68.1.83.15l1.48-.04c-.76-.03-2.21-.05-2.31-.11Z"/>
          <path class="cls-2" d="m94.67,161.52l-2.22.07c1.98,0,2.35-.02,2.22-.07Z"/>
          <polygon class="cls-2" points="104.09 161.8 107.74 161.66 103.39 161.8 104.09 161.8"/>
          <polygon class="cls-2" points="85.36 161.37 86.62 161.28 84.38 161.41 85.36 161.37"/>
          <path class="cls-2" d="m79.74,161.39c.93-.07-1.28-.12-.29-.17-1.53.01-2.83.08-4.01.13,1.25-.03,2.58-.02,4.3.04Z"/>
          <path class="cls-2" d="m73.47,161.43c.62-.03,1.27-.05,1.97-.08-.66.02-1.32.04-1.97.08Z"/>
          <path class="cls-2" d="m88.67,161.57c-.17-.02-.5-.08-1.75-.11l.87.11c.27,0,.57,0,.87,0Z"/>
          <path class="cls-2" d="m87.82,161.57h-.03c-.95,0-1.6,0-1.89,0,.24,0,.82,0,1.92,0Z"/>
          <path class="cls-2" d="m88.89,161.57c-.08,0-.14,0-.22,0,.08.01.13.01.22,0Z"/>
          <path class="cls-2" d="m98.27,161.7c-1.3.06-4.02.12-1.39.21.94-.07-.57-.12,1.39-.21Z"/>
          <path class="cls-2" d="m89.97,161.71l2.36.02s-.47-.07.17-.1l-2.53.07Z"/>
          <polygon class="cls-2" points="88.82 161.74 89.97 161.71 89.1 161.7 88.82 161.74"/>
          <path class="cls-2" d="m77.51,161.53c-1.02.05-2.13.05-3.39.06,1.35.01,2.74.02,4.07.03.19-.03.77-.09-.68-.09Z"/>
          <path class="cls-2" d="m82.52,161.56c-.07,0-.16,0-.23,0,.14,0,.25.01.23,0Z"/>
          <path class="cls-2" d="m61.73,161.59c.07,0,.13.01.2.02l.05-.02h-.25Z"/>
          <path class="cls-2" d="m78.41,161.64c1.01.02,1.62,0,2.2-.04-.76,0-1.56.01-2.42.02-.08.02-.1.03.23.02Z"/>
          <path class="cls-2" d="m70.01,161.48c.53.02,1.13.04,1.76.06-.52-.03-1.57-.09-1.76-.06Z"/>
          <path class="cls-2" d="m81.95,161.54c.05,0,.1,0,.15,0-.33-.02-.29-.01-.15,0Z"/>
          <path class="cls-2" d="m81.95,161.54c-.52.03-.93.05-1.34.07.62-.01,1.19-.03,1.69-.04-.12-.01-.25-.02-.34-.03Z"/>
          <path class="cls-2" d="m57.97,162.27c.18-.1,2.84-.19,5.15-.08,2.26-.07.78-.4-1.19-.58-.07.04-.07.08-2.4.14.82.05,5.17.13,3.2.22-3.09.05-2.53-.04-4.03-.09,1.28.12-3.93.18-3.25.36l2.71-.06c.05.03-.93.07-.18.1Z"/>
          <path class="cls-2" d="m66.36,161.62h.96c-1.09-.03-1.88-.07-3.32-.15-1.6.05-1.93.09-2.04.12h4.72s-.33.03-.33.03Z"/>
          <path class="cls-2" d="m71.63,161.61c-.75.11-3.05.15-1.64.27,2.81,0,1.97-.09,3.65-.14-4.54.03,1.3-.06-1.98-.12.89-.01,1.7-.02,2.45-.03-.82-.02-1.6-.03-2.35-.05.04,0,.07,0,.1,0h.02s0,0,0,0c.2.01.26.02.04.01-.02,0-.07,0-.09,0-.03.02-.11.03-.21.04-1.32-.02-.21-.03.21-.04.02,0,.05-.01.06-.02,0,0-.01,0-.02,0l-4.55.06c.96.02,2.17.01,4.31,0Z"/>
          <path class="cls-2" d="m94.46,162.15c-.14,0-.13-.02-.15-.03-.29.01-.41.02.15.03Z"/>
          <path class="cls-2" d="m92.58,162.08c.33-.02.61-.06,1.68-.05.93.03,0,.05.04.09.65-.03,2.27-.08.24-.13h-.32c-1.83-.02-4.18-.16-3.86-.17.53.1,1.01.17,2.22.26Z"/>
          <path class="cls-2" d="m81.98,161.87l-3.79.05,1.93.09-.1-.06c2.15.02,1.69-.05,1.96-.09Z"/>
          <polygon class="cls-2" points="61.29 161.53 61.79 161.42 59.61 161.58 61.29 161.53"/>
          <polygon class="cls-2" points="56.37 161.55 56.55 161.45 55.25 161.51 56.37 161.55"/>
          <path class="cls-2" d="m32.8,12.48c.23-.3.47-.59.75-.85-.39.37-.59.65-.75.85Z"/>
          <path class="cls-2" d="m28.08,19.15l-.05.2c.16-.35.22-.49.05-.2Z"/>
          <path class="cls-2" d="m19.82,117.19c.41.12.52-.23.7-.47.08-.11.19-.28.25-.35l.18-.21c.24-.28.49-.52.7-.73.42-.41.72-.64.61-.63l-.42.25c-.37.39-.68.74-.93,1.08-.06.08-.13.16-.19.24-.09.13-.17.25-.25.37-.08.13-.17.25-.25.37-.02.03-.04.06-.06.08h-.12s-.23,0-.23,0Z"/>
          <path class="cls-2" d="m26.36,66.54c-.15-.01-.31-.02-.47-.03-.39.04-.76.07-1.09.1.47-.02,1.01-.05,1.57-.07Z"/>
          <path class="cls-2" d="m27.51,66.09l2.14.07c-.49-.02-1.17-.04-2.14-.07Z"/>
          <path class="cls-2" d="m73.71,2.65l1.26.42c-1.91-.81-1.09-.4-1.26-.42Z"/>
          <path class="cls-2" d="m5.95,161.59c-1.4-.04-2.51-.06-3.49-.07,1.69.06,3.05.16,3.49.07Z"/>
          <path class="cls-2" d="m31.67,15.66c.38-.55.57-.77.53-.77-.44.53-.63.88-.53.77Z"/>
          <path class="cls-2" d="m1.02,160.25c0,.25-.02.49-.03.74,0,.18.01.35.02.54.11,0,.23,0,.35,0,.35,0,.71,0,1.1,0-.44-.01-.92-.03-1.4-.05-.02-.4-.03-.81-.05-1.23Z"/>
          <path class="cls-2" d="m89.22,101.46c.01.12.03.25.05.36.02.03,0-.13-.05-.36Z"/>
          <path class="cls-2" d="m113.04,125.86c0-.46,0-1.2,0-1.91,0,.34,0,.92,0,1.91Z"/>
          <path class="cls-2" d="m36.56,161.5c1.04,0,.17-.01,0,0h0Z"/>
          <path class="cls-2" d="m41.64,161.93c-.22.01-.39.03-.42.05.09-.03.23-.04.42-.05Z"/>
          <path class="cls-2" d="m.34,149.85s0-.06,0-.09c-.02.31-.02.26,0,.09Z"/>
          <path class="cls-2" d="m38.13,161.55c-.39,0-.84-.02-1.34-.03.22,0,.62.02,1.34.03Z"/>
          <path class="cls-2" d="m37.92,161.5c.36,0,.64,0,.91.01.13-.02.02-.03-.91-.01Z"/>
          <path class="cls-2" d="m35.11,161.51c.6,0,1.15,0,1.69.01-.21,0-.29-.01-.24-.02-.31,0-.74,0-1.45,0Z"/>
          <path class="cls-2" d="m84.27,64.42c-.05.04-.11.09-.17.14-.79.71-.43.42.17-.14Z"/>
          <path class="cls-2" d="m29.04,92.51s0,.07-.02.12c0-.05.02-.11.03-.15v.03Z"/>
          <path class="cls-2" d="m29.59,88.8c-.13,1.6-.3,2.49-.53,3.67l.52-1.17.02-2.5Z"/>
          <path class="cls-2" d="m49.05,1.92l-1.3.35-1.26.47c.73-.36,1.42-.67,2.03-.85.61-.21,1.1-.37,1.42-.48.64-.22.6-.23-.64.08-.07.11-.73.35-1.68.68-.93.4-2.12.91-3.32,1.43-1.15.62-2.31,1.22-3.16,1.75-.82.57-1.38,1-1.41,1.12-.5.31-1.02.6-1.5.93.4-.31.47-.35.89-.63-.75.42-1.2.81-1.56,1.12-.36.31-.61.56-.88.82-.27.27-.57.55-1,.96-.4.44-.94.99-1.73,1.75-.28.26-.54.51-.75.72-.2.22-.37.4-.48.53-.23.24-.25.23.07-.19-.7.91-1.46,1.76-2.1,2.71-.57.82-.48.58.09-.23-.97,1.45-2,2.86-2.77,4.43v-.04c-.15.34-.41.89-.68,1.45-.24.57-.44,1.17-.59,1.55-.56,1.2.23-.63.06-.33-.33.9-.75,1.78-1.01,2.7-.22.55-.17.24.01-.44.24-.66.66-1.68,1.05-2.59-1.32,2.38-1.1,2.17-2.65,7.79.18-.9.3-1.81.6-2.67-.4.81-.58,1.77-.84,2.89-.12.56-.27,1.16-.39,1.82-.1.66-.2,1.37-.31,2.15.1-.36.27-1.92.59-2.95.29-1.03.49-1.58.21-.03-.11.43-.21.93-.27,1.55-.06.61-.16,1.32-.18,2.17-.06,0-.1.42-.14,1.09-.01.34-.03.74-.05,1.19.01.45.03.94.04,1.46l-.16-.14c.04,1.13.11,1.64.2,2.04.07.4.14.68.24,1.33.13,1.24.27,1.98.3,2.5.03.48.05.78.07,1.1.93,3.91-.46-2.73.69,1.87.23.8.46,1.53.69,2.25.24.71.54,1.38.82,2.07.6,1.37,1.32,2.78,2.37,4.47,1.16,2.01-.31-.29.09.45l1.24,1.66c.28.42.15.31.09.25,1.06,1.37.2.03,1.89,2.17.15.11.45.44.84.9.38.47.88,1.08,1.48,1.7.3.32.61.65.92.98.34.31.69.63,1.04.95l.53.46.19.16s.09.07.14.11c.2.14.41.28.65.43.25.24-.38-.17-.39-.1.11.08.22.15.32.22.03.03.15.09.1.09h-.12c-.18.02-.33.03-.46.04-.36.02-.61.03-.86.05-.87.04-1.65.07-3.53.15l-3.2-.1c2.35.12-.65.26-3.28.38.84.05,1.55.1,2.02.13l-4.2.09c-.51-.03-.08-.08.6-.15-.29.01-.56.03-.77.04-1.5-.06-.72-.15.35-.24.51.03,1.02.07,1.51.1,1.04-.1,2.01-.2,1.79-.3-.27.02-.8.03-1.38.04.27-.03.44-.05.32-.07-.14-.02-.58.02-1.27.06l-.95-.18-.23.07-5.49-.11c-.7.03-1.39.07-2.08.1-.8.04-1.6.07-2.43.11.06,1.39.12,2.84.18,4.48.05,1.53.1,3.24.12,5.24-.13-1.55-.21-.33-.37-.42.16-1.71-.07-4.81-.04-8.08-.02,1.72-.09,1.33-.12.91l.15,5.76c-.06-.06-.09.24-.1.75-.01.62-.03,1.48-.05,2.39.06-.49.1-.29.13.22.4-.01.97-.03,1.65-.05.52,0,1.12-.01,1.74-.02,1.24,0,2.55-.02,3.43-.04.15.08-.42.17-3.28.15,3.16.19,4.08-.29,7.18-.13-.7,0-1.07-.01-1.35.03,1.63-.07,5.62-.02,4.68.06h-.7c1.13,0,2.58,0,4.11.01-.3,2.09-.63,4.31-.89,6.08-.27,1.9-.44,3.31-.41,3.57-.04.04-.15-.64-.15-.92l-.68,8.27c-.05-.75-.97,1.93-.4-1.87-.21,1.08-.48,2.42-.84,4.72.16-.73.6-1.8.43-.78-.72,2.74-.45,1.91-1.31,5.28.25-1.1.31.19-.08,1.93.02-.28-.31.09-.2-.56-.22,1.46-.45,2.92-.72,4.38.23-1.08-.18-.24-.51.68.06-.17-.06.38-.31,1.15-.12.39-.25.84-.43,1.25-.09.2-.16.45-.26.61-.08.14-.16.28-.24.41-.05.02-.27.14-.43.23-.16.1-.3.18-.41.24l.49-.26.25-.12.14-.06.33-.53c-.11.19-.22.38-.32.55-.08.04-.38.2-.57.31-.21.12-.4.24-.58.36-.36.24-.66.47-.93.7-.54.45-.94.88-1.33,1.33-.38.45-.75.95-1.15,1.58-.09.13-.16.34-.3.44-.19,0-.4.01-.61.02-.46,0-.98,0-1.56.01.6-.06,1.49-.36-1.04-.39-.52.07-1.62.21-3.08.37-.73.08-1.54.15-2.42.22-.79.06-1.62.11-2.48.17l.02.43.02.51-.08.84.09,3.38c-.05-.56-.12-1.37-.21-2.31-.08-.98-.16-2.11-.25-3.26,2.12-.14,4.31-.29,5.85-.39-1.88-.07-.52-.1-3.33-.09-.99-.08,1.53-.12,2.36-.12l-5.51-.04v2.49c.15-.29.16,5,.3,4.75l-.16-7.11h.95c.13.03-.22.08-.82.13.03.47.07,1.08.12,1.81.03.56.06,1.21.1,1.92.06,1.44.1,3.14.08,4.88-.07,1.18-.3-.88-.36-.79.06.6.11,4.4.07,4.82l-.09-1.97c-.06,2.58.22,4.21.06,7.31-.01,1.07-.22,3.2-.12,3.38.19-1.75.79-2.09.93-.92,0,.19-.05,1.52-.1,3.05-.86-.03-1.79-.06-2.59-.09-.72-.04-1.34-.07-1.67-.09-1.76-.15,2.65-.36,1.15-.49-.06.05-1.04.1-1.44.12-1.12-.04.47-.14-1.98-.12-.08.03-.31.05-.6.06-.4,0-.89,0-1.34.01,0,.67,0,1.27,0,1.4,0,.04,0,.04.01-.18,0-.21.02-.59.04-1.18.16,0,.36.01.59.02-.21,0-.4,0-.56,0,.01,1.37,0,1.83,0,2.5-.01.65-.03,1.38-.03,2.69.11-.89.37,2.52.42,4.91-.04-.14-.1.4-.13.66-.04,4.93-.06,7.58-.09,12.17,0,.07,0,.16-.02.29.38.02,1,.05,1.42.06.38.02.56.05.16.08.66-.03,1.26-.09,2.67-.09,2.73.15-3.14.02-1.06.2.18-.1,3.64-.14,5.65-.2-.62-.15-4.63-.03-6.64.03,0-.21,3.49-.43,8.26-.53,3.79-.05,1.64.14,2.3.11,7.12.04,6.07-.37,11.99-.22,2.35.13.11.27.63.36-3.09.05-4.74-.09-6.84-.08l2.58.06c-.98.04-3.05.08-4.17.04,1.97.12,12.04.02,17.53.13.98-.05,2.66-.09,1.86-.15l-1.74.02c-1.6-.11,3.27-.15,1.07-.2,2.33-.08,4.95-.2,8.23-.13l.62.15c-.07-.04-2.15-.09-3.07-.04,1.37-.07,5.04.21,6.54,0l-2.3-.11c2.34-.08,5.24-.24,8.15-.19-1.32-.15-.67.02-2.74-.16,1.79.22-7.45,0-4.57.22-2.12-.21-3.67-.09-6.45-.26.09.05.98.1-1.46.07-.12,0-.37.03-.54.04-.07,0-.1,0-.16,0,.05,0,.09,0,.13,0-.11,0-.12,0,.05,0,.58.02,1.05.05,1.24.08-1.21.12-5.1.11-6.41.17-1.45-.02.61-.06-.19-.11l-1.96.09c-.19-.11-3.85-.19-.44-.25h-3.07c-1.81-.07-4.3-.09-5.83-.05-1.45-.02-3.66.12-2.4.04l-4.82.07-.04-.03c-2.2.02-4.46.04-6.8.06-1.17,0-2.35.01-3.56.02-.6,0-1.21,0-1.82-.01l-.9-.02-.36-.02.02-.23c0-.07.01-.11.02-.36-.03-1.6-.06-3.26-.03-5.94l.1-.52c-.03-2.06.1-6.17,0-7.06.08-.68.12-1.88.13-3.32,0-.72,0-1.5,0-2.31,0-.4,0-.81,0-1.23v-.32s0-.1,0-.1h.12c.2,0,.41,0,.61-.01.5,0,1,0,1.46,0,.94,0,1.79,0,2.49,0l.14-.13c.98,0,1.94,0,2.93,0,0-1.08-.02-2.19-.03-3.36-.01-.94-.03-1.93-.05-3.01l-.11.19c-.09-2.66.08-6.85.07-11.06.04.29.03,1.36,0,2.11.07-1.35.09-2.74.08-4.14,0-.7-.02-1.4-.02-2.1l-.02-1.05-.02-.48.37-.02.85-.02c.59,0,1.17-.01,1.75-.02,1.15,0,2.26,0,3.32.04,1.14-.04,1.96-.03,2.76,0-.11,0-.2,0-.28,0,.12,0,.29,0,.47,0,.57.02,1.15.04,1.78.06-.55-.02-1.08-.04-1.53-.06.22,0,.47,0,.74,0,.16,0,.32,0,.49,0h.34s.17,0,.17,0c.06,0,.12,0,.14-.06.53-.86.8-1.2,1.23-1.71l.45-.3c.07-.07.13-.13.21-.2.93-.78.7-.69.14-.33.46-.44.91-.8,1.27-1.09.21-.09.45-.23.73-.39.14-.08.29-.16.44-.25l.24-.13c.12-.06.24-.12.37-.18.2-.33.34-.57.48-.83.1-.25.2-.5.29-.74.21-.48.34-.94.53-1.31.1-.44.52-2.04.84-3.63.34-1.59.61-3.16.58-3.52.04-.04.12-.41-.01.28.31-1.42.62-2.84.8-4.14l.27-.58.37-3.16c.43-1.88.62-2.66.4-.76.62-4.59.57-3.71,1.04-7.62l.07.21c.22-1.39.45-3.63.66-4.46.1-.47.23-1.16.38-2.02.16-.99.35-2.18.56-3.5-2.6,0-5.78-.01-9.03-.02-1.54,0-3.1-.01-4.61-.02-.76,0-1.5-.01-2.23-.02-.36,0-.72,0-1.08-.01-.19,0-.37-.01-.56-.02,0-.17.01-.33.02-.48-.07.2-.1.21-.11.04,0-.23.01-.8.03-1.37.04-1.17.09-2.58-.02-2.74.07-.47.11-1.6.17-.29,0-1.08,0-2.02-.01-2.87,0-.63.01-1.2.02-1.74.45,0,.88,0,1.32,0,.63-.01,1.26-.04,1.94-.08.47.07-.88.1-.46.14.33-.01,1.31-.06,1.74-.02.42.04-.6.06-1.26.09,4.21-.01,4.63-.22,4.94-.42,2.13.09,3.2.08,4.74-.05.74.07,1.98.13-.63.16,1.47,0,8.99.1,9.14-.06.6.04,2.81.01,3.25,0,.14,0,.27,0,.4,0,.05,0,.16,0,.17,0l-.15-.11c-.19-.15-.38-.29-.55-.42-.35-.27-.66-.51-.95-.73-.29-.22-.55-.42-.8-.61-.24-.18-.52-.42-.65-.54-.66-.59-1.35-1.12-2.47-2.28l.61.65c-.51-.38-1.01-.84-1.57-1.45-.27-.32-.57-.67-.9-1.06-.34-.39-.71-.83-1.09-1.35l.06.05c-.9-1.19-1.37-1.96-1.7-2.47-.33-.51-.53-.77-.69-1.04-.16-.27-.31-.55-.61-1.07-.14-.26-.33-.59-.55-1.02-.2-.44-.44-.97-.74-1.64l.03.34c-.11-.1-.32-.44-.54-.96-.21-.53-.46-1.23-.74-2.01-.23-.8-.48-1.68-.73-2.57-.21-.9-.42-1.8-.62-2.63.03.41.14.81.2,1.21-.3-.89-.39-2.2-.51-3.49-.03-1.31-.06-2.6-.03-3.52.01-.4.05.64.09,1.2,0-2.42-.04-2.57-.1-2.58-.06,0-.16.15-.1-1.66.13-.66.13.86.34-1.55.05-.3.11-.89.18-1.65.08-.76.28-1.69.44-2.69.13-1.01.45-2.04.75-3.03.15-.49.31-.98.45-1.43.16-.45.38-.86.55-1.23-.35.65-.7,1.3-.08-.27.82-2.49,3.44-6.06,4.66-8.04.23-.24.32-.32.34-.33,1.16-1.6,4.22-4.83,5.18-5.56.82-.44,3.21-2.38,5.7-3.74.62-.35,1.23-.69,1.79-1,.59-.25,1.14-.49,1.6-.68.93-.38,1.54-.6,1.56-.51l2.89-.91c.96-.31,1.97-.44,2.96-.66l-.15.07c3.82-.62,5.2-.66,6.57-.74.9.03.24.06.17.08,1.42-.03,2.51.14,3.43.23.92.11,1.67.13,2.37.31,1.41.29,2.75.4,5.04,1.09l.43.27c.31.08.96.26,1.79.66.42.19.89.4,1.41.63.52.22,1.08.47,1.63.81,1.12.65,2.39,1.29,3.55,2.16.59.42,1.21.81,1.79,1.24.56.45,1.12.9,1.66,1.34-.05-.02-.16-.08-.5-.35,1.27.92,2.43,2.2,3.64,3.44,1.07,1.35,2.22,2.68,3.04,4.08.42.69.9,1.31,1.23,1.96.35.64.67,1.24.96,1.79.64,1.06.97,1.98,1.32,2.45.26.64.6,1.24.81,1.9l.66,1.96c-1.54-5.14.42.71-.16-1.43.76,2,1.17,5.35.65,2.8l-.06-.4c-.21-.44.1,1.2.44,2.93.26,1.74.38,3.61.31,3.54.37,5.25-.52,10.51-2.39,15.25-1.87,4.75-4.76,8.98-8.26,12.42l.93-.67-1.22,1.21-1.28,1.15c-.35.28-.62.44-.54.34.08-.09.47-.45,1.37-1.28-.26.2-.57.47-.9.77-.39.34-.8.7-1.18,1.03-.48.4-.92.77-1.26,1.04-.3.25-.46.41-.46.41-.17.13-.33.24-.48.35-.08.05-.15.11-.22.16l-.1.07s-.07.05-.01.04c.29,0,.52.01.71.02.37.01.56.02.59.03.06.02-.48.05-1.22.07-.09,0-.19,0-.29,0h-.15c-.06,0-.12.01-.05-.03.13-.11.27-.21.4-.32.27-.22.53-.42.73-.58.4-.32.57-.46.1-.1l-1.26.96-.16.12s.11,0,.16.01h.41s.82,0,.82,0l-.67-.02c2.64-.07,3.36-.15,6.16-.14,1.89.04.97.11,1.71.12,0,0,.06.01.23.01.17,0,.46,0,.91,0l4.38.02-1.75-.14c1.94-.07,4.12,0,2.1-.16.91.08,2.81.12,5.06.13,2.12,0,4.56,0,6.73.01,0,1.29,0,2.47,0,3.41,0,1.05,0,1.83-.02,2.18.02.75.04,1.49.06,2.24,0,.65.02,1.3.03,1.99-1.2,0-2.47,0-3.86,0,.83.03,1.32.19-1.55.17,1.05-.33-5.25-.15-7.57-.39,2.07.16-8.15.04-4.9.27-2.39-.03-.15-.13-1.96-.2-.57,0-1.15.01-1.76.02.26,1.51.52,3.08.8,4.71.23,1.45.46,2.94.7,4.47.48,3.06.97,6.25,1.52,9.48.06.1-.06-1.07.25.41l.39,3.7c.25,1.37.46,1.22.72,3.75-.02-.36-.05-.9.11.02.31,2,.63,4.02.94,6.04.16,1.01.33,2.03.49,3.04l.28,1.71c-.17,1.11.99.49,1.56.51,2.03-.29,4.08-.5,6.11-.44,1.01.05,2.03.16,2.93.5.43.19.85.41,1.11.75.12.17.22.35.28.55.05.31.06.71.05,1.08,3.6.03,7.2.06,10.79.08-.05,2.04-.09,4.08-.14,6.12.09-1.9.09-.63.1.82.02-.94.11.02.17-.16l-.17,5.86c.17,1.07.01,6.29.17,6.9l-.03-1.86c.19,2.47.41-3.46.65-3.09-.21-2.77.31-7.29.01-11.83.05-1,.08.85.13.32-.04-.44-.07-.92-.08-1.49,0-.29-.01-.59-.02-.93,0-.45,0-.93,0-1.46-.57,0-1.22-.01-1.95-.02l.29-.03c-1.95,0-3.61,0-5.14,0-.77,0-1.51-.01-2.24-.02h-1.1s-.38-.02-.38-.02c-.09-.01-.22.02-.27-.03,0-.09.02-.16,0-.26-.01-.09-.01-.17-.1-.39-.11-.38-.36-.71-.64-.98-.58-.54-1.3-.81-2.04-1.01-1.49-.37-3.15-.41-5.04-.31.2.02.41.06.62.09-1.77.08-2.14.11-2.96.17-.99.21.23.05,1.49-.06,1.26-.12,2.55-.11,1.63,0-.59-.04-1.66,0-2.95.13-.32.03-.66.06-1.01.11-.26.04-.54.07-.81.11-.27.13-.23-.18-.27-.37l-.17-1.01c-.48-2.94-.95-5.8-.94-6.59-.44-2.65,0,.8-.44-1.85l-.04-.71-.21-.65c-.27-1.74-.33-2.63-.27-2.71.06.42.22,1.19.3,1.65-.29-2.27-1.08-6.35-1.18-7.12l.38,2.55c-1.02-6-2.22-13.12-3.27-19.29.9-.02,1.77-.03,2.61-.05l-.54-.06c5.41-.1,4.33.06,10.27.01h-.22c1.19-.04,2.77-.07,4.4-.06-1.5.07,2.82.13.85.2,2.17-.04,3.28-.07,3.89-.08-.04-1.87-.08-1.17-.22-3.81l.09-.89c-.08-1.32-.13-1.43-.15-4.39.08,2.43.14-1.89.25.83.01-.5.03-.97.04-1.42,0-.63.01-1.22.02-1.79-.73,0-1.42,0-2.07,0-.5,0-.97.01-1.42.02-.9.02-1.71.03-2.45.05-1.49.03-2.71.03-3.92-.1-2.86.26,5.38.14,3.78.2,1.34.08-2.36.19-4.31.17-1.99,0-3.38-.33-8.38-.32.5,0,.53,0,1.03-.02-.94-.03-1.85-.01-2.82,0-.89.02-2.28.03-2.54-.02-.19.04-.41.06-.61.07-.1,0-.2,0-.3,0-.03,0-.14.02-.1-.01l.1-.08c.27-.2.46-.35.4-.43l-.58.44-.14.11s-.13.08-.02.07h.38s1.5-.03,1.5-.03c-.45.02-.9.04-1.36.06-.26.01-.53.03-.81.04.14-.13.33-.28.52-.44.2-.16.42-.33.65-.54.27-.23.56-.47.86-.73.65-.59,1.38-1.21,2.15-1.96-.11.13-.37.44-.7.78-.34.33-.73.71-1.04,1.02.99-.79,1.77-1.67,2.7-2.59-.05.21-1,1.25-2.28,2.4-.32.29-.65.59-1,.87-.2.16-.4.33-.59.49-.16.13-.31.25-.46.37l-.09.08s.08,0,.11,0c.11,0,.21-.02.31-.02-.05-.01-.12-.02-.22-.02-.02,0-.05,0-.07,0l.06-.05.12-.1c.16-.13.34-.27.5-.41.09-.08.17-.15.23-.2.15-.12.26-.21.34-.27.16-.12.16-.09-.08.18,1.37-1.52,3.78-3.32,5.67-6.22l-.04.25c.31-.44.94-1.38,1.48-2.22-.3.53-.57,1.07-.9,1.58,1.52-2.33,3.02-4.46,4.02-6.96-1.15,2.56-1.42,2.78-1.39,2.69,0-.1.18-.56-.41.46,1.55-3.07,1.88-4,2.39-4.98.4-1.01,1.07-2.08,1.8-5.89-.15,1.04-.98,3.81-.61,2.21.37-1.42.81-3.32.93-4.22.49-5.11-.2.77-.05-1.41.36-1.72.11-2.51.07-4.74l.12-.02c.04-.73-.07-1.29-.1-1.74-.05-.45-.09-.77-.12-1.02-.07-.5-.12-.66-.16-.82-.05-.15-.08-.29-.16-.7-.1-.41-.24-1.11-.48-2.4l.6,2.14-.58-2.67.25.52c-.09-.36-.16-.69-.24-1-.09-.3-.19-.58-.27-.84-.17-.53-.32-.99-.46-1.45-.15-.46-.26-.93-.46-1.44-.2-.5-.43-1.07-.7-1.74.09.33,0,.26-.23-.18-.12-.22-.27-.54-.46-.95-.22-.4-.48-.88-.79-1.44-.38-.79-.24-.59-.22-.59,0,0-.01-.05-.14-.3-.15-.24-.33-.73-.87-1.47.56.62,1,1.42,1.67,2.86.11.13.46.68.56.82-.4-.86-.97-1.92-1.5-2.9-.57-.97-1.21-1.81-1.56-2.37.28.43.61.94.77,1.21-.52-.72-1.01-1.45-1.55-2.15l-1.73-2c-.49-.68-.05-.19.39.3-.66-.85-1.24-1.33-2.36-2.44.35.23.38.06,1.94,1.67-.56-.63-1.2-1.19-1.8-1.79l-.91-.88c-.32-.27-.66-.53-.98-.8-.23-.25-1.92-1.76-1.4-1.37-2.23-1.74-5.8-3.79-9.28-5.12-.19-.06-.54-.22-1.31-.42-.83-.27-1.64-.53-2.45-.79-.81-.26-1.65-.39-2.49-.58-.85-.19-1.71-.38-2.64-.43-.93-.08-1.89-.19-2.93-.21l-2.36-.18c-1.63.02-.83.08-.3.13.26.03.46.06.25.09-.21.04-.82,0-2.16.18-3.79.45-1.44-.03-2.78.11-.92.25-2.2.52-3.65.93-1.42.49-3.07.92-4.69,1.6.54-.23,1.01-.43,1.48-.63.47-.18.96-.3,1.48-.48Zm-24.97,28.68c.13-.76.36-2.29.55-2.83-.04.9-.24,1.55-.55,2.83Zm-3.51,35.71c.57-.04,1.44-.02,2.43.03-.72,0-1.53,0-2.43-.03Zm4.55,95.29s-.05,0-.08,0c-1.7-.05-1.1-.03.08,0Zm3.53.05c.35-.02.33-.03.18-.05-.25.03-1.04.03-1.94.02.25.03.71.05,1.76.03Zm59.64-94.6l-.69-.03c1.55-.03,1.12,0,.69.03Z"/>
          <path class="cls-2" d="m27.35,66.15c.22.02.28.04.33.07.3-.02.31-.04-.33-.07Z"/>
          <path class="cls-2" d="m73.48,2.57l.11.05c.06.02.1.03.12.03l-.23-.08Z"/>
          <path class="cls-2" d="m3.97,138.88c.73.02,1.13.04,1.4.06.04-.03-.29-.05-1.4-.06Z"/>
          <path class="cls-2" d="m47.37,161.45l-2.26.03c1.09,0,1.49.02,2.04.04-.05-.03-.48-.07.23-.07Z"/>
          <path class="cls-2" d="m67.01,162.19c.34,0,.7-.01,1.03-.02l-.09-.06c-1.41,0-2.39.05-.94.07Z"/>
          <path class="cls-2" d="m49.46,161.85c.18.1,1.6.07,3.18.05h-.28c.47-.14-1.22-.09-2.9-.05Z"/>
          <path class="cls-2" d="m53.02,161.89c.49,0,.99,0,1.46,0,.19-.06-.59-.01-1.46,0Z"/>
          <path class="cls-2" d="m33.13,161.58c.75.03.47-.13.9-.09.84-.13-5.01.16-.9.09Z"/>
          <polygon class="cls-2" points="50.75 162.18 50.18 162.06 49.29 162.16 50.75 162.18"/>
          <path class="cls-2" d="m38.23,162.09l2.53.03s.28-.03.68-.04c-1.56,0-3.27-.03-3.21,0Z"/>
          <path class="cls-2" d="m41.44,162.08c.81,0,1.59,0,2.04-.02-.44,0-1.38.01-2.04.02Z"/>
          <polygon class="cls-2" points="47.29 162.22 46.54 162.19 44.75 162.18 47.29 162.22"/>
          <path class="cls-2" d="m11.01,162.07l-2.76.04c-.28.04.47.07,1.5.05.66-.03,1.69-.05,1.26-.09Z"/>
          <path class="cls-2" d="m19.37,162.41c-.75-.03-.8-.05-1.22-.1l-.08.16,1.3-.06Z"/>
          <path class="cls-2" d="m11.31,162.44c-.28.04-4.01.12-.51.11.28-.04,3.05-.08.51-.11Z"/>
          <path class="cls-2" d="m8.17,139.31h-.65c.05.09.12.17.19.26.21-.09.36-.17.47-.26Z"/>
          <path class="cls-2" d="m20.76,114.29c-.62.61-.9,1.02-1.06,1.26-.1.14-.07.13-.1.18-.01.03-.02.06-.02.08-.01.03,0,.12-.09.18-.05,0-.08,0-.22,0-.22,0-.51,0-.88-.02-.38.03.22.05.82.06.09,0,.17,0,.25.01.03,0,.06,0,.09,0,.02-.03.04-.05.05-.07.06-.08.09-.1.03.01.1-.2.45-.68.67-.95.23-.3.44-.52.57-.67.27-.31.28-.36-.12-.07Z"/>
          <path class="cls-2" d="m19.64,115.99c-.04.12-.12.12-.21.12-.13,0-.27.01-.41.02.33,0,.4-.01.48-.02.09.02.11-.07.14-.12Z"/>
          <polygon class="cls-2" points="112.9 133.57 112.85 135.68 112.93 134.32 112.9 133.57"/>
          <path class="cls-2" d="m113.09,137.61l-.16.5.15,1.26c0-.48-.02-1.4.02-1.76Z"/>
          <path class="cls-2" d="m23.17,36.5l.03.16c.06-.33.08-.84.13-1.84l-.16,1.68Z"/>
          <polygon class="cls-2" points="34.57 10.44 34.21 10.79 34.98 10.24 34.57 10.44"/>
          <path class="cls-2" d="m56.3.08c-.5.05-1.04.11-1.58.17-.54.11-1.07.22-1.56.32.53-.11,1.02-.2,1.43-.28.42-.05.78-.06,1.06-.08.56-.04.81-.06.66-.14Z"/>
        </g>
      </g>
      <g>
        <path class="cls-2" d="m84.54,75.17c.07,0,.05-.1.06-.11-.12.02-.05.14-.06.11Z"/>
        <polygon class="cls-2" points="83.36 75.41 83.38 75.37 83.21 75.47 83.36 75.41"/>
        <path class="cls-2" d="m82.26,75.41c.1.18.4-.03.6.03l.03.04.09-.14c-.24.02-.55.12-.72.07Z"/>
        <path class="cls-2" d="m81.67,75.02c.04.07-.13.06.14.02-.01,0-.02-.01-.02-.02-.02,0-.06,0-.11,0Z"/>
        <path class="cls-2" d="m81.79,75.02c.12,0-.08-.06,0,0h0Z"/>
        <path class="cls-2" d="m81.25,75.06l.15-.06s-.17-.05-.12-.08c-.16.03-.12.07-.04.14Z"/>
        <path class="cls-2" d="m81.11,75.19l.08-.03s-.03-.02-.08.03Z"/>
        <path class="cls-2" d="m81.35,75.11l-.17.06s.02.09.08-.02c-.01.05.02,0,.09-.04Z"/>
        <path class="cls-2" d="m81.45,75.14c.09.04.2.06.04.12.29-.02.25-.15-.04-.12Z"/>
        <path class="cls-2" d="m82.21,75.59l.11.05.1-.06s-.22-.05-.21,0Z"/>
        <path class="cls-2" d="m80.3,74.97s.05.1.06.15l.11-.04c-.06-.03-.17-.05-.18-.11Z"/>
        <path class="cls-2" d="m80.36,75.12l-.17.07c.15,0,.18-.02.17-.07Z"/>
        <polygon class="cls-2" points="81.08 75.39 81.36 75.26 81.03 75.39 81.08 75.39"/>
        <polygon class="cls-2" points="79.66 74.97 79.75 74.88 79.58 75.01 79.66 74.97"/>
        <path class="cls-2" d="m79.23,74.98c.07-.07-.1-.12-.02-.17-.12.01-.22.08-.3.13.09-.03.2-.02.33.04Z"/>
        <path class="cls-2" d="m78.75,75.03s.1-.05.15-.08c-.05.02-.1.04-.15.08Z"/>
        <path class="cls-2" d="m79.91,75.17s-.04-.08-.13-.11l.07.11s.04,0,.07,0Z"/>
        <path class="cls-2" d="m79.84,75.17h0c-.07,0-.12,0-.14,0,.02,0,.06,0,.15,0Z"/>
        <path class="cls-2" d="m79.92,75.17s-.01,0-.02,0c0,.01.01.01.02,0Z"/>
        <path class="cls-2" d="m80.64,75.3c-.1.06-.31.12-.11.21.07-.07-.04-.12.11-.21Z"/>
        <path class="cls-2" d="m80.01,75.3l.18.02s-.04-.07.01-.1l-.19.07Z"/>
        <polygon class="cls-2" points="79.92 75.34 80.01 75.3 79.94 75.29 79.92 75.34"/>
        <path class="cls-2" d="m79.06,75.13c-.08.05-.16.05-.26.06.1.02.21.03.31.03.01-.03.06-.09-.05-.09Z"/>
        <path class="cls-2" d="m79.44,75.16s-.01,0-.02,0c.01,0,.02.01.02,0Z"/>
        <path class="cls-2" d="m77.86,75.18s0,.01.02.02c0,0,0-.01,0-.02h-.02Z"/>
        <path class="cls-2" d="m79.13,75.24c.08.02.12,0,.17-.04-.06.01-.12.02-.18.02,0,.02,0,.03.02.02Z"/>
        <path class="cls-2" d="m78.49,75.08s.09.04.13.06c-.04-.03-.12-.09-.13-.06Z"/>
        <path class="cls-2" d="m79.4,75.13s0,0,.01,0c-.03-.02-.02-.01-.01,0Z"/>
        <path class="cls-2" d="m79.4,75.13s-.07.04-.1.07c.05,0,.09-.02.13-.04,0,0-.02-.02-.03-.03Z"/>
        <path class="cls-2" d="m77.57,75.87c.01-.1.22-.19.39-.08.17-.07.06-.4-.09-.58,0,.04,0,.08-.18.14.06.05.39.13.24.22-.23.05-.19-.04-.31-.09.1.12-.3.18-.25.36l.21-.06s-.07.07-.01.1Z"/>
        <path class="cls-2" d="m78.21,75.21h.07c-.08-.03-.14-.07-.25-.15-.12.05-.15.09-.15.12h.36s-.02.03-.02.03Z"/>
        <path class="cls-2" d="m78.61,75.2c-.06.11-.23.15-.12.27.21,0,.15-.09.28-.14-.35.03.1-.06-.15-.12.07-.02.13-.02.19-.03-.06-.01-.12-.03-.18-.05,0,0,0,0,0,0h0s0,0,0,0c.01.01.02.02,0,.01,0,0,0,0,0,0,0,.01,0,.03-.02.04-.1-.02-.02-.03.02-.04,0,0,0-.01,0-.02,0,0,0,0,0,0l-.35.06c.07.01.16.01.33,0Z"/>
        <path class="cls-2" d="m80.35,75.74s-.01-.02-.01-.03c-.02.01-.03.02.01.03Z"/>
        <path class="cls-2" d="m80.2,75.68s.05-.06.13-.05c.07.03,0,.05,0,.09.05-.03.17-.08.02-.13h-.02c-.14-.02-.32-.16-.29-.17.04.1.08.17.17.26Z"/>
        <path class="cls-2" d="m79.4,75.47l-.29.05.15.09v-.06c.16.02.12-.05.14-.09Z"/>
        <polygon class="cls-2" points="77.82 75.13 77.86 75.02 77.7 75.18 77.82 75.13"/>
        <polygon class="cls-2" points="77.45 75.14 77.46 75.05 77.37 75.11 77.45 75.14"/>
        <path class="cls-2" d="m56.33,76.37l-.08.03s.07-.02.08-.03Z"/>
        <path class="cls-2" d="m56.94,76.38l.02-.05s-.04.05-.02.05Z"/>
        <path class="cls-2" d="m68.26,75.16c-.12-.09-.26-.24-.25-.12l.04.11c.09-.02.15,0,.21.02Z"/>
        <path class="cls-2" d="m61.96,75.8s.02.02.04.03c.03-.04.06-.07.08-.1-.04.02-.08.05-.12.07Z"/>
        <path class="cls-2" d="m61.88,76.25l-.16-.07s.09.05.16.07Z"/>
        <path class="cls-2" d="m52.98,76.49l-.1.11c.15,0,.09-.06.1-.11Z"/>
        <path class="cls-2" d="m73.62,75.18c-.11-.04-.19-.06-.27-.07.13.06.23.16.27.07Z"/>
        <path class="cls-2" d="m56.57,75.22c-.05.02-.07.04-.07.07.05-.02.08-.04.07-.07Z"/>
        <path class="cls-2" d="m73.04,75.12s.04.02.06.03c.08-.02.16-.03.25-.03-.09-.05-.2-.07-.31,0Z"/>
        <path class="cls-2" d="m40.85,76.4s-.02,0-.03-.01c0,.01,0,.02.03.01Z"/>
        <path class="cls-2" d="m37.31,75.3s.09,0,.15,0c-.03,0-.07,0-.15,0Z"/>
        <path class="cls-2" d="m75.94,75.1c.08,0,.01-.01,0,0h0Z"/>
        <path class="cls-2" d="m76.33,75.53s-.03.03-.03.05c0-.03.02-.04.03-.05Z"/>
        <path class="cls-2" d="m72.25,75.79s0,0,0,0c.02.02.02.02,0,0Z"/>
        <path class="cls-2" d="m76.06,75.15s-.06-.02-.1-.03c.02,0,.05.02.1.03Z"/>
        <path class="cls-2" d="m76.05,75.1s.05,0,.07.01c.01-.02,0-.03-.07-.01Z"/>
        <path class="cls-2" d="m75.83,75.1s.09,0,.13.01c-.02,0-.02-.01-.02-.02-.02,0-.06,0-.11,0Z"/>
        <path class="cls-2" d="m47.35,76.11s-.01,0-.02-.01c-.08.05-.04.04.02.01Z"/>
        <polygon class="cls-2" points="66.19 76.28 66.2 76.28 66.19 76.27 66.19 76.28"/>
        <path class="cls-2" d="m65.91,76.36c.12-.14.19-.12.28-.09l-.09-.31-.19.4Z"/>
        <path class="cls-2" d="m54.86,76.4l.2.1c-.24.16-.42.11-.23.24.03-.34.78-.03.81-.37l.13.07s-.04.02-.08.01c.26.16.19-.25.52-.2.12.03.2.08.12.12l.26-.08c.07,0,.06.07-.02.06l.39-.03h0c.06-.04.18-.13.24-.16.1.05-.05.04-.02.08l.22-.08c.09.09-.09.17-.24.16.2.34.18-.09.62.11l-.2.04c.13.19.29.12.52.24-.05-.06-.46-.3-.23-.39.07.03.15.04.28-.03,0,.12.13.09.28.08v.16c.16-.05.14-.13.24-.2.19.02.23.14.27.24.3.03-.21-.2.15-.23.25.06.42,0,.72-.1.17.06-.03.1.03.14l.15-.13s.03.04.02.06c.13-.05.01-.16.22-.2.06-.18.42.26.67.06.06.05-.03.1-.01.16.35-.13.3-.1.58-.27l.24.1c-.18-.12.05-.26.25-.38-.06-.06-.12-.11-.15-.13l.32-.09s0,.08-.05.15c.02-.01.04-.03.06-.04.11.06.05.15-.03.24-.04-.03-.08-.07-.11-.1-.08.1-.15.2-.14.3.02-.02.06-.03.1-.04-.02.03-.03.05-.02.07.01.02.04-.02.1-.06l.07.18.02-.07.42.11c.3-.18.56-.44,1.03-.52-.12.13-.03.21-.03.37-.13-.16-.37.07-.61.04.13.02.1.09.07.12l.44-.15c0,.13.09.09.21.15-.09-.25.33-.17.5-.24.01.08-.03.17-.25.15.24.19.31-.29.55-.13-.05,0-.08-.01-.1.03.12-.07.43-.02.36.06h-.05c.35.03,1.07,0,1.13-.21,0,.03-.05.26-.07.3l.63-.72c-.06.18.16.62-.14.72.08.03.19.06.36,0-.06-.03-.14-.26-.06-.28.21.2.15.11.41.28-.09-.04,0-.33.15-.32-.02.04.01.28-.04.31l.34-.28c-.08.05-.01.24.06.32-.04-.06.29,0,.38-.02l-.14-.07c.38.04.38-.4.75-.38-.05.06-.11.36.08.39.09-.14.39-.69.72-.8l.06.08.26-.09c-.16.22-.61.67-.85.85.14.07.04.1.25.09.08.08-.12.12-.18.12l.5.05c-.02-.17.38-.17.36-.31l-.54.17c-.02-.17.31-.48.66-.45.09.07-.07.3-.06.36.05-.06.33-.11.37-.07l-.15.09c.2.06.32-.22.56-.06.08.01.24.22.26.12-.13-.19-.16-.79-.07-.93.03.01.43.18.52.28.13.15-.2.36-.09.49,0-.05.08-.1.11-.12.09.04-.04.14.15.12.03-.17.38.01.09-.14.18-.05.19.04.41.03-.07-.11.19-.37.37-.42-.01.04.03.1.05.13.37.02.57.09.92.09.03.04.2.09.13.16.05-.03.1-.09.2-.09.21.15-.24.02-.08.2.01-.1.28-.14.43-.2-.05-.15-.35-.03-.51.03,0-.21.27-.43.63-.53.29-.05.13.14.18.11.54.04.46-.37.91-.22.18.13,0,.27.05.36-.23.05-.36-.09-.52-.08l.2.06c-.07.04-.23.08-.32.04.15.12.92.02,1.33.13.07-.05.2-.09.14-.15l-.13.02c-.12-.11.25-.15.08-.2.18-.08.38-.2.63-.13l.05.15s-.16-.09-.23-.04c.1-.07.38.21.5,0l-.18-.11c.18-.08.4-.24.62-.19-.1-.15-.05.02-.21-.16.14.22-.57,0-.35.22-.16-.21-.28-.09-.49-.26,0,.05.07.1-.11.07,0,.01-.03.03-.04.04,0,0,0,0-.01,0,0,0,0,0,.01,0,0,0,0,0,0,0,.04.02.08.05.09.08-.09.12-.39.11-.49.17-.11-.02.05-.06-.01-.11l-.15.09c-.01-.11-.29-.19-.03-.25h-.23c-.14-.07-.33-.09-.44-.05-.11-.02-.28.12-.18.04l-.37.07v-.03c-.37-.01-.75.19-1.16-.02-.12.03-.25.06-.45.03l-.04-.1c-.16.03-.47-.1-.54,0-.17-.26-.76-.06-1.03-.1v.13c-.2,0-.38.03-.62.08v.11c-.19.09-.51-.08-.83-.07.02-.04.1-.03.16,0-.38-.25-.81.18-1.15,0-.09.04-.15.03-.21,0,0,0,.02,0,.02,0,0,0-.02,0-.04,0-.04-.02-.08-.04-.12-.06.04.03.07.05.1.06-.07,0-.17.02-.27.04l-.04-.12s-.01,0-.02,0c-.1-.04-.08.06-.03.15-.05.02-.1.04-.13.07-.08-.19-.26.07-.37-.14-.07.1-.5.08-.55.29,0-.03-.03-.04.02-.04-.11-.02-.22-.05-.32.01l-.05-.15-.24.21c-.15-.09-.21-.15-.06-.27-.35.18-.29.07-.58.25v-.1c-.09,0-.26.14-.33.05-.24-.19-1.18-.03-1.8-.2.12.29-.29-.13-.31.1-.04-.07-.12-.11-.02-.17-.31.07-.47-.11-.69.08-.04-.07.07-.1.04-.14-.03.01-.1.06-.13.02-.03-.04.05-.06.1-.09-.32.01-.35.22-.38.42-.16-.09-.24-.08-.36.05-.06-.07-.15-.13.05-.16-.11,0-.68-.1-.69.06-.04-.04-.16-.01-.19,0-.25,0-.27-.02-.52,0l.07.03c-.1.19-.2.04-.4.07v-.02c-.45-.14-.19.07-.64-.09l.02.12c-.04.26-.4-.15-.66-.05l.09.07c-.14.09-.4-.35-.54-.38-.03-.02.05-.04.09-.05-.37-.15-.05.16-.33.19-.05-.08.07-.22-.12-.23-.09-.07-.54.28-.8.11.06.07.11.13-.02.18-.2.02-.54-.25-.72-.04-.03-.02-.03-.03-.04-.05-.15.05-.49.09-.59.2-.14-.41-.94.2-.94-.18l-.47.02v-.04c-.29-.03-.39.07-.5.16-.07-.03-.02-.06-.01-.08-.44-.08-.48-.06-.85.13l-.04-.12c-.1.07-.63-.19-1.06-.05,0-.01.01-.04.05-.06-.48.15-1.15-.34-1.33.11l-.32.11c.41.04-.06.2.11.27-.16.03-.42-.14-.22-.16l.03.02c.07-.24-.51-.08-.5-.24-.81.01-1.6-.12-2.36-.13l.09.18h-.26c-.07-.05-.09-.15.1-.15-.1-.1-.32.09-.32.13-.37-.07.14-.21.03-.22h-.15s.03.04.03.04c-.12.07-.14.15-.36.14-.14-.04-.07-.11-.13-.12,0-.01-.02-.02-.09,0l-.33-.02.13.14c-.15.07-.31,0-.16.16-.23-.25-1.24-.09-1.38-.17-.21.11-.41.1-.66.09.06.03.1.19-.12.17.08-.33-.4-.15-.58-.39.16.16-.62.04-.37.27-.18-.03-.01-.13-.15-.2-.43.13-.95-.08-1.49-.04,0,.04.08.11-.03.18l-.28-.22c-.11.02-.1.25-.29.1.03.04.07.09,0,.11-1.05-.21-2.14.18-3.21-.23.14.09.05.09-.06.1.07.02,0,.11.01.17l-.45-.17c-.08.17-.48.01-.52.17l.14-.03c-.19.19.26.41.24.65.21-.21.55.31.9.01.08.05-.06.08-.02.13.09-.1.19-.12.39-.08l-.02.03c.55-.03.79.08,1.4.14l-.05-.12c.13.02.16.05.22.08.15-.18-.37-.01-.23-.21.18.24.94,0,1.05.28.2,0-.06-.14.14-.14l.05.07.05-.1c.13.02.2.11.21.17-.03,0-.09.02-.13.02.17.09.49-.03.55,0l-.2-.05c.56-.07,1.24.03,1.78-.12l-.04-.06c.41-.1.33.06.78.01h-.02c.09-.04.21-.07.33-.06-.11.07.21.13.06.2.45-.11.22-.09.51-.29l.07.09c.1-.08.11-.13.33-.15-.18.08.14.14-.06.25.47.2.7-.2.92.09.22-.26-.41-.14-.29-.2-.1-.08.18-.19.33-.17.15,0,.26.33.64.32-.04,0-.04.02-.08.02.14.07.28-.09.45.02.1-.16.23,0,.25-.19l-.35.05c.2-.05.38-.28.71-.17-.03.04-.12.09-.19.12.1.06.18-.04.28.02-.03.2-.42.04-.64.19.1.08.4-.14.29.07.15-.27.37.03.63-.17l-.02.12s.13-.07.2-.07l-.14.15c.21-.13.4.11.6.04-.42,0-.09-.14-.27-.23.52-.16.3.31.87.25-.08.02-.29-.07-.17-.13.11.02.26.07.32.13.38-.02-.06-.12.1-.19.13.14.19-.06.36-.11v.12c.44.08.12-.25.51-.16l-.17.17.2-.04-.04.14c.22-.1.29-.08.51-.04-.05-.08.03-.22.22-.22.13.07-.07.11.2.1-.06.08-.13.17-.25.06-.01.04-.06.08-.07.11.14.08.36.02.46.02-.04,0-.08-.01-.11-.03l.4-.17c.06.05.01.08-.04.12.08-.01.14-.07.25-.08-.03.1-.02.2-.19.25l.38-.11s.19.12.15.15c.21.06.51-.19.79-.11.01-.02.04-.04.1-.05.26.02.49.14.8,0l.18.18c.24-.04-.24-.22.17-.29.29-.06.11.15.21.2.14-.09.39-.27.65-.13-.09.03-.16,0-.24.02Zm2.99-.08c-.06.03-.17.1-.22.03.07-.14.12-.07.22-.03Zm4.55-.29s-.11.02-.19-.03c.05,0,.12,0,.19.03Zm12.67-.84s0,0,0,0c-.13-.05-.08-.03,0,0Zm.27.05s.03-.03.01-.05c-.02.03-.08.03-.15.02.02.03.05.05.13.03Zm-28.84.05l.05.03c-.12.03-.08,0-.05-.03Z"/>
        <path class="cls-2" d="m61.89,76.2s-.02-.04-.02-.07c-.02.02-.02.04.02.07Z"/>
        <path class="cls-2" d="m53,76.47s0,0,0,0c0,0,0,.01,0,.02l.02-.02Z"/>
        <path class="cls-2" d="m71.18,76.27c-.06-.02-.09-.04-.11-.06,0,.03.02.05.11.06Z"/>
        <path class="cls-2" d="m76.77,75.04l-.17.03c.08,0,.11.02.15.04,0-.03-.04-.07.02-.07Z"/>
        <path class="cls-2" d="m78.26,75.79s.05,0,.08-.02v-.06c-.11,0-.19.05-.08.07Z"/>
        <path class="cls-2" d="m76.93,75.44c.01.1.12.07.24.05,0,0-.01,0-.02,0,.04-.14-.09-.09-.22-.05Z"/>
        <path class="cls-2" d="m77.2,75.49s.08,0,.11,0c.01-.06-.05-.01-.11,0Z"/>
        <path class="cls-2" d="m75.68,75.18c.06.03.04-.13.07-.09.06-.13-.38.16-.07.09Z"/>
        <polygon class="cls-2" points="77.02 75.78 76.98 75.65 76.91 75.75 77.02 75.78"/>
        <path class="cls-2" d="m76.07,75.69l.19.03s.02-.03.05-.04c-.12,0-.25-.03-.24,0Z"/>
        <path class="cls-2" d="m76.32,75.68c.06,0,.12,0,.15-.02-.03,0-.11,0-.15.02Z"/>
        <polygon class="cls-2" points="76.76 75.82 76.7 75.79 76.57 75.78 76.76 75.82"/>
        <path class="cls-2" d="m74,75.66l-.21.04s.04.07.11.05c.05-.03.13-.05.1-.09Z"/>
        <path class="cls-2" d="m74.64,76c-.06-.03-.06-.05-.09-.1v.16s.09-.06.09-.06Z"/>
        <path class="cls-2" d="m74.02,76.04s-.3.12-.04.11c.02-.04.23-.08.04-.11Z"/>
        <polygon class="cls-2" points="70.86 75.84 70.91 75.84 70.9 75.59 70.86 75.84"/>
        <path class="cls-2" d="m68.07,76.45c.25.06.06-.16.28-.08.06-.06-.18-.06-.12-.11-.15.06-.23.03-.16.2Z"/>
        <path class="cls-2" d="m68.23,76.26s.05-.02.08-.04c-.04.02-.06.03-.08.04Z"/>
        <polygon class="cls-2" points="36.73 75.17 36.57 75.11 36.67 75.2 36.73 75.17"/>
        <path class="cls-2" d="m36.42,75.36l-.04-.16-.1.15s.11-.02.13.02Z"/>
        <path class="cls-2" d="m58.3,76.65v-.04s-.05-.05-.13-.05l.13.09Z"/>
        <polygon class="cls-2" points="56.13 76.53 56.17 76.53 56.1 76.39 56.13 76.53"/>
        <path class="cls-2" d="m54.31,76.72c.07,0,.16-.03.24-.02-.16.03-.26-.16-.24.02Z"/>
      </g>
      <g>
        <path class="cls-2" d="m91.5,119.47c.1,0,.06-.1.08-.12-.17.03-.07.14-.08.12Z"/>
        <polygon class="cls-2" points="89.83 119.73 89.86 119.69 89.62 119.79 89.83 119.73"/>
        <path class="cls-2" d="m88.27,119.75c.15.18.56-.04.84.02l.05.04.12-.15c-.34.03-.77.13-1.01.08Z"/>
        <path class="cls-2" d="m87.44,119.37c.05.07-.18.06.19.02-.02,0-.02-.01-.04-.02-.03,0-.08,0-.16,0Z"/>
        <path class="cls-2" d="m87.6,119.37c.16,0-.11-.06,0,0h0Z"/>
        <path class="cls-2" d="m86.84,119.42l.22-.06s-.24-.05-.17-.08c-.22.04-.18.08-.05.14Z"/>
        <path class="cls-2" d="m86.63,119.56l.11-.03s-.05-.02-.11.03Z"/>
        <path class="cls-2" d="m86.98,119.47l-.24.06s.04.09.11-.02c-.02.05.03,0,.13-.04Z"/>
        <path class="cls-2" d="m87.12,119.5c.12.04.28.06.06.12.41-.03.35-.15-.06-.12Z"/>
        <path class="cls-2" d="m88.2,119.93l.16.05.14-.06c-.07.03-.31-.04-.3.01Z"/>
        <path class="cls-2" d="m85.49,119.35s.07.1.09.15l.16-.05c-.08-.02-.24-.05-.25-.1Z"/>
        <path class="cls-2" d="m85.58,119.5l-.24.07c.21,0,.25-.03.24-.07Z"/>
        <polygon class="cls-2" points="86.6 119.75 86.99 119.61 86.52 119.76 86.6 119.75"/>
        <polygon class="cls-2" points="84.58 119.35 84.71 119.26 84.47 119.4 84.58 119.35"/>
        <path class="cls-2" d="m83.97,119.38c.1-.07-.14-.12-.03-.17-.16.02-.3.08-.43.14.13-.03.28-.03.46.03Z"/>
        <path class="cls-2" d="m83.3,119.43c.07-.02.14-.05.21-.08-.07.02-.14.04-.21.08Z"/>
        <path class="cls-2" d="m84.93,119.55s-.06-.08-.19-.11l.1.11s.06,0,.09,0Z"/>
        <path class="cls-2" d="m84.84,119.55h0c-.1,0-.17,0-.2,0,.03,0,.09,0,.21,0Z"/>
        <path class="cls-2" d="m84.96,119.55s-.02,0-.02,0c0,.01.01.01.02,0Z"/>
        <path class="cls-2" d="m85.97,119.67c-.14.06-.43.13-.15.22.1-.07-.06-.12.15-.22Z"/>
        <path class="cls-2" d="m85.08,119.68l.25.02s-.05-.07.02-.1l-.27.08Z"/>
        <polygon class="cls-2" points="84.95 119.72 85.08 119.68 84.98 119.68 84.95 119.72"/>
        <path class="cls-2" d="m83.73,119.53c-.11.05-.23.05-.36.06.15.02.3.03.44.03.02-.03.08-.09-.07-.09Z"/>
        <path class="cls-2" d="m84.27,119.55s-.02,0-.02,0c.02,0,.03.01.02,0Z"/>
        <path class="cls-2" d="m82.03,119.61s.01.01.02.02c0,0,0-.01,0-.02h-.03Z"/>
        <path class="cls-2" d="m83.83,119.64c.11.02.17,0,.24-.04-.08.01-.17.02-.26.02,0,.02-.01.03.02.02Z"/>
        <path class="cls-2" d="m82.92,119.49c.06.02.12.04.19.06-.06-.03-.17-.08-.19-.06Z"/>
        <path class="cls-2" d="m84.21,119.53s.01,0,.02,0c-.04-.02-.03-.01-.02,0Z"/>
        <path class="cls-2" d="m84.21,119.53c-.06.02-.1.04-.14.07.07,0,.13-.02.18-.04-.01,0-.03-.02-.04-.03Z"/>
        <path class="cls-2" d="m81.64,120.3c.02-.1.3-.19.55-.09.24-.08.08-.4-.14-.58,0,.04,0,.08-.26.14.09.05.56.12.35.21-.33.06-.27-.03-.44-.08.14.12-.42.18-.35.37l.29-.07s-.1.07-.02.1Z"/>
        <path class="cls-2" d="m82.53,119.63h.1c-.12-.03-.2-.07-.36-.14-.17.05-.21.09-.22.12h.51s-.04.02-.04.02Z"/>
        <path class="cls-2" d="m83.1,119.61c-.08.11-.33.16-.17.27.3-.01.21-.09.39-.14-.49.03.14-.06-.21-.12.1-.02.18-.03.26-.03-.09-.01-.17-.03-.25-.05,0,0,0,0,.01,0h0s0,0,0,0c.02.01.03.02,0,.01,0,0,0,0-.01,0,0,.02-.01.03-.02.04-.14-.02-.02-.03.02-.04,0,0,0-.01,0-.02,0,0,0,0,0,0l-.49.07c.1.01.23,0,.46,0Z"/>
        <path class="cls-2" d="m85.56,120.12s-.01-.02-.02-.02c-.03.01-.04.02.02.02Z"/>
        <path class="cls-2" d="m85.36,120.05s.06-.06.18-.05c.1.03,0,.05,0,.09.07-.03.24-.08.02-.13l-.03.02c-.2-.03-.45-.17-.42-.18.06.1.11.16.24.26Z"/>
        <path class="cls-2" d="m84.22,119.86l-.41.06.21.09v-.06c.22.02.17-.05.2-.09Z"/>
        <polygon class="cls-2" points="81.99 119.55 82.04 119.44 81.8 119.6 81.99 119.55"/>
        <polygon class="cls-2" points="81.46 119.57 81.47 119.47 81.33 119.54 81.46 119.57"/>
        <path class="cls-2" d="m51.56,121.18l-.12.03c.06,0,.09-.02.12-.03Z"/>
        <path class="cls-2" d="m52.43,121.18l.02-.05s-.06.05-.02.05Z"/>
        <path class="cls-2" d="m68.44,119.75c-.18-.09-.37-.23-.35-.12l.06.11c.12-.02.22-.01.3.01Z"/>
        <path class="cls-2" d="m59.53,120.51s.03.02.05.03c.04-.04.08-.07.12-.11-.05.02-.11.05-.17.07Z"/>
        <path class="cls-2" d="m59.41,120.96l-.23-.07c.05.02.13.05.23.07Z"/>
        <path class="cls-2" d="m46.82,121.36l-.14.11c.22,0,.12-.06.14-.11Z"/>
        <path class="cls-2" d="m76.03,119.68c-.15-.04-.27-.06-.38-.06.18.06.33.15.38.06Z"/>
        <path class="cls-2" d="m51.89,120.03c-.07.02-.1.04-.1.07.08-.02.12-.04.1-.07Z"/>
        <path class="cls-2" d="m75.22,119.63s.05.02.08.02c.11-.02.22-.04.36-.03-.13-.04-.29-.07-.44,0Z"/>
        <path class="cls-2" d="m29.63,121.49s-.03,0-.04-.01c0,.01.01.02.04.01Z"/>
        <path class="cls-2" d="m24.61,120.46s.13,0,.21-.01c-.04,0-.1,0-.21.01Z"/>
        <path class="cls-2" d="m79.32,119.55c.11,0,.02-.01,0,0h0Z"/>
        <path class="cls-2" d="m79.87,119.97s-.04.03-.04.05c0-.03.02-.04.04-.05Z"/>
        <path class="cls-2" d="m74.1,120.32s0,0,0,0c.03.02.03.02,0,0Z"/>
        <path class="cls-2" d="m79.49,119.6s-.09-.02-.14-.03c.02,0,.07.02.14.03Z"/>
        <path class="cls-2" d="m79.47,119.55s.07,0,.1,0c.01-.02,0-.03-.1,0Z"/>
        <path class="cls-2" d="m79.17,119.56c.06,0,.12,0,.18,0-.02,0-.03-.01-.03-.02-.03,0-.08,0-.16,0Z"/>
        <path class="cls-2" d="m38.84,121.08s-.02,0-.02,0c-.11.05-.06.04.02,0Z"/>
        <path class="cls-2" d="m65.53,120.91s0,0,.01,0c0,0-.01,0-.02,0h0Z"/>
        <path class="cls-2" d="m65.12,121c.17-.14.27-.12.4-.09l-.14-.31-.26.41Z"/>
        <path class="cls-2" d="m49.48,121.24l.28.09c-.34.16-.59.11-.32.25.04-.34,1.1-.05,1.14-.39l.19.07c-.05,0-.06.02-.11.01.37.16.27-.25.74-.21.16.02.28.07.17.11l.36-.09c.11,0,.08.06-.02.06l.55-.03h0c.08-.04.26-.13.34-.17.14.05-.07.04-.03.08l.31-.09c.13.09-.13.17-.34.17.29.34.25-.09.88.1l-.29.05c.19.19.41.12.74.23-.08-.06-.66-.29-.33-.38.09.02.22.04.4-.04,0,.12.18.09.4.08v.16c.22-.05.2-.13.34-.2.26.01.32.14.39.24.42.02-.3-.19.21-.23.35.06.6-.01,1.02-.11.25.05-.04.1.05.14l.22-.13c.05,0,.04.04.03.06.18-.05.01-.16.3-.21.08-.18.6.25.95.05.09.04-.04.1-.01.16.49-.14.42-.1.82-.28l.35.1c-.25-.12.07-.26.35-.38-.09-.06-.17-.11-.22-.13l.45-.09c.05.03.01.08-.06.15.03-.01.06-.03.08-.04.16.06.08.15-.03.24-.06-.03-.11-.06-.16-.1-.11.1-.21.21-.19.3.03-.02.09-.04.15-.05-.03.03-.05.05-.03.07.02.02.06-.02.14-.06l.1.18.02-.07.59.1c.42-.18.79-.45,1.46-.54-.16.13-.03.21-.04.37-.19-.16-.52.08-.87.05.18.01.14.09.1.12l.62-.16c-.01.13.13.09.3.14-.13-.25.46-.17.71-.25.02.08-.04.17-.35.15.34.18.44-.3.77-.14-.08,0-.12,0-.15.03.17-.08.6-.02.5.05h-.08c.5.03,1.52-.01,1.59-.23,0,.03-.06.26-.09.3l.88-.73c-.08.18.23.61-.18.72.12.02.27.05.52-.01-.08-.02-.21-.26-.09-.28.31.2.21.11.59.27-.12-.04,0-.33.2-.32-.03.04.02.28-.05.31l.47-.29c-.12.05-.02.24.09.32-.05-.05.41,0,.54-.03l-.2-.06c.54.04.53-.4,1.06-.39-.06.06-.16.36.12.39.12-.15.54-.7,1.02-.82l.09.08.36-.1c-.22.22-.85.68-1.2.87.2.06.06.1.36.08.11.08-.16.12-.25.12l.7.04c-.03-.17.54-.18.51-.32l-.76.18c-.03-.17.44-.48.94-.46.13.07-.09.3-.08.36.06-.06.47-.12.52-.08l-.21.09c.28.06.45-.23.79-.07.12,0,.35.21.37.11-.19-.19-.23-.78-.11-.93.04.01.61.18.74.27.19.15-.28.36-.12.49,0-.05.11-.1.15-.12.12.04-.05.14.21.12.04-.17.54,0,.12-.15.26-.05.27.03.58.02-.1-.11.27-.38.52-.43-.01.04.04.1.07.12.53,0,.81.08,1.3.08.05.04.28.09.18.16.07-.03.13-.09.29-.1.3.14-.34.03-.11.2.02-.1.39-.14.61-.21-.07-.15-.5-.02-.71.04,0-.21.37-.44.88-.54.41-.06.18.13.25.1.77.03.65-.38,1.29-.23.25.13.01.27.07.36-.33.06-.51-.08-.74-.07l.28.06c-.11.05-.33.08-.45.05.21.12,1.3,0,1.89.11.1-.05.29-.1.2-.15l-.19.02c-.17-.11.35-.15.11-.2.25-.08.53-.2.88-.15l.07.15s-.23-.09-.33-.04c.15-.07.54.2.7,0l-.25-.1c.25-.08.56-.25.87-.2-.14-.15-.07.02-.3-.16.2.22-.8,0-.49.23-.23-.2-.4-.08-.7-.25,0,.05.11.1-.16.07-.01.01-.04.03-.06.05,0,0-.01,0-.02,0,0,0,0,0,.01,0-.01,0-.01,0,0,0,.06.02.11.05.14.08-.13.12-.55.12-.69.18-.16-.02.06-.06-.02-.11l-.21.09c-.02-.11-.42-.18-.05-.25h-.33c-.2-.06-.46-.08-.63-.03-.16-.02-.39.13-.26.04l-.52.08v-.03c-.52,0-1.06.2-1.65,0-.17.03-.35.07-.64.04l-.06-.1c-.22.04-.67-.09-.76.01-.24-.26-1.08-.04-1.47-.08v.13c-.28,0-.54.04-.87.09l.02.11c-.29.1-.74-.07-1.19-.05.03-.04.15-.03.23,0-.55-.25-1.14.2-1.64.02-.12.04-.21.03-.3,0,.01,0,.02,0,.03,0-.01,0-.03,0-.05,0-.05-.02-.11-.04-.17-.06.05.03.1.05.14.06-.09,0-.24.02-.38.05l-.06-.12s-.02,0-.03,0c-.14-.04-.11.06-.04.15-.07.02-.13.05-.18.08-.11-.19-.37.07-.52-.14-.09.1-.71.09-.78.3,0-.03-.05-.04.03-.04-.16-.02-.31-.04-.45.02l-.07-.15-.34.21c-.21-.09-.3-.14-.09-.26-.5.19-.4.07-.82.26l.02-.1c-.15,0-.39.14-.48.06-.34-.18-1.68,0-2.55-.17.17.29-.41-.13-.44.1-.05-.07-.17-.11-.03-.17-.44.07-.67-.1-.97.09-.05-.07.09-.1.05-.14-.04.02-.14.06-.19.02-.05-.04.06-.06.13-.09-.45.02-.5.23-.53.43-.23-.09-.35-.08-.51.06-.08-.06-.22-.13.07-.16-.16,0-.97-.08-.98.08-.05-.04-.22,0-.26,0-.36,0-.39-.02-.74,0l.1.02c-.14.19-.29.05-.57.07v-.02c-.64-.13-.27.07-.91-.08l.04.12c-.06.26-.57-.14-.93-.04l.13.07c-.2.09-.57-.34-.77-.37-.04-.02.07-.04.13-.05-.53-.15-.07.16-.46.2-.07-.08.09-.22-.18-.23-.13-.07-.77.28-1.13.13.08.06.16.13-.02.18-.28.03-.76-.24-1.02-.03-.04-.02-.05-.03-.05-.05-.21.06-.7.1-.83.21-.2-.41-1.34.22-1.34-.16l-.66.03.02-.04c-.42-.02-.57.07-.72.17-.1-.02-.03-.06-.02-.08-.62-.07-.68-.05-1.2.14l-.06-.12c-.14.07-.9-.18-1.5-.03,0-.01.02-.04.07-.06-.68.15-1.64-.32-1.88.13l-.45.12c.58.03-.08.2.16.27-.23.03-.59-.13-.31-.16l.04.02c.1-.24-.72-.07-.71-.23-1.15.03-2.26-.09-3.34-.09l.13.18h-.37c-.1-.05-.13-.15.13-.14-.14-.1-.45.09-.45.13-.52-.07.2-.22.04-.22l-.22.02.05.02c-.18.08-.19.16-.51.15-.2-.03-.11-.11-.19-.12,0-.01-.03-.02-.12,0h-.47s.19.13.19.13c-.21.07-.44,0-.22.16-.32-.25-1.76-.07-1.96-.14-.29.11-.58.11-.94.1.09.03.14.19-.16.17.11-.34-.57-.14-.82-.38.23.16-.88.05-.52.27-.26-.02-.02-.13-.21-.2-.61.14-1.35-.07-2.11-.01-.01.04.12.11-.05.18l-.4-.21c-.15.02-.13.26-.41.11.04.04.1.09,0,.11-1.49-.2-3.03.21-4.55-.17.21.08.07.09-.09.1.1.02,0,.11.02.17l-.63-.16c-.11.17-.68.02-.74.18l.2-.03c-.26.19.38.41.34.65.3-.22.79.3,1.27,0,.11.05-.09.08-.03.13.12-.1.27-.13.55-.09l-.03.03c.78-.04,1.11.06,1.99.12l-.07-.12c.19.01.23.05.32.08.21-.18-.53,0-.33-.2.25.24,1.33-.01,1.5.26.29,0-.09-.14.2-.14l.08.07.07-.1c.19.01.29.1.29.17-.05,0-.13.02-.18.03.25.08.69-.04.78-.01l-.28-.04c.79-.08,1.75,0,2.51-.15l-.06-.06c.58-.11.47.06,1.11,0h-.02c.13-.04.3-.07.47-.07-.16.07.31.12.09.2.63-.12.31-.09.73-.3l.1.09c.14-.09.15-.13.47-.16-.26.08.21.14-.09.25.67.19.99-.22,1.3.08.3-.26-.58-.14-.41-.19-.15-.08.25-.2.46-.17.21,0,.37.32.91.31-.05,0-.06.02-.11.02.2.06.39-.09.64,0,.14-.16.32,0,.36-.19l-.49.05c.28-.06.54-.29,1-.18-.04.04-.17.09-.27.13.14.06.26-.04.4.02-.04.2-.6.05-.9.21.15.08.57-.15.42.07.21-.28.53.03.89-.19l-.02.12c.06-.02.18-.08.28-.08l-.19.16c.29-.14.57.11.85.03-.59.01-.13-.14-.39-.22.73-.17.42.3,1.24.24-.11.02-.42-.07-.24-.12.16.02.36.07.46.13.54-.03-.08-.12.15-.2.19.14.27-.06.5-.11v.12c.62.07.16-.25.72-.17l-.23.17.29-.05-.06.14c.31-.11.41-.08.72-.05-.07-.08.04-.22.31-.23.19.07-.1.12.28.09-.09.08-.18.17-.35.06-.02.04-.09.08-.1.12.2.08.51.01.65,0-.05,0-.12,0-.15-.03l.56-.17c.09.04.02.08-.05.12.11-.01.19-.07.36-.08-.04.1-.03.2-.27.25l.53-.12s.28.11.21.15c.3.05.73-.2,1.12-.13.02-.02.06-.04.14-.05.37.02.7.13,1.14,0l.25.17c.34-.04-.34-.22.23-.29.4-.06.15.15.3.2.2-.09.55-.28.92-.14-.12.03-.22,0-.33.02Zm4.24-.13c-.08.03-.24.11-.31.04.09-.14.16-.07.31-.04Zm6.44-.37c-.06.04-.16.02-.26-.02.08-.01.16,0,.26.02Zm17.93-1.07s0,0,0,0c-.18-.04-.12-.03,0,0Zm.38.05s.04-.03.02-.05c-.03.03-.11.03-.21.03.03.03.08.05.19.02Zm-40.84.57l.07.03c-.17.04-.12,0-.07-.03Z"/>
        <path class="cls-2" d="m59.43,120.91s-.03-.04-.04-.07c-.03.02-.03.04.04.07Z"/>
        <path class="cls-2" d="m46.85,121.34s0,0-.01,0c0,0-.01.01-.01.02l.03-.02Z"/>
        <path class="cls-2" d="m72.59,120.81c-.08-.02-.12-.04-.15-.06,0,.03.03.05.15.06Z"/>
        <path class="cls-2" d="m80.49,119.48l-.24.03c.12,0,.16.02.22.04,0-.03-.05-.07.02-.07Z"/>
        <path class="cls-2" d="m82.61,120.2s.08,0,.11-.02v-.06c-.16,0-.27.05-.11.07Z"/>
        <path class="cls-2" d="m80.72,119.88c.02.1.17.06.34.04-.01,0-.02,0-.03,0,.05-.14-.13-.09-.31-.04Z"/>
        <path class="cls-2" d="m81.1,119.92c.05,0,.11,0,.16,0,.02-.06-.06-.01-.16,0Z"/>
        <path class="cls-2" d="m78.95,119.64c.08.03.05-.13.1-.09.09-.13-.54.16-.1.09Z"/>
        <polygon class="cls-2" points="80.86 120.21 80.8 120.09 80.7 120.19 80.86 120.21"/>
        <path class="cls-2" d="m79.51,120.14l.27.03s.03-.03.07-.04c-.17,0-.35-.02-.35.01Z"/>
        <path class="cls-2" d="m79.86,120.13c.09,0,.17,0,.22-.02-.05,0-.15,0-.22.02Z"/>
        <polygon class="cls-2" points="80.49 120.26 80.41 120.23 80.21 120.22 80.49 120.26"/>
        <path class="cls-2" d="m76.58,120.15l-.3.04s.05.07.16.05c.07-.03.18-.05.13-.09Z"/>
        <path class="cls-2" d="m77.48,120.48c-.08-.02-.09-.05-.13-.09v.16s.13-.06.13-.06Z"/>
        <path class="cls-2" d="m76.61,120.53s-.43.13-.05.11c.03-.04.33-.08.05-.11Z"/>
        <polygon class="cls-2" points="72.13 120.39 72.2 120.39 72.19 120.14 72.13 120.39"/>
        <path class="cls-2" d="m68.18,121.05c.35.06.08-.16.4-.09.08-.06-.26-.06-.18-.11-.21.07-.32.03-.22.2Z"/>
        <path class="cls-2" d="m68.41,120.85s.07-.02.11-.04c-.06.02-.09.03-.11.04Z"/>
        <polygon class="cls-2" points="23.78 120.33 23.55 120.28 23.7 120.37 23.78 120.33"/>
        <path class="cls-2" d="m23.35,120.53l-.06-.16-.13.15c.05,0,.15-.02.19.01Z"/>
        <path class="cls-2" d="m54.35,121.43l.02-.04s-.09-.04-.2-.05l.18.09Z"/>
        <polygon class="cls-2" points="51.28 121.35 51.33 121.35 51.23 121.2 51.28 121.35"/>
        <path class="cls-2" d="m48.7,121.57c.11,0,.23-.03.33-.02-.23.03-.37-.16-.33.02Z"/>
      </g>
      <g>
        <path class="cls-2" d="m113.39,138.77c.15,0,.09-.1.12-.12-.25.03-.11.14-.12.12Z"/>
        <polygon class="cls-2" points="110.96 139.03 111 138.98 110.64 139.09 110.96 139.03"/>
        <path class="cls-2" d="m108.68,139.04c.22.18.83-.04,1.23.02l.07.04.18-.15c-.49.03-1.13.13-1.48.08Z"/>
        <path class="cls-2" d="m107.46,138.67c.08.07-.26.06.28.02-.03,0-.04-.01-.05-.02-.05,0-.12,0-.23,0Z"/>
        <path class="cls-2" d="m107.69,138.67c.24,0-.16-.06,0,0h0Z"/>
        <path class="cls-2" d="m106.58,138.72l.32-.06c-.07-.04-.35-.05-.24-.08-.32.04-.26.08-.07.14Z"/>
        <path class="cls-2" d="m106.28,138.85l.16-.03s-.07-.02-.16.03Z"/>
        <path class="cls-2" d="m106.8,138.77l-.35.06s.05.09.16-.02c-.03.05.04,0,.19-.04Z"/>
        <path class="cls-2" d="m106.99,138.79c.18.04.41.06.09.12.6-.03.51-.15-.09-.12Z"/>
        <path class="cls-2" d="m108.56,139.23l.24.05.2-.06c-.1.03-.46-.04-.44.01Z"/>
        <path class="cls-2" d="m104.61,138.65s.11.1.13.15l.23-.05c-.12-.02-.35-.05-.36-.1Z"/>
        <path class="cls-2" d="m104.74,138.79l-.35.07c.31,0,.37-.03.35-.07Z"/>
        <polygon class="cls-2" points="106.23 139.05 106.8 138.91 106.12 139.06 106.23 139.05"/>
        <polygon class="cls-2" points="103.28 138.65 103.48 138.56 103.12 138.7 103.28 138.65"/>
        <path class="cls-2" d="m102.39,138.68c.15-.07-.2-.12-.05-.17-.24.02-.45.08-.63.14.2-.03.41-.03.68.03Z"/>
        <path class="cls-2" d="m101.41,138.73c.1-.02.2-.05.31-.08-.1.02-.21.04-.31.08Z"/>
        <path class="cls-2" d="m103.8,138.85s-.08-.08-.28-.11l.14.11s.09,0,.14,0Z"/>
        <path class="cls-2" d="m103.67,138.85h0c-.15,0-.25,0-.3,0,.04,0,.13,0,.3,0Z"/>
        <path class="cls-2" d="m103.83,138.85s-.02,0-.03,0c.01.01.02.01.03,0Z"/>
        <path class="cls-2" d="m105.31,138.96c-.2.06-.63.13-.22.22.15-.07-.09-.12.22-.22Z"/>
        <path class="cls-2" d="m104.01,138.98l.37.02s-.07-.07.03-.1l-.4.08Z"/>
        <polygon class="cls-2" points="103.83 139.02 104.01 138.98 103.87 138.97 103.83 139.02"/>
        <path class="cls-2" d="m102.04,138.82c-.16.05-.34.05-.53.06.21.02.43.03.64.03.03-.03.12-.09-.11-.09Z"/>
        <path class="cls-2" d="m102.83,138.85s-.03,0-.04,0c.02,0,.04.01.04,0Z"/>
        <path class="cls-2" d="m99.56,138.9s.02.01.03.02c0,0,0-.01,0-.02h-.04Z"/>
        <path class="cls-2" d="m102.19,138.93c.16.02.25,0,.35-.04-.12.01-.25.02-.38.02-.01.02-.02.03.04.02Z"/>
        <path class="cls-2" d="m100.86,138.78c.08.02.18.04.28.06-.08-.03-.25-.08-.28-.06Z"/>
        <path class="cls-2" d="m102.74,138.82s.02,0,.02,0c-.05-.02-.05-.01-.02,0Z"/>
        <path class="cls-2" d="m102.74,138.82c-.08.02-.15.04-.21.07.1,0,.19-.02.26-.04-.02,0-.04-.02-.05-.03Z"/>
        <path class="cls-2" d="m98.98,139.59c.03-.1.45-.19.81-.09.36-.08.12-.4-.19-.58-.01.04-.01.08-.38.14.13.05.81.12.51.21-.49.06-.4-.03-.64-.08.2.12-.62.18-.51.37l.43-.07s-.15.07-.03.1Z"/>
        <path class="cls-2" d="m100.29,138.93h.15c-.17-.03-.3-.07-.52-.14-.25.05-.3.09-.32.12h.74s-.05.02-.05.02Z"/>
        <path class="cls-2" d="m101.12,138.91c-.12.11-.48.16-.26.27.44-.01.31-.09.57-.14-.71.03.2-.06-.31-.12.14-.02.27-.03.39-.03-.13-.01-.25-.03-.37-.05,0,0,.01,0,.02,0h0s0,0,0,0c.03.01.04.02,0,.01,0,0-.01,0-.01,0,0,.02-.02.03-.03.04-.21-.02-.03-.03.03-.04,0,0,0-.01,0-.02,0,0,0,0,0,0l-.72.07c.15.01.34,0,.68,0Z"/>
        <path class="cls-2" d="m104.72,139.42s-.02-.02-.02-.02c-.05.01-.06.02.02.02Z"/>
        <path class="cls-2" d="m104.42,139.35c.05-.02.09-.06.26-.05.15.03,0,.05,0,.09.1-.03.36-.08.04-.13l-.05.02c-.29-.03-.66-.17-.61-.18.08.1.16.16.35.26Z"/>
        <path class="cls-2" d="m102.75,139.16l-.6.06.3.09-.02-.06c.34.02.27-.05.31-.09Z"/>
        <polygon class="cls-2" points="99.49 138.85 99.57 138.74 99.23 138.9 99.49 138.85"/>
        <polygon class="cls-2" points="98.72 138.87 98.74 138.77 98.54 138.83 98.72 138.87"/>
        <path class="cls-2" d="m55.01,140.48l-.17.03c.08,0,.14-.02.17-.03Z"/>
        <path class="cls-2" d="m56.28,140.48l.03-.05c-.06.03-.08.05-.03.05Z"/>
        <path class="cls-2" d="m79.69,139.05c-.26-.09-.54-.23-.51-.12l.08.11c.18-.02.31-.01.43.01Z"/>
        <path class="cls-2" d="m66.67,139.81s.05.02.07.03c.06-.04.12-.07.17-.11-.07.02-.16.05-.25.07Z"/>
        <path class="cls-2" d="m66.49,140.26l-.34-.07c.08.02.18.05.34.07Z"/>
        <path class="cls-2" d="m48.09,140.66l-.2.11c.32,0,.18-.06.2-.11Z"/>
        <path class="cls-2" d="m90.78,138.98c-.22-.04-.4-.06-.55-.06.27.06.48.15.55.06Z"/>
        <path class="cls-2" d="m55.5,139.33c-.11.02-.15.04-.15.07.11-.02.17-.04.15-.07Z"/>
        <path class="cls-2" d="m89.6,138.93s.08.02.12.02c.16-.02.32-.04.52-.03-.2-.04-.42-.07-.64,0Z"/>
        <path class="cls-2" d="m22.97,140.79s-.04,0-.06-.01c0,.01.02.02.06.01Z"/>
        <path class="cls-2" d="m15.64,139.76c.07,0,.19,0,.3-.01-.05,0-.14,0-.3.01Z"/>
        <path class="cls-2" d="m95.6,138.85c.16,0,.03-.01,0,0h0Z"/>
        <path class="cls-2" d="m96.4,139.27s-.06.03-.07.05c.01-.03.04-.04.07-.05Z"/>
        <path class="cls-2" d="m87.97,139.62s0,0-.01,0c.05.02.04.02.01,0Z"/>
        <path class="cls-2" d="m95.85,138.9c-.06-.01-.13-.02-.21-.03.03,0,.1.02.21.03Z"/>
        <path class="cls-2" d="m95.81,138.85c.06,0,.1,0,.14,0,.02-.02,0-.03-.14,0Z"/>
        <path class="cls-2" d="m95.37,138.86c.09,0,.18,0,.27,0-.03,0-.05-.01-.04-.02-.05,0-.12,0-.23,0Z"/>
        <path class="cls-2" d="m36.42,140.38s-.02,0-.04,0c-.17.05-.09.04.04,0Z"/>
        <path class="cls-2" d="m75.42,140.21s.01,0,.02,0c0,0-.02,0-.02,0h0Z"/>
        <path class="cls-2" d="m74.83,140.3c.25-.14.39-.12.58-.09l-.2-.31-.39.41Z"/>
        <path class="cls-2" d="m51.97,140.54l.42.09c-.5.16-.86.11-.47.25.06-.34,1.61-.05,1.67-.39l.27.07c-.08,0-.09.02-.17.01.53.16.39-.25,1.08-.21.24.02.41.07.24.11l.53-.09c.15,0,.12.06-.04.06l.81-.03h0c.12-.04.38-.13.5-.17.21.05-.1.04-.05.08l.45-.09c.18.09-.19.18-.5.17.42.34.37-.09,1.28.1l-.42.05c.27.19.61.12,1.09.23-.11-.06-.96-.29-.48-.38.14.02.32.04.58-.04,0,.12.26.09.58.08l-.02.16c.35-.05.32-.13.52-.2.39.01.47.14.56.24.62.02-.43-.19.3-.23.52.06.88-.01,1.49-.11.36.05-.06.1.07.14l.32-.13c.08,0,.05.04.04.06.27-.05.02-.16.44-.21.11-.18.87.25,1.39.05.13.04-.06.1-.02.16.72-.14.62-.1,1.2-.28l.5.1c-.37-.12.1-.26.51-.38-.13-.06-.24-.11-.32-.13l.66-.09c.08.03.01.08-.09.15.04-.01.09-.03.12-.04.24.06.12.15-.05.24-.08-.03-.16-.06-.24-.1-.16.1-.31.21-.28.3.04-.02.13-.04.22-.05-.04.03-.07.05-.05.07.02.02.09-.02.2-.06l.15.18.04-.07.86.1c.62-.18,1.15-.45,2.13-.54-.24.13-.05.21-.06.37-.27-.16-.76.08-1.27.05.27.01.21.09.14.12l.91-.16c-.02.13.19.09.43.14-.18-.25.67-.17,1.04-.25.02.08-.06.17-.51.15.5.18.64-.3,1.13-.14-.11,0-.17,0-.21.03.26-.08.88-.02.74.05h-.11c.73.03,2.22-.01,2.33-.23,0,.03-.09.26-.14.3l1.3-.73c-.11.18.33.61-.27.72.17.02.39.05.75-.01-.12-.02-.3-.26-.14-.28.45.2.31.11.86.27-.18-.04.02-.33.3-.32-.04.04.03.28-.08.31l.7-.29c-.17.05-.03.24.13.32-.07-.05.6,0,.79-.03l-.3-.06c.79.04.78-.4,1.56-.39-.09.06-.23.36.17.39.18-.15.8-.7,1.49-.82l.13.08.53-.1c-.33.22-1.25.68-1.76.87.3.06.08.1.53.08.16.08-.24.12-.37.12l1.03.04c-.05-.17.79-.18.75-.32l-1.12.18c-.05-.17.64-.48,1.37-.46.19.07-.14.3-.12.36.09-.06.69-.12.76-.08l-.31.09c.41.06.66-.23,1.15-.07.17,0,.5.21.53.11-.28-.19-.34-.78-.15-.93.06.01.89.18,1.08.27.28.15-.41.36-.18.49,0-.05.16-.1.23-.12.18.04-.07.14.31.12.06-.17.78,0,.18-.15.38-.05.4.03.84.02-.14-.11.39-.38.77-.43-.02.04.06.1.1.12.77,0,1.19.08,1.9.08.07.04.41.09.27.16.1-.03.2-.09.42-.1.43.14-.49.03-.17.2.03-.1.57-.14.89-.21-.1-.15-.73-.02-1.05.04,0-.21.55-.44,1.3-.54.6-.06.26.13.36.1,1.12.03.95-.38,1.88-.23.37.13.02.27.1.36-.49.06-.75-.08-1.08-.07l.41.06c-.15.05-.48.08-.66.05.31.12,1.89,0,2.76.11.15-.05.42-.1.29-.15l-.27.02c-.25-.11.51-.15.17-.2.37-.08.78-.2,1.29-.15l.1.15s-.34-.09-.48-.04c.21-.07.79.2,1.03,0l-.36-.1c.37-.08.82-.25,1.28-.2-.21-.15-.11.02-.43-.16.28.22-1.17,0-.72.23-.34-.2-.58-.08-1.02-.25.01.05.16.1-.23.07-.02.01-.06.03-.08.05-.01,0-.02,0-.03,0,0,0,.01,0,.02,0-.02,0-.02,0,0,0,.09.02.17.05.2.08-.19.12-.8.12-1.01.18-.23-.02.09-.06-.03-.11l-.31.09c-.03-.11-.61-.18-.07-.25h-.48c-.29-.06-.68-.08-.92-.03-.23-.02-.58.13-.38.04l-.76.08v-.03c-.76,0-1.55.2-2.4,0-.25.03-.51.07-.93.04l-.08-.1c-.32.04-.97-.09-1.11.01-.35-.26-1.57-.04-2.14-.08l-.02.13c-.39,0-.77.04-1.25.09l.03.11c-.42.1-1.08-.07-1.74-.05.04-.04.21-.03.33,0-.79-.25-1.67.2-2.39.02-.18.04-.31.03-.43,0,.02,0,.03,0,.04,0-.02,0-.05,0-.07,0-.08-.02-.16-.04-.25-.06.08.03.15.05.21.06-.14,0-.35.02-.55.05l-.09-.12s-.03,0-.05,0c-.2-.04-.16.06-.05.15-.1.02-.2.05-.27.08-.17-.19-.54.07-.76-.14-.14.1-1.03.09-1.14.3,0-.03-.07-.04.04-.04-.23-.02-.46-.04-.66.02l-.1-.15-.5.21c-.3-.09-.43-.14-.13-.26-.73.19-.59.07-1.21.26l.03-.1c-.22,0-.57.14-.71.06-.5-.18-2.45,0-3.72-.17.25.29-.59-.13-.64.1-.07-.07-.25-.11-.05-.17-.65.07-.98-.1-1.42.09-.07-.07.14-.1.07-.14-.05.02-.21.06-.27.02-.07-.04.09-.06.2-.09-.66.02-.73.23-.77.43-.34-.09-.5-.08-.75.06-.12-.06-.31-.13.1-.16-.23,0-1.42-.08-1.44.08-.07-.04-.32,0-.38,0-.52,0-.57-.02-1.08,0l.14.02c-.2.19-.42.05-.83.07v-.02c-.93-.13-.39.07-1.33-.08l.05.12c-.08.26-.83-.14-1.36-.04l.2.07c-.29.09-.83-.34-1.12-.37-.06-.02.1-.04.19-.05-.78-.15-.1.16-.68.2-.11-.08.14-.22-.25-.23-.19-.07-1.13.28-1.66.13.12.06.23.13-.03.18-.41.03-1.11-.24-1.48-.03-.05-.02-.07-.03-.07-.05-.31.06-1.02.1-1.21.21-.29-.41-1.95.22-1.95-.16l-.97.03.02-.04c-.62-.02-.84.07-1.05.17-.14-.02-.04-.06-.03-.08-.9-.07-.99-.05-1.75.14l-.08-.12c-.2.07-1.31-.18-2.19-.03,0-.01.03-.04.1-.06-1,.15-2.39-.32-2.75.13l-.66.12c.85.03-.13.2.23.27-.33.03-.87-.13-.46-.16l.06.02c.15-.24-1.06-.07-1.04-.23-1.67.03-3.31-.09-4.88-.09l.18.18h-.55c-.14-.05-.19-.15.2-.14-.21-.1-.65.09-.66.13-.76-.07.3-.22.06-.22l-.32.02.07.02c-.26.08-.28.16-.75.15-.3-.03-.15-.11-.27-.12,0-.01-.04-.02-.18,0h-.69s.28.13.28.13c-.3.07-.65,0-.33.16-.47-.25-2.57-.07-2.86-.14-.43.11-.85.11-1.37.1.13.03.21.19-.24.17.16-.34-.83-.14-1.19-.38.33.16-1.28.05-.77.27-.38-.02-.02-.13-.31-.2-.9.14-1.98-.07-3.08-.01-.02.04.17.11-.07.18l-.59-.21c-.22.02-.2.26-.6.11.06.04.14.09,0,.11-2.17-.2-4.43.21-6.64-.17.3.08.1.09-.13.1.15.02,0,.11.03.17l-.92-.16c-.17.17-.99.02-1.08.18l.29-.03c-.39.19.55.41.49.65.43-.22,1.15.3,1.86,0,.16.05-.13.08-.05.13.18-.1.4-.13.8-.09l-.05.03c1.14-.04,1.63.06,2.91.12l-.1-.12c.27.01.33.05.46.08.31-.18-.77,0-.49-.2.37.24,1.94-.01,2.19.26.42,0-.13-.14.3-.14l.11.07.11-.1c.28.01.42.1.43.17-.07,0-.19.02-.26.03.36.08,1.01-.04,1.14-.01l-.41-.04c1.15-.08,2.56,0,3.67-.15l-.09-.06c.85-.11.68.06,1.62,0h-.03c.19-.04.44-.07.69-.07-.24.07.44.12.14.2.92-.12.46-.09,1.06-.3l.14.09c.21-.09.22-.13.69-.16-.38.08.3.14-.13.25.98.19,1.45-.22,1.9.08.45-.26-.85-.14-.6-.19-.21-.08.37-.2.68-.17.31,0,.53.32,1.32.31-.08,0-.08.02-.16.02.29.06.58-.09.94,0,.2-.16.47,0,.53-.19l-.72.05c.41-.06.79-.29,1.47-.18-.05.04-.25.09-.39.13.2.06.38-.04.58.02-.06.2-.88.05-1.31.21.21.08.83-.15.61.07.31-.28.78.03,1.31-.19l-.03.12c.08-.02.26-.08.41-.08l-.28.16c.43-.14.83.11,1.25.03-.87.01-.2-.14-.56-.22,1.07-.17.62.3,1.81.24-.16.02-.61-.07-.36-.12.23.02.53.07.67.13.79-.03-.12-.12.21-.2.27.14.39-.06.74-.11v.12c.91.07.24-.25,1.05-.17l-.34.17.42-.05-.09.14c.46-.11.6-.08,1.06-.05-.11-.08.06-.22.46-.23.27.07-.15.12.42.09-.13.08-.27.17-.51.06-.02.04-.13.08-.15.12.29.08.74.01.94,0-.08,0-.17,0-.22-.03l.82-.17c.13.04.03.08-.07.12.17-.01.28-.07.53-.08-.06.1-.05.2-.39.25l.78-.12c.05.04.4.11.3.15.43.05,1.06-.2,1.64-.13.03-.02.09-.04.21-.05.54.02,1.02.13,1.66,0l.37.17c.5-.04-.49-.22.34-.29.59-.06.22.15.43.2.29-.09.8-.28,1.35-.14-.18.03-.32,0-.49.02Zm6.19-.13c-.12.03-.36.11-.45.04.14-.14.24-.07.45-.04Zm9.41-.37c-.09.04-.23.02-.38-.02.11-.01.24,0,.38.02Zm26.22-1.07s0,0-.01,0c-.27-.04-.17-.03.01,0Zm.56.05c.06-.02.05-.03.03-.05-.04.03-.16.03-.31.03.04.03.11.05.28.02Zm-59.7.57l.11.03c-.24.04-.18,0-.11-.03Z"/>
        <path class="cls-2" d="m66.51,140.21s-.04-.04-.05-.07c-.05.02-.05.04.05.07Z"/>
        <path class="cls-2" d="m48.12,140.64s-.01,0-.02,0c-.01,0-.02.01-.02.02l.04-.02Z"/>
        <path class="cls-2" d="m85.75,140.11c-.11-.02-.18-.04-.22-.06,0,.03.05.05.22.06Z"/>
        <path class="cls-2" d="m97.3,138.78l-.36.03c.17,0,.23.02.32.04,0-.03-.08-.07.03-.07Z"/>
        <path class="cls-2" d="m100.4,139.5c.05-.02.11,0,.16-.02v-.06c-.24,0-.39.05-.16.07Z"/>
        <path class="cls-2" d="m97.63,139.18c.03.1.25.06.5.04-.01,0-.03,0-.04,0,.07-.14-.19-.09-.46-.04Z"/>
        <path class="cls-2" d="m98.19,139.22c.08,0,.16,0,.23,0,.03-.06-.09-.01-.23,0Z"/>
        <path class="cls-2" d="m95.06,138.94c.12.03.07-.13.14-.09.13-.13-.79.16-.14.09Z"/>
        <polygon class="cls-2" points="97.84 139.51 97.75 139.39 97.61 139.49 97.84 139.51"/>
        <path class="cls-2" d="m95.87,139.44l.4.03s.04-.03.11-.04c-.25,0-.51-.02-.51.01Z"/>
        <path class="cls-2" d="m96.37,139.42c.13,0,.25,0,.32-.02-.07,0-.22,0-.32.02Z"/>
        <polygon class="cls-2" points="97.29 139.55 97.18 139.53 96.89 139.52 97.29 139.55"/>
        <path class="cls-2" d="m91.58,139.45l-.43.04s.07.07.24.05c.1-.03.27-.05.2-.09Z"/>
        <path class="cls-2" d="m92.9,139.78c-.12-.02-.13-.05-.19-.09v.16s.19-.06.19-.06Z"/>
        <path class="cls-2" d="m91.63,139.83s-.63.13-.08.11c.04-.04.48-.08.08-.11Z"/>
        <polygon class="cls-2" points="85.08 139.69 85.19 139.69 85.17 139.43 85.08 139.69"/>
        <path class="cls-2" d="m79.31,140.35c.52.06.12-.16.59-.09.12-.06-.38-.06-.26-.11-.31.07-.47.03-.33.2Z"/>
        <path class="cls-2" d="m79.64,140.15s.1-.02.16-.04c-.09.02-.13.03-.16.04Z"/>
        <polygon class="cls-2" points="14.42 139.63 14.09 139.58 14.3 139.67 14.42 139.63"/>
        <path class="cls-2" d="m13.79,139.83l-.08-.16-.2.15c.07,0,.22-.02.28.01Z"/>
        <path class="cls-2" d="m59.09,140.73l.02-.04c-.05-.04-.13-.04-.28-.05l.26.09Z"/>
        <polygon class="cls-2" points="54.59 140.64 54.67 140.65 54.53 140.5 54.59 140.64"/>
        <path class="cls-2" d="m50.82,140.86c.15,0,.33-.03.49-.02-.34.03-.53-.16-.49.02Z"/>
      </g>
    </g>
  </g>
</svg>