<?xml version="1.0" encoding="UTF-8"?>
<svg id="Capa_2" data-name="Capa 2" xmlns="http://www.w3.org/2000/svg" viewBox="0 0 85.11 208.66">
  <defs>
    <style>
      .cls-1 {
        stroke-width: .25px;
      }

      .cls-1, .cls-2, .cls-3 {
        stroke: #000;
        stroke-miterlimit: 10;
      }

      .cls-1, .cls-3 {
        fill: none;
      }

      .cls-2 {
        fill: #fef5f5;
      }

      .cls-2, .cls-3 {
        stroke-width: .5px;
      }
    </style>
  </defs>
  <g id="Capa_1-2" data-name="Capa 1">
    <g>
      <path class="cls-2" d="m83.39,181.46c.82-1.56,1.33-3.28,1.47-5.19,0,0,.73-2.09-15.86-17-1.35-1.21-2.43-2.49-3.32-3.81,4.17-1.89,6.69-4.33,6.69-7,0-3.37-3.99-6.37-10.25-8.35-1.23-13.11-8.45-37.5-7.07-46.9.03-.23.04-.45.05-.68,4.45-.63,15.01-1.73,19.81-3.44,0,0,7.72-16.21-8.15-17.92,0,0-5.32-10.15-5.32-4.8,0,.42-.25.77-.68,1.07,1.76-2.98-.45-6.42-.45-6.42l8.7-26.32c1.73-1.2,2.7-2.53,2.7-3.95,0-4.42-9.49-8.11-22.15-9v-2.19h5.24V7.49h-5.24V.25h-13.98v7.24h-5.24v12.07h5.24v2.37c-11.57,1.14-20.01,4.66-20.01,8.82,0,1.41.97,2.75,2.7,3.95h-2.7l10.53,26.32s-3.01,2.72-1.21,5.43c-.36-.05-.58-.08-.58-.08,0,0-2.59,2.29-3.92,5.26-.49.06-.76.09-.76.09,0,0-2.02,1.07-3.84,2.78,0,0-7.1,2.5-4.92,9.33,1.08,3.37,2.63,10.32,17.29,6.84.84-.2,1.68.48,2.56.7-1.17,1.58-1.9,3.45-1.99,5.61,0,0-.94,38.6-4.42,40.35-1.36.68-2.18,2.57-2.49,4.67-3.49,1.8-5.55,4.04-5.55,6.45,0,1.67.98,3.24,2.73,4.65-1.11.67-2.25,1.36-3.43,2.08,0,0,0,6.7-13.16,16.35,0,0-4.04,6.73-1.04,12.49-.37.22-.74.44-1.11.67v9.65s17.01,13.66,41.72,14.04c30.38.46,42.89-11.61,42.89-11.61v-14.71s-.52-.23-1.47-.62Z"/>
      <path class="cls-3" d="m22.36,36.95c9.97,2.54,20.33,3.57,30.6,3.04"/>
      <path class="cls-3" d="m55.6,39.12l5.3-2.56"/>
      <path class="cls-3" d="m29.28,63.66c7.02,0,14.04,0,21.05,0"/>
      <path class="cls-3" d="m24.02,71.47c11.99.38,24,.28,35.99-.29"/>
      <path class="cls-3" d="m30.71,94.15c8.21-.37,16.55-.57,24.89-.6"/>
      <path class="cls-3" d="m25.8,136.48c.65,2.18,3.5,2.59,5.78,2.59,9.18.01,18.35.02,27.53.03"/>
      <path class="cls-3" d="m17.13,144.95c14.53,6.68,31.84,7.03,46.64.95"/>
      <path class="cls-3" d="m19.5,156.07c15.63,2.46,30.35-.28,46.16-.61"/>
      <path class="cls-1" d="m81.03,184.71c-6.26,3.61-19.26,9.98-36.84,10.53-21.11.65-36.61-7.48-42.83-11.19"/>
    </g>
  </g>
</svg>